<?xml version="1.0" standalone="no"?>
<!DOCTYPE svg PUBLIC "-//W3C//DTD SVG 20010904//EN"
 "http://www.w3.org/TR/2001/REC-SVG-20010904/DTD/svg10.dtd">
<svg version="1.0" xmlns="http://www.w3.org/2000/svg"
 width="640.000000pt" height="960.000000pt" viewBox="0 0 640.000000 960.000000"
 preserveAspectRatio="xMidYMid meet">

<g transform="translate(0.000000,960.000000) scale(0.100000,-0.100000)"
fill="#000000" stroke="none">
<path d="M0 9009 l0 -591 48 7 c26 3 96 18 156 31 103 24 267 45 497 64 122
10 140 13 234 44 39 13 87 29 109 36 33 11 228 24 496 35 41 1 113 10 160 18
47 9 132 21 190 27 99 11 183 29 239 52 14 5 88 12 165 15 97 3 173 12 243 29
66 16 134 24 190 24 49 0 106 5 128 10 22 5 94 12 160 16 66 3 149 11 185 19
36 8 106 16 155 20 50 3 115 12 145 20 30 9 91 18 135 21 44 3 102 12 129 20
27 8 112 16 190 19 104 5 167 13 241 32 265 67 332 81 372 73 60 -10 119 -57
134 -105 17 -51 19 -74 7 -81 -5 -3 -8 -45 -7 -92 0 -48 -2 -95 -6 -104 -12
-30 -114 -73 -171 -72 -43 0 -61 6 -105 37 -109 74 -159 72 -159 -8 0 -54 -11
-81 -68 -165 -50 -72 -61 -85 -112 -120 -19 -13 -40 -30 -45 -38 -6 -7 -35
-15 -65 -18 -30 -3 -84 -14 -119 -25 -35 -10 -76 -19 -91 -19 -15 0 -74 -23
-130 -51 l-103 -50 -76 16 c-42 9 -87 18 -101 21 -13 3 -26 7 -29 9 -8 9 -76
-27 -114 -61 -21 -20 -73 -52 -114 -71 l-74 -36 -81 11 c-89 11 -122 3 -150
-37 -8 -11 -32 -27 -53 -37 -22 -9 -50 -21 -62 -27 -12 -5 -68 -8 -130 -5
-107 5 -310 -19 -354 -43 -27 -14 -142 -11 -181 6 -45 18 -95 10 -168 -26
-100 -49 -182 -73 -490 -139 -30 -7 -89 -16 -130 -20 -41 -4 -109 -15 -150
-25 -41 -9 -99 -17 -128 -16 -41 1 -69 -6 -115 -29 -68 -33 -84 -35 -120 -19
-21 9 -38 6 -108 -24 -46 -20 -102 -43 -124 -53 l-40 -16 35 -10 c20 -6 78 -7
135 -4 55 4 136 9 180 11 44 3 114 7 155 9 74 5 205 20 430 50 112 15 273 11
468 -10 47 -5 61 -2 130 32 54 27 91 39 124 40 31 0 65 10 105 31 98 53 330
82 423 54 52 -16 227 -13 284 4 27 8 88 15 136 15 64 0 108 7 171 26 46 14
121 28 165 31 72 5 87 3 136 -19 68 -31 122 -78 138 -120 27 -74 29 -76 95
-88 48 -9 70 -19 92 -42 27 -28 28 -33 28 -131 -1 -85 -4 -108 -22 -142 -12
-22 -29 -55 -38 -73 -20 -42 -40 -49 -77 -28 -39 23 -77 27 -109 10 -28 -14
-66 -64 -49 -64 5 0 10 -8 9 -17 0 -11 -3 -13 -6 -5 -6 16 -34 16 -30 0 2 -13
55 -43 70 -40 4 1 7 -3 7 -8 0 -6 12 -15 26 -20 14 -6 28 -19 31 -30 6 -21 28
-27 38 -10 4 6 14 9 23 8 10 -2 16 3 14 10 -5 26 19 50 80 80 35 16 88 36 118
42 30 7 69 20 86 30 17 10 55 23 83 29 127 27 161 7 182 -108 11 -65 11 -81
-5 -138 -17 -64 -15 -110 6 -165 6 -16 14 -28 18 -28 4 0 20 -11 36 -25 16
-14 32 -25 37 -25 10 0 9 -71 -2 -106 -5 -16 -12 -80 -15 -142 -8 -147 -35
-216 -67 -170 -8 11 -20 26 -26 34 -7 7 -13 19 -13 26 0 7 -6 22 -14 33 -18
27 -56 180 -56 229 0 64 -9 83 -47 101 -19 9 -37 23 -40 31 -6 16 -63 48 -105
58 -16 3 -28 11 -28 16 0 6 -5 10 -12 10 -6 0 -26 11 -45 25 -32 25 -33 26
-58 8 -27 -20 -30 -29 -15 -38 8 -5 8 -11 1 -19 -7 -9 -5 -23 9 -49 17 -31 18
-37 5 -37 -12 0 -14 -7 -9 -27 4 -16 11 -31 17 -34 6 -4 5 -9 -1 -13 -5 -3
-11 -33 -11 -66 -1 -33 -2 -66 -2 -72 -2 -27 9 -99 15 -105 3 -3 1 -13 -6 -20
-9 -11 -9 -16 2 -23 8 -5 12 -12 8 -15 -3 -3 -2 -21 2 -40 9 -39 -2 -76 -40
-145 -46 -84 -59 -115 -96 -232 -33 -107 -35 -121 -23 -150 8 -20 9 -33 3 -35
-5 -2 -8 -19 -6 -38 4 -32 2 -35 -22 -35 -19 0 -25 4 -20 12 4 7 9 39 10 72 1
34 10 85 19 114 15 45 16 59 5 96 -12 44 -4 80 22 97 14 9 30 161 24 223 -3
28 0 56 5 62 6 8 5 17 -5 27 -8 8 -12 18 -8 22 13 13 9 56 -5 51 -7 -3 -13 -1
-13 4 0 6 9 10 20 10 18 0 18 1 2 33 -9 17 -17 33 -17 34 0 1 -16 -2 -35 -7
-19 -4 -29 -8 -22 -9 20 -2 3 -21 -18 -21 -20 0 -40 -27 -40 -54 0 -9 7 -16
15 -16 9 0 17 -14 21 -40 6 -35 8 -37 22 -24 14 14 16 14 24 0 5 -9 15 -16 22
-16 16 0 29 -136 15 -160 -7 -13 -9 -13 -10 0 -1 8 0 25 0 36 1 12 -7 37 -18
55 l-21 34 -6 -34 c-6 -26 -9 -30 -16 -17 -10 18 -38 22 -38 4 0 -13 -14 -2
-16 13 -1 5 -2 10 -3 12 -2 1 -4 20 -6 42 -3 22 -5 47 -6 55 -1 8 2 24 6 35 7
16 6 18 -6 8 -23 -22 -27 -14 -13 25 7 20 13 45 14 55 0 18 42 40 74 39 33 -2
55 16 49 39 -3 11 4 40 17 65 12 25 20 48 17 50 -3 3 -8 -4 -12 -15 -3 -12
-11 -21 -17 -21 -5 0 -7 8 -4 18 5 14 4 14 -9 -2 -12 -17 -15 -17 -15 -4 0 22
-47 58 -76 58 -24 0 -32 -14 -14 -25 20 -12 10 -26 -10 -15 -11 6 -19 18 -18
27 2 12 -9 20 -39 29 -27 8 -43 9 -43 3 0 -6 -4 -8 -9 -4 -6 3 -17 -10 -27
-30 -19 -40 -35 -55 -27 -25 3 11 9 20 14 20 5 0 9 5 9 11 0 6 -7 9 -15 5 -8
-3 -15 -1 -15 3 0 5 -20 22 -45 38 -25 15 -45 31 -45 36 0 4 -12 6 -27 6 -24
-2 -25 -2 -5 -6 26 -5 30 -23 5 -23 -12 0 -8 -7 15 -21 17 -12 32 -25 32 -30
0 -12 -7 -11 -33 5 -12 8 -32 17 -45 21 -19 5 -23 3 -20 -12 4 -21 -10 -20
-113 7 -88 23 -114 9 -41 -22 28 -12 52 -24 52 -27 0 -4 -45 -4 -99 -3 -59 2
-107 -1 -118 -7 -16 -9 -16 -10 7 -11 14 -1 -4 -8 -40 -16 -47 -10 -72 -22
-95 -44 l-30 -31 53 20 c29 12 63 21 75 21 12 0 32 6 43 14 22 16 48 20 102
18 41 -2 34 -18 -13 -26 -19 -4 -37 -12 -41 -18 -5 -8 2 -9 24 -5 31 6 45 -6
20 -16 -9 -4 -7 -6 3 -6 9 -1 30 6 47 15 18 8 40 14 49 12 11 -2 -5 -15 -45
-35 -46 -24 -62 -28 -62 -18 0 18 -10 18 -33 0 -11 -7 -24 -12 -30 -9 -7 2
-23 -6 -37 -17 l-25 -20 25 7 c22 6 23 5 11 -10 -8 -9 -9 -16 -3 -16 6 0 14 5
17 10 4 6 12 9 18 8 7 -1 21 3 33 9 19 11 20 10 16 -19 -3 -19 -1 -29 6 -25 5
4 12 -4 14 -18 9 -45 -63 -93 -97 -65 -12 10 -15 9 -15 -4 0 -10 -7 -24 -15
-32 -8 -9 -14 -25 -14 -37 2 -22 2 -22 6 1 2 12 8 20 13 17 5 -3 12 0 15 5 5
7 12 5 21 -7 8 -11 13 -13 14 -5 0 6 5 12 11 12 5 0 7 -5 4 -10 -4 -6 -4 -24
0 -40 10 -46 34 -16 27 34 -4 35 -3 38 9 26 9 -8 13 -25 11 -42 -3 -20 0 -28
11 -28 8 0 17 6 20 13 3 9 8 9 17 1 9 -9 9 -17 0 -34 -9 -17 -14 -20 -20 -9
-7 10 -12 10 -23 0 -12 -9 -16 -9 -21 1 -3 7 -3 -6 0 -29 3 -27 1 -43 -6 -43
-5 0 -10 7 -10 16 0 8 -4 13 -9 9 -5 -3 -13 -1 -16 5 -4 6 -16 8 -27 4 -13 -4
-24 0 -33 13 -11 15 -17 16 -33 6 -14 -8 -23 -8 -30 -1 -13 13 -102 21 -102 9
0 -5 20 -12 44 -15 23 -4 52 -15 62 -25 11 -9 26 -15 33 -13 8 3 11 0 7 -6 -3
-6 3 -13 13 -17 13 -4 18 -12 14 -21 -8 -22 24 -53 48 -47 15 4 22 0 26 -16 3
-11 12 -21 19 -21 18 0 18 -10 -1 -24 -12 -9 -13 -15 -2 -36 12 -22 9 -31 -22
-83 -19 -32 -37 -54 -40 -48 -4 6 -25 -7 -51 -30 -24 -22 -51 -44 -59 -49 -12
-7 -13 -9 -2 -10 10 0 11 -3 2 -14 -8 -10 -9 -16 -1 -21 5 -3 10 -15 10 -26 0
-12 7 -19 20 -19 26 0 25 -20 -2 -50 -13 -13 -21 -32 -20 -42 2 -11 -13 -34
-37 -56 -23 -21 -41 -45 -41 -54 0 -11 -6 -15 -20 -11 -11 3 -20 0 -20 -6 0
-21 -52 -90 -64 -85 -16 6 -29 -10 -49 -63 -16 -41 -16 -43 1 -44 9 0 -1 -9
-23 -20 -39 -18 -39 -23 -2 -20 19 2 22 -15 7 -54 -13 -33 -34 -55 -54 -55 -9
0 -16 -6 -16 -12 0 -8 -16 -14 -41 -14 -23 -1 -45 -8 -50 -15 -4 -7 -11 -10
-15 -6 -8 8 -34 -11 -34 -24 0 -5 6 -6 14 -3 8 3 17 1 21 -5 11 -18 -31 -12
-55 7 -18 14 -24 33 -30 93 -4 40 -11 82 -15 92 -8 20 20 25 29 5 5 -10 7 -10
12 0 3 6 11 12 17 12 7 1 26 12 42 26 l30 25 -40 -5 c-22 -3 -61 -8 -87 -12
l-48 -6 0 44 0 45 68 -5 c37 -2 86 -4 109 -4 33 1 41 -2 36 -14 -4 -12 -1 -13
23 -3 16 7 39 11 51 11 16 -1 21 3 17 13 -4 8 -10 12 -15 9 -5 -3 -9 -1 -9 4
0 11 -79 37 -100 34 -8 -1 -59 -4 -113 -6 -84 -2 -99 0 -107 14 -5 10 -7 20
-3 23 9 10 -7 78 -18 72 -5 -4 -15 -3 -21 2 -7 4 -21 9 -30 10 -9 1 -29 14
-44 28 -28 26 -28 26 -36 6 -4 -12 -13 -21 -21 -21 -22 0 -126 -100 -147 -140
-11 -21 -33 -53 -50 -72 -17 -18 -35 -51 -41 -73 -44 -165 -100 -254 -171
-273 -29 -7 -89 2 -140 23 -23 9 -23 -4 -2 -20 13 -9 14 -16 5 -33 -6 -11 -11
-32 -11 -45 0 -29 -28 -99 -43 -109 -36 -22 84 -21 193 2 30 6 67 12 81 14 14
2 31 6 37 10 8 5 12 -4 12 -29 0 -22 -4 -34 -10 -30 -6 4 -24 -5 -41 -20 -17
-14 -47 -32 -66 -40 -19 -8 -48 -26 -65 -40 -16 -14 -35 -25 -41 -25 -28 0
-205 -189 -239 -254 -11 -22 -27 -46 -34 -54 -8 -7 -14 -28 -14 -46 0 -19 -7
-39 -15 -46 -8 -7 -15 -24 -15 -37 0 -25 -33 -77 -43 -67 -3 3 -3 -12 0 -34 3
-24 1 -42 -6 -46 -6 -4 -11 -25 -11 -47 0 -22 -5 -50 -12 -62 -6 -12 -13 -42
-14 -67 -1 -25 -4 -58 -8 -75 -9 -49 -46 -254 -63 -345 -8 -47 -15 -94 -14
-105 0 -18 -1 -19 -10 -2 -6 9 -7 26 -4 37 9 27 -3 25 -15 -3 -8 -18 -9 -16
-4 11 5 26 1 38 -14 52 -10 10 -22 37 -26 61 -4 24 -11 48 -17 55 -14 17 -38
114 -27 114 5 0 4 9 -2 19 -13 25 -13 58 0 63 18 6 18 158 0 158 -5 0 -10 -18
-10 -41 0 -74 -20 -129 -54 -150 -39 -25 -116 -20 -175 11 -58 29 -117 35
-171 16 -30 -10 -62 -14 -96 -10 -40 5 -59 2 -92 -15 -49 -25 -88 -26 -176 -6
-35 8 -88 17 -118 20 -29 3 -59 8 -65 10 -10 3 -13 -68 -13 -337 l0 -341 24
22 c24 23 110 51 158 51 15 0 43 -7 62 -17 34 -16 37 -16 98 10 50 22 79 27
141 27 43 0 87 5 98 11 11 6 66 10 123 10 95 -1 108 2 185 34 46 20 96 44 111
55 16 11 33 20 38 20 6 0 18 8 27 17 18 17 18 8 -2 -112 -3 -16 -6 -43 -7 -60
0 -18 -8 -33 -21 -40 -16 -8 -19 -16 -14 -40 11 -49 10 -145 -1 -145 -5 0 -10
15 -10 34 0 19 -5 57 -12 85 -9 40 -16 51 -31 51 -18 0 -19 -5 -12 -97 3 -54
11 -113 18 -130 14 -43 5 -50 -31 -23 -27 20 -34 21 -66 10 -51 -17 -124 -3
-155 29 -37 38 -73 61 -95 61 -11 0 -41 -18 -67 -40 -42 -35 -113 -69 -146
-70 -7 0 -38 23 -69 51 l-57 51 -68 -6 c-85 -9 -144 6 -187 47 l-32 31 0 -522
c0 -287 3 -522 7 -522 4 0 24 12 45 26 36 25 42 26 115 19 131 -14 331 -10
478 9 77 10 150 19 162 20 23 3 21 13 39 -179 6 -64 6 -69 -10 -56 -25 21 -32
4 -8 -22 16 -16 21 -36 22 -77 1 -96 -15 -195 -38 -223 -6 -7 -7 -34 -2 -70 7
-50 5 -64 -11 -93 -29 -52 -24 -77 20 -117 21 -19 44 -37 52 -39 12 -4 11 -11
-4 -36 -17 -30 -17 -31 9 -51 14 -11 35 -23 45 -26 14 -5 17 -10 11 -18 -5 -7
-12 -28 -15 -47 -14 -82 -19 -106 -27 -125 -4 -11 -11 -29 -14 -40 -6 -19 -5
-19 8 -2 12 16 14 16 20 2 3 -9 2 -14 -3 -11 -5 3 -11 -1 -15 -9 -3 -9 0 -15
8 -15 14 0 38 -68 29 -83 -3 -6 8 -22 26 -36 33 -27 96 -158 141 -296 35 -106
45 -122 84 -129 23 -5 36 -13 40 -29 10 -37 7 -90 -9 -141 -8 -27 -15 -53 -15
-58 0 -4 276 -8 612 -8 l613 0 -50 26 c-144 76 -295 207 -392 338 -59 80 -117
187 -106 195 8 6 9 10 12 57 1 23 3 25 18 13 15 -13 16 -11 9 24 l-7 37 36 0
c54 0 85 38 48 59 -16 8 -14 10 9 16 14 4 28 15 31 25 3 13 11 16 31 13 32 -7
36 19 6 44 -26 22 -26 37 0 30 28 -7 25 2 -5 13 -30 11 -33 30 -5 30 17 0 18
3 9 19 -20 30 -5 50 32 44 36 -5 53 11 38 38 -5 10 -7 39 -5 66 3 26 5 51 5
56 2 13 49 8 86 -10 54 -26 55 -6 2 43 -27 24 -49 52 -50 63 0 11 -5 17 -9 15
-8 -5 -9 -4 -13 33 -1 13 -8 29 -15 38 -16 19 -11 19 34 0 l36 -15 0 29 c0 16
-7 61 -15 99 -8 39 -14 83 -14 99 1 25 -6 68 -12 68 -1 0 -3 9 -4 20 -2 11
-10 45 -18 75 -8 30 -12 57 -8 60 9 7 7 44 -2 51 -12 8 2 36 18 36 7 0 33 -15
56 -34 31 -25 52 -33 81 -33 30 0 41 -5 49 -22 26 -61 -5 71 -51 212 -29 89
-50 169 -48 187 1 18 -3 38 -10 45 -16 16 -15 28 3 28 20 0 19 10 -3 26 -12
10 -13 13 -3 14 11 0 11 3 1 15 -11 13 -7 15 25 15 29 0 36 -3 31 -15 -4 -10
1 -15 15 -15 11 0 17 5 14 10 -3 6 1 10 9 10 9 0 16 5 16 10 0 6 -5 10 -11 10
-5 0 -8 4 -4 9 3 5 1 12 -5 16 -6 4 -7 11 -3 18 4 6 7 37 7 69 1 38 6 62 15
67 8 5 11 16 6 30 -5 17 -2 21 14 21 17 0 20 5 17 31 -5 41 4 71 19 65 9 -3
14 21 19 86 4 49 11 97 15 106 13 24 40 157 47 222 9 95 13 121 42 270 37 187
55 322 57 440 1 52 5 109 8 125 17 82 28 284 25 483 -2 173 0 222 10 222 14 0
16 16 4 24 -12 7 -14 128 -4 144 7 10 18 7 53 -12 44 -25 338 -106 384 -106
14 0 25 5 25 10 0 6 5 10 11 10 6 0 8 -7 5 -16 -5 -13 3 -15 47 -12 28 2 51 7
49 11 -2 5 7 17 20 28 13 10 29 23 36 29 9 9 8 19 -7 48 -15 30 -17 47 -11 81
9 53 21 65 54 57 27 -7 33 -27 27 -105 -1 -18 5 -58 15 -87 15 -48 20 -54 44
-54 15 0 51 8 80 17 41 13 48 18 34 24 -17 7 -16 8 4 8 13 1 20 5 17 11 -6 9
7 14 27 11 4 0 5 5 3 12 -3 6 4 18 16 25 18 11 24 11 40 -4 13 -12 19 -13 19
-4 0 7 7 10 15 7 8 -4 17 -2 20 3 3 4 0 10 -7 12 -9 3 -9 6 0 12 7 4 12 2 12
-3 0 -18 18 -12 24 7 4 12 17 17 41 18 29 0 33 -2 22 -15 -14 -17 30 9 84 51
l37 28 8 -78 c5 -42 9 -549 10 -1127 1 -577 4 -1089 7 -1137 5 -71 4 -88 -7
-88 -8 0 -16 -6 -19 -14 -4 -10 0 -12 14 -9 10 3 19 0 19 -6 0 -6 -4 -11 -10
-11 -5 0 -10 -15 -10 -34 0 -28 -4 -35 -27 -41 -14 -3 -38 -15 -51 -26 l-25
-19 25 0 c13 0 29 5 36 12 7 7 12 8 12 2 0 -6 -5 -15 -12 -22 -6 -6 -9 -15 -5
-19 4 -4 13 -1 19 5 14 14 28 16 28 4 0 -5 -18 -14 -40 -21 -39 -12 -55 -31
-25 -31 18 0 18 -5 5 -31 -8 -14 -7 -19 1 -19 6 0 8 -7 5 -16 -3 -8 -1 -25 6
-37 10 -19 12 -30 17 -75 0 -7 5 -11 9 -8 4 2 9 -5 9 -17 4 -45 14 -87 22 -87
5 0 16 -28 26 -62 9 -35 21 -67 25 -73 24 -32 56 -199 55 -284 -1 -47 2 -60
12 -57 18 7 16 -4 -4 -26 -15 -17 -15 -18 2 -18 15 0 16 -3 7 -12 -9 -9 -8
-16 4 -29 14 -16 13 -19 -15 -35 -38 -23 -39 -34 -3 -34 26 0 27 -2 29 -60 1
-32 -2 -62 -7 -65 -12 -7 -13 -26 -2 -24 41 7 38 -35 -5 -50 -39 -14 -42 -28
-9 -40 13 -5 26 -16 29 -24 3 -9 15 -12 38 -9 l33 5 -17 -26 c-22 -33 -21 -37
3 -37 11 0 20 -4 20 -10 0 -5 7 -10 16 -10 11 0 14 -5 10 -17 -4 -9 -1 -20 6
-24 9 -6 9 -11 -1 -23 -15 -18 -7 -36 17 -36 10 0 22 -13 29 -29 8 -23 8 -28
-2 -25 -7 3 -16 1 -20 -5 -3 -6 6 -15 20 -21 22 -8 26 -15 21 -35 -4 -16 -1
-27 8 -32 8 -4 17 -19 19 -33 3 -14 8 -32 12 -41 3 -10 2 -20 -4 -24 -15 -9
-14 -25 2 -20 7 3 20 -13 31 -36 21 -47 28 -35 -89 -157 -91 -96 -229 -196
-466 -339 l-54 -33 601 1 c679 0 629 -6 670 83 13 28 24 42 24 31 0 -13 7 -6
20 20 23 46 24 51 8 37 -10 -8 -13 -1 -12 31 1 32 6 42 23 48 11 5 21 6 21 2
0 -3 7 1 16 8 23 19 13 82 -21 142 -21 37 -30 45 -37 35 -21 -30 7 89 74 312
81 272 168 595 168 628 0 12 4 22 9 22 15 0 41 78 47 143 8 89 23 220 26 222
2 0 15 6 31 13 21 9 27 18 27 41 0 18 -7 34 -17 40 -17 9 -16 11 1 30 11 12
31 21 46 21 39 0 54 24 56 89 1 31 3 61 5 66 1 6 -1 28 -6 50 -4 22 -9 58 -9
80 -1 29 -6 42 -22 50 -23 11 -21 26 7 67 11 14 19 40 19 56 0 17 4 34 10 37
6 4 5 14 -4 28 -8 12 -14 35 -14 50 0 15 -9 38 -20 50 -13 14 -23 43 -28 77
-4 30 -12 64 -17 75 -11 20 -10 121 1 139 3 5 4 66 3 135 -1 69 -3 198 -5 286
-1 89 -6 167 -11 174 -5 9 -3 12 6 9 7 -2 27 11 45 29 29 30 38 33 89 33 31 0
66 -5 78 -12 12 -7 33 -13 47 -14 14 -1 51 -7 83 -14 69 -15 107 -4 107 32 0
34 11 45 50 53 19 4 66 28 104 54 l68 46 123 0 c68 0 127 3 130 7 9 8 14 41
20 108 2 25 8 57 14 72 11 28 76 98 91 98 6 0 10 349 9 963 0 960 0 962 -20
918 -19 -43 -19 -43 -44 -27 -13 9 -31 16 -38 16 -26 0 -63 64 -99 170 -61
179 -73 273 -40 303 45 41 104 2 157 -103 15 -30 34 -67 42 -83 8 -15 20 -46
28 -70 11 -35 13 247 14 1776 l1 1817 -3200 0 -3200 0 0 -591z m5897 -413 c39
-33 81 -95 93 -136 9 -31 7 -37 -21 -66 -26 -27 -30 -38 -25 -61 11 -49 11
-58 -1 -56 -6 1 -25 -10 -42 -26 -25 -23 -31 -37 -31 -71 0 -23 5 -50 10 -60
6 -10 12 -46 15 -79 4 -54 26 -111 44 -111 3 0 7 -21 8 -48 4 -83 25 -266 34
-296 16 -53 9 -116 -14 -116 -19 0 -47 33 -47 55 0 11 -4 25 -9 30 -11 12 -19
70 -27 193 -5 67 -10 92 -20 92 -7 0 -17 7 -22 15 -7 14 -14 14 -63 1 -78 -20
-100 -31 -134 -64 -17 -16 -40 -34 -51 -40 -41 -22 -188 -40 -279 -35 -79 5
-101 2 -179 -23 -84 -26 -93 -27 -155 -15 -36 6 -105 18 -152 25 -70 12 -97
21 -143 52 -57 38 -86 75 -86 112 0 22 54 80 88 93 12 5 22 15 22 24 0 9 -10
20 -22 26 -21 9 -51 29 -117 77 -13 9 -26 19 -30 22 -11 9 -41 81 -41 99 0 42
95 81 200 81 41 0 91 5 110 10 47 13 130 88 130 118 0 55 89 82 156 48 15 -8
31 -13 35 -10 5 2 13 -5 19 -16 6 -11 17 -20 24 -20 8 0 19 -7 26 -16 21 -24
78 -44 130 -44 41 0 51 4 79 35 18 20 45 55 61 78 68 101 164 143 332 146 57
1 71 -3 95 -23z m444 -1093 c33 -72 37 -126 13 -199 -22 -67 -35 -78 -77 -70
-30 6 -38 13 -55 54 -11 26 -26 69 -32 95 -7 26 -16 50 -21 53 -5 3 -9 31 -9
62 0 48 5 62 29 90 16 17 34 32 40 32 6 0 11 6 11 13 1 24 73 -69 101 -130z
m-1335 -264 c3 -5 -6 -9 -20 -9 -16 0 -26 6 -26 14 0 15 36 11 46 -5z m882
-389 c45 -44 55 -89 56 -233 1 -136 -5 -154 -48 -140 -30 9 -53 40 -96 128
-77 159 -83 209 -31 252 38 33 83 30 119 -7z m-2588 -210 c0 -5 -15 -10 -32
-9 -31 1 -32 1 -8 9 35 11 40 11 40 0z m-80 -30 c0 -5 -9 -10 -21 -10 -11 0
-17 5 -14 10 3 6 13 10 21 10 8 0 14 -4 14 -10z m310 1 c0 -4 -11 -6 -25 -3
-14 2 -25 6 -25 8 0 2 11 4 25 4 14 0 25 -4 25 -9z m70 -5 c-20 -19 -60 -30
-60 -17 0 13 30 30 55 31 17 0 17 -2 5 -14z m-260 -46 c0 -5 -10 -10 -22 -9
-22 0 -22 1 -3 9 11 5 21 9 23 9 1 1 2 -3 2 -9z m190 -10 c-8 -5 -19 -10 -25
-10 -5 0 -3 5 5 10 8 5 20 10 25 10 6 0 3 -5 -5 -10z m-95 -20 c-14 -16 -20
-17 -26 -8 -7 12 2 18 40 27 2 1 -4 -8 -14 -19z m1324 -25 c93 -106 140 -309
111 -479 -16 -94 -33 -113 -85 -96 -77 26 -141 121 -195 289 -48 150 -37 241
33 292 56 41 96 39 136 -6z m-1469 7 c0 -4 -15 -23 -34 -41 -24 -24 -36 -29
-41 -20 -5 8 4 23 24 41 31 28 51 36 51 20z m234 -43 c-2 -4 -18 -12 -36 -18
-30 -11 -31 -11 -14 8 16 18 60 26 50 10z m-350 -34 c-8 -40 -24 -56 -24 -24
-1 23 -1 23 -15 5 -8 -11 -15 -15 -15 -9 0 7 5 15 10 18 6 3 10 15 10 25 0 13
7 18 20 17 18 -1 20 -6 14 -32z m556 31 c0 -3 -4 -8 -10 -11 -5 -3 -10 -1 -10
4 0 6 5 11 10 11 6 0 10 -2 10 -4z m-183 -28 c-2 -7 0 -20 4 -30 5 -9 4 -29
-2 -46 -8 -24 -7 -37 5 -60 9 -17 21 -32 28 -35 7 -2 10 -8 6 -12 -4 -4 -16 3
-27 16 -19 23 -20 23 -21 4 -1 -16 -4 -15 -17 10 -19 33 -26 102 -12 111 5 3
9 11 9 17 0 7 -5 4 -11 -5 -12 -22 -29 -23 -29 -3 0 8 12 21 28 29 34 19 45
20 39 4z m-211 -35 c-11 -11 -17 4 -9 23 7 18 8 18 11 1 2 -10 1 -21 -2 -24z
m114 32 c0 -2 -10 -9 -22 -15 -22 -11 -22 -10 -4 4 21 17 26 19 26 11z m-340
-26 c0 -5 -4 -9 -10 -9 -5 0 -10 7 -10 16 0 8 5 12 10 9 6 -3 10 -10 10 -16z
m268 -81 c7 -17 8 -28 2 -28 -6 0 -10 5 -10 10 0 17 -18 11 -23 -7 -2 -10 -2
-7 0 7 3 14 5 45 5 70 0 45 0 45 7 10 5 -19 13 -47 19 -62z m67 17 c0 -30 -3
-55 -7 -55 -4 0 -8 -21 -8 -47 0 -27 -1 -58 -1 -71 l-1 -24 -26 24 c-15 13
-32 30 -39 38 -11 13 -12 13 -13 -1 0 -9 7 -19 15 -23 8 -3 15 -10 15 -15 0
-5 -11 -4 -25 2 -15 7 -25 20 -25 33 0 11 -9 29 -21 40 -12 10 -28 32 -36 49
l-16 29 32 -31 c17 -17 31 -36 31 -42 0 -15 9 -14 28 6 16 16 17 15 20 -3 2
-10 11 -25 20 -32 15 -11 18 -6 28 40 7 29 10 65 7 80 -4 21 9 58 21 58 0 0 1
-25 1 -55z m292 49 c-3 -3 -12 -4 -19 -1 -8 3 -5 6 6 6 11 1 17 -2 13 -5z
m-442 -24 c-3 -5 -11 -10 -16 -10 -6 0 -7 5 -4 10 3 6 11 10 16 10 6 0 7 -4 4
-10z m183 -56 c-10 -10 -28 6 -28 24 0 15 1 15 17 -1 9 -9 14 -19 11 -23z
m-364 -9 c9 -14 13 -25 8 -25 -5 0 -14 11 -20 25 -6 14 -10 25 -8 25 2 0 11
-11 20 -25z m473 -7 c-3 -7 -5 -2 -5 12 0 14 2 19 5 13 2 -7 2 -19 0 -25z
m-188 -46 c0 -24 -1 -25 -9 -7 -12 28 -12 47 0 40 6 -3 10 -18 9 -33z m-229
-2 c0 -15 -7 -20 -25 -20 -14 0 -25 4 -25 9 0 5 9 7 20 4 14 -4 20 0 20 11 0
9 2 16 5 16 3 0 5 -9 5 -20z m103 7 c10 -25 -8 -40 -32 -28 -27 15 -28 34 -1
26 11 -4 20 -2 20 4 0 15 7 14 13 -2z m187 -44 c-11 -17 -11 -17 -6 0 3 10 7
26 7 35 1 15 2 15 6 0 2 -10 -1 -25 -7 -35z m70 8 c0 -14 -2 -14 -11 -1 -9 12
-10 11 -6 -6 2 -12 1 -28 -4 -35 -6 -9 -8 3 -7 33 2 36 6 44 16 36 6 -6 12
-18 12 -27z m-453 -9 c16 -10 28 -62 14 -62 -6 0 -8 8 -4 18 6 14 4 15 -9 4
-13 -10 -17 -10 -22 4 -14 36 -5 53 21 36z m473 -34 c0 -25 -4 -38 -9 -32 -8
8 -4 74 5 74 2 0 4 -19 4 -42z m-275 22 c3 -5 1 -10 -4 -10 -6 0 -11 5 -11 10
0 6 2 10 4 10 3 0 8 -4 11 -10z m39 -15 c-4 -8 -11 -15 -16 -15 -6 0 -5 6 2
15 7 8 14 15 16 15 2 0 1 -7 -2 -15z m1012 -2 c7 -10 14 -24 14 -32 0 -14 65
-146 120 -246 32 -58 122 -288 159 -409 20 -65 20 -71 5 -128 -15 -62 -39
-130 -53 -158 -5 -9 -12 -30 -15 -47 -4 -17 -19 -43 -32 -57 -24 -24 -30 -24
-126 -21 -79 3 -104 7 -120 22 -14 12 -36 18 -68 18 l-49 0 -6 82 c-4 46 -5
95 -2 109 2 14 -9 115 -25 223 -32 216 -31 254 8 352 14 36 26 88 27 119 1 40
8 61 22 76 11 11 31 35 45 54 49 66 71 75 96 43z m-740 -41 l0 -47 -12 40
c-11 39 -10 55 4 55 4 0 7 -21 8 -48z m91 16 c-3 -7 -5 -2 -5 12 0 14 2 19 5
13 2 -7 2 -19 0 -25z m-60 -20 c-3 -7 -5 -2 -5 12 0 14 2 19 5 13 2 -7 2 -19
0 -25z m-171 -20 c46 -43 61 -96 46 -167 -28 -134 -41 -164 -99 -218 -74 -71
-126 -70 -121 3 2 36 53 104 78 104 23 0 32 14 35 52 2 22 -6 36 -35 60 l-38
32 27 33 c30 38 50 41 76 13 10 -11 24 -20 32 -20 19 0 16 51 -6 79 -16 21
-24 23 -61 18 -40 -5 -100 -47 -100 -70 0 -10 -55 -63 -70 -69 -19 -6 2 -48
24 -48 45 0 58 -41 33 -110 -15 -43 -29 -50 -42 -21 -6 14 -19 21 -37 21 -21
0 -28 6 -33 28 -14 66 20 164 80 231 38 41 36 48 -7 32 -16 -6 -29 -5 -41 4
-16 12 -16 13 5 19 70 22 86 24 81 10 -6 -17 2 -18 28 -3 11 5 17 14 14 19 -3
5 17 7 47 3 40 -4 61 -13 84 -35z m-291 2 c3 -5 1 -10 -4 -10 -6 0 -11 5 -11
10 0 6 2 10 4 10 3 0 8 -4 11 -10z m538 -190 c3 -11 1 -20 -4 -20 -5 0 -9 9
-9 20 0 11 2 20 4 20 2 0 6 -9 9 -20z m-138 -29 c3 -5 1 -12 -5 -16 -5 -3 -10
1 -10 9 0 18 6 21 15 7z m115 -313 c0 -17 3 -19 9 -9 7 10 13 11 29 2 29 -16
72 -74 72 -98 0 -11 3 -23 7 -27 14 -13 31 -106 20 -106 -5 0 -5 -6 2 -13 14
-18 2 -30 -16 -16 -16 14 -17 -3 -1 -19 9 -9 9 -12 1 -12 -7 0 -18 8 -25 18
-7 9 -34 28 -60 41 -46 24 -46 25 -53 86 -8 77 -4 175 7 175 4 0 8 -10 8 -22z
m1410 -118 c0 -5 -5 -10 -11 -10 -5 0 -7 5 -4 10 3 6 8 10 11 10 2 0 4 -4 4
-10z m487 -56 c96 -52 117 -104 66 -165 -27 -31 -28 -38 -25 -121 2 -55 -1
-88 -8 -88 -5 0 -10 -6 -10 -12 0 -8 17 -14 42 -16 45 -3 68 -16 68 -38 0 -8
5 -14 10 -14 6 0 10 -6 10 -14 0 -7 9 -25 20 -39 11 -14 20 -30 20 -37 0 -6 7
-18 15 -26 8 -8 12 -20 9 -28 -3 -7 0 -41 5 -75 11 -69 -1 -164 -24 -187 -22
-22 -78 1 -124 51 -22 24 -41 50 -41 57 0 25 -53 88 -84 97 -53 18 -332 21
-406 5 -57 -12 -75 -12 -145 2 -44 9 -98 25 -119 35 -22 10 -49 19 -59 19 -23
0 -107 40 -107 51 0 3 -9 9 -20 12 -17 4 -20 12 -18 46 2 48 27 75 77 86 65
14 185 82 222 127 44 54 97 140 105 172 3 13 15 33 27 43 11 10 17 12 13 5 -6
-11 -1 -12 27 -8 19 3 45 9 58 14 13 5 49 12 79 16 52 7 132 28 175 46 39 17
94 10 142 -16z m733 -120 c0 -7 6 -14 13 -17 18 -6 16 -175 -2 -187 -23 -14
-36 -2 -48 43 -9 34 -6 133 7 207 1 10 30 -34 30 -46z m-4210 -224 c6 -11 8
-25 5 -30 -3 -5 0 -12 6 -15 5 -4 8 -13 5 -21 -3 -8 0 -11 10 -7 16 6 20 -22
4 -32 -17 -11 -109 -14 -115 -4 -6 8 4 49 26 107 11 28 45 29 59 2z m753 -85
c12 -27 34 -61 50 -74 37 -31 57 -72 50 -100 -3 -13 -2 -26 3 -30 14 -9 34
-49 34 -65 0 -8 14 -17 31 -21 23 -5 28 -9 18 -16 -10 -6 -11 -9 -1 -9 6 0 12
-5 12 -11 0 -7 -9 -9 -22 -4 -13 3 -45 12 -73 20 -35 9 -43 13 -25 15 22 1 21
3 -11 13 -57 19 -117 77 -79 77 12 0 14 37 3 42 -28 12 -73 183 -57 210 15 23
47 1 67 -47z m-833 -45 c0 -5 6 -10 14 -10 7 0 19 -7 26 -15 10 -12 2 -14 -62
-12 -40 2 -83 0 -95 -4 -12 -5 -25 -4 -28 1 -6 10 13 16 84 25 36 5 49 10 40
16 -11 7 -10 9 4 9 9 0 17 -4 17 -10z m2389 -29 c23 -15 -3 -19 -34 -5 -29 13
-29 13 -5 13 14 1 31 -3 39 -8z m65 -26 c25 -19 13 -31 -16 -17 -15 7 -17 11
-8 11 13 1 13 2 0 11 -8 5 -10 10 -5 10 6 -1 19 -7 29 -15z m96 -9 c0 -2 -7
-7 -16 -10 -8 -3 -12 -2 -9 4 6 10 25 14 25 6z m37 -39 c10 -10 13 -22 9 -34
-7 -17 -8 -17 -17 0 -6 9 -17 17 -25 17 -8 0 -12 5 -9 10 3 6 2 10 -4 10 -5 0
-11 -4 -13 -10 -1 -5 -14 0 -28 10 l-25 19 48 -3 c27 -2 56 -11 64 -19z m-797
3 c-1 -13 -50 -39 -64 -34 -22 8 -20 19 5 30 23 11 59 13 59 4z m-136 -19 c3
-5 -1 -14 -8 -20 -12 -10 -14 -9 -11 6 2 10 4 19 4 21 2 5 10 2 15 -7z m2381
-244 c23 -15 36 -32 40 -55 5 -28 0 -41 -41 -93 -46 -60 -47 -61 -87 -55 -22
4 -44 9 -49 12 -17 11 -7 66 22 121 17 31 30 62 30 69 0 8 9 19 20 26 11 7 21
20 21 28 1 8 4 5 6 -8 3 -12 20 -33 38 -45z m-4219 -1698 c3 -6 19 -16 35 -23
27 -11 28 -14 14 -32 -9 -11 -13 -13 -10 -4 2 9 -10 26 -32 43 -20 15 -31 27
-25 27 6 0 14 -5 18 -11z m-926 -527 c0 -24 -70 -97 -142 -150 -84 -62 -82
-51 3 17 76 60 119 109 119 136 0 8 5 15 10 15 6 0 10 -8 10 -18z m3764 -2060
c49 -10 91 -23 93 -29 5 -14 -58 -163 -68 -163 -4 0 -17 13 -28 29 -11 16 -38
36 -60 44 -48 20 -84 75 -74 115 6 24 5 26 -10 13 -15 -12 -17 -11 -17 4 0 20
8 19 164 -13z m271 -32 c3 -5 1 -10 -4 -10 -6 0 -11 5 -11 10 0 6 2 10 4 10 3
0 8 -4 11 -10z"/>
<path d="M3442 5958 c-6 -6 -12 -31 -12 -54 0 -27 -8 -53 -25 -78 -17 -26 -20
-36 -10 -36 25 0 54 50 60 105 8 64 5 81 -13 63z"/>
<path d="M2963 4683 c9 -2 25 -2 35 0 9 3 1 5 -18 5 -19 0 -27 -2 -17 -5z"/>
<path d="M1956 7364 c-12 -12 -32 -34 -46 -50 -14 -16 -35 -34 -45 -40 -30
-17 -30 -41 -1 -79 16 -20 31 -58 37 -92 11 -58 69 -166 69 -128 0 10 -10 30
-22 44 -13 14 -16 20 -7 13 16 -12 39 0 39 23 0 5 9 21 20 35 11 14 20 35 20
46 0 21 63 94 111 128 18 13 25 25 21 41 -2 12 1 26 7 29 6 4 11 16 11 26 0
23 -37 31 -129 27 -51 -1 -69 -7 -85 -23z"/>
<path d="M2672 7379 c-13 -5 -42 -24 -65 -43 -23 -18 -64 -39 -90 -47 -57 -16
-70 -34 -57 -78 5 -19 5 -31 -1 -31 -5 0 -9 -4 -9 -10 0 -5 7 -10 15 -10 9 0
20 -11 25 -25 10 -27 26 -33 33 -12 3 9 10 7 24 -6 18 -15 33 -17 114 -12 118
8 183 8 219 0 l27 -6 -10 48 c-6 26 -17 52 -24 56 -7 4 -13 19 -13 33 0 13 -7
27 -15 30 -8 3 -17 16 -21 27 -3 12 -22 39 -42 60 -37 38 -64 45 -110 26z"/>
<path d="M3094 7372 c-45 -38 -38 -92 12 -92 16 0 22 -4 18 -14 -3 -8 1 -27 9
-43 8 -15 12 -34 10 -41 -6 -15 24 -52 43 -52 7 0 14 -5 16 -11 2 -6 18 -13
35 -15 l32 -3 -26 25 c-23 23 -25 30 -22 107 3 70 1 85 -16 105 -11 12 -25 22
-31 22 -6 0 -17 7 -24 15 -16 19 -30 19 -56 -3z"/>
<path d="M2458 7133 c7 -3 16 -2 19 1 4 3 -2 6 -13 5 -11 0 -14 -3 -6 -6z"/>
<path d="M3150 7110 c-13 -8 -13 -10 2 -10 9 0 25 -3 35 -7 17 -6 17 -6 1 10
-19 20 -18 20 -38 7z"/>
<path d="M212 7036 c-67 -17 -71 -21 -30 -35 19 -6 58 -27 88 -46 61 -39 110
-47 110 -16 0 10 7 32 15 47 22 43 19 51 -22 58 -54 8 -100 6 -161 -8z"/>
<path d="M939 7009 c-34 -13 -45 -55 -18 -70 16 -8 18 -17 13 -50 -12 -73 39
-78 164 -17 48 23 97 42 111 43 27 1 52 45 26 45 -8 0 -15 -4 -15 -10 0 -14
-83 -12 -99 3 -11 9 -12 9 -7 0 4 -8 -2 -15 -19 -19 -29 -7 -75 2 -75 16 0 8
69 32 97 33 6 0 9 7 6 14 -4 10 -22 13 -62 12 -31 -1 -65 1 -76 4 -11 3 -32 1
-46 -4z"/>
<path d="M493 6981 c-12 -12 -31 -21 -43 -21 -47 0 2 -119 60 -144 87 -37 158
-29 185 23 31 61 7 128 -42 115 -13 -4 -32 2 -50 15 -43 32 -84 36 -110 12z"/>
<path d="M3081 6931 c-10 -7 -8 -9 10 -9 47 1 164 -15 182 -24 26 -14 21 7 -8
26 -27 18 -159 23 -184 7z"/>
<path d="M1924 6896 c1 -23 5 -32 13 -29 7 3 13 8 14 12 0 3 2 16 5 29 3 16
-1 22 -14 22 -14 0 -18 -8 -18 -34z"/>
<path d="M3700 6919 c0 -5 5 -7 10 -4 6 3 10 8 10 11 0 2 -4 4 -10 4 -5 0 -10
-5 -10 -11z"/>
<path d="M1942 6783 c-19 -8 -55 -46 -71 -75 -7 -14 -24 -31 -37 -38 -13 -7
-35 -37 -49 -66 -55 -113 -122 -142 -331 -143 -148 -1 -256 -22 -336 -63 -51
-27 -141 -32 -206 -12 -56 17 -146 18 -193 3 -19 -6 -79 -33 -134 -60 -121
-60 -210 -78 -338 -72 -74 3 -107 0 -169 -18 l-78 -22 0 -183 c0 -101 2 -184
3 -184 2 0 30 9 62 20 32 11 65 20 74 20 9 0 43 14 76 32 33 17 73 38 89 46
21 11 66 16 150 17 118 3 136 6 241 39 303 98 419 124 565 130 52 2 118 9 145
16 28 7 74 18 103 25 57 15 91 9 138 -21 68 -45 79 -74 43 -115 -40 -45 -72
-142 -86 -256 -3 -29 -1 -43 6 -43 7 0 11 -15 9 -40 -1 -29 -6 -39 -15 -36
-17 7 -34 -34 -26 -63 4 -16 13 -21 39 -21 28 0 36 5 45 27 5 14 8 32 5 40 -3
7 0 13 6 13 9 0 9 3 0 12 -16 16 -15 28 3 28 8 0 15 9 15 20 0 11 4 20 9 20 5
0 11 9 14 20 3 11 13 23 24 27 10 4 37 26 60 50 23 24 51 43 62 43 11 0 23 5
26 10 10 16 61 12 76 -6 7 -8 25 -22 40 -29 14 -8 29 -25 33 -39 3 -14 15 -28
26 -31 14 -5 20 -15 20 -38 0 -22 3 -28 9 -18 7 11 11 10 20 -5 6 -11 11 -14
11 -7 0 6 -4 15 -10 18 -14 9 -13 35 2 35 6 0 20 8 30 17 17 15 21 15 29 3 6
-11 8 -6 5 15 -2 17 -1 24 1 17 2 -6 18 13 34 43 23 43 28 64 23 89 -7 38 -61
109 -75 100 -21 -13 -19 32 5 146 15 67 32 136 40 154 12 30 12 35 -3 48 -15
13 -21 11 -51 -18 -37 -35 -57 -32 -58 9 -2 31 -6 50 -17 66 -5 10 -4 16 3 19
7 2 10 8 7 12 -3 5 -12 7 -20 3 -10 -3 -15 1 -15 12 0 11 5 15 15 11 10 -3 15
1 15 14 0 10 5 22 10 25 13 8 -6 45 -23 45 -19 0 -43 33 -68 90 -12 27 -28 50
-35 50 -8 0 -11 6 -8 15 7 16 6 16 -14 8z"/>
<path d="M3105 6780 c27 -12 43 -12 25 0 -8 5 -22 9 -30 9 -10 0 -8 -3 5 -9z"/>
<path d="M3615 6480 c-8 -13 15 -13 35 0 12 8 11 10 -7 10 -12 0 -25 -4 -28
-10z"/>
<path d="M3785 6450 c3 -5 8 -10 11 -10 2 0 4 5 4 10 0 6 -5 10 -11 10 -5 0
-7 -4 -4 -10z"/>
<path d="M2960 6273 c0 -4 5 -15 10 -23 8 -13 10 -13 10 2 0 9 -4 20 -10 23
-5 3 -10 3 -10 -2z"/>
<path d="M2926 6244 c-8 -20 0 -32 14 -18 5 5 5 15 1 22 -6 11 -10 10 -15 -4z"/>
<path d="M2697 6134 c-9 -9 4 -35 14 -28 5 3 9 12 9 20 0 14 -12 19 -23 8z"/>
<path d="M2445 6074 c-171 -36 -188 -49 -140 -106 14 -16 25 -38 25 -48 0 -40
62 -58 82 -24 5 8 22 10 48 7 31 -4 41 -2 46 11 3 9 1 23 -6 31 -20 24 14 19
55 -7 24 -16 34 -29 31 -40 -6 -24 7 -23 29 2 10 11 31 20 47 20 36 0 108 47
108 71 0 9 -7 25 -16 33 -8 9 -12 20 -9 26 3 5 -1 10 -9 10 -9 0 -16 -4 -16
-8 0 -13 -139 -3 -177 13 -35 15 -58 17 -98 9z"/>
<path d="M277 5730 c-21 -28 -37 -57 -35 -67 5 -26 110 -56 156 -43 75 20 124
65 92 85 -5 3 -10 17 -10 30 0 28 -18 32 -101 25 -43 -4 -56 -3 -52 7 11 28
-14 10 -50 -37z"/>
<path d="M2083 5693 c0 -11 7 -20 14 -20 10 0 10 4 1 16 -7 9 -13 18 -15 20
-1 2 -1 -5 0 -16z"/>
<path d="M2091 5644 c0 -11 3 -14 6 -6 3 7 2 16 -1 19 -3 4 -6 -2 -5 -13z"/>
<path d="M800 5630 c0 -5 4 -10 9 -10 6 0 13 5 16 10 3 6 -1 10 -9 10 -9 0
-16 -4 -16 -10z"/>
<path d="M2391 5612 c-14 -27 -61 -29 -115 -7 -37 16 -107 8 -128 -13 -11 -11
39 -42 67 -42 21 0 54 -39 55 -65 1 -18 3 -17 13 5 13 28 27 41 38 34 4 -2 21
1 38 7 37 13 66 61 53 86 -9 14 -11 14 -21 -5z"/>
<path d="M2700 5450 c0 -5 5 -10 10 -10 6 0 10 5 10 10 0 6 -4 10 -10 10 -5 0
-10 -4 -10 -10z"/>
<path d="M534 5219 c-27 -17 -52 -37 -57 -45 -4 -7 -14 -20 -23 -28 -8 -9 -19
-30 -24 -47 -12 -40 8 -47 70 -25 66 24 163 46 173 39 5 -3 24 -2 43 2 42 7
41 13 -13 84 -34 45 -42 50 -79 50 -28 1 -54 -8 -90 -30z"/>
<path d="M765 4849 c-16 -6 -47 -12 -69 -15 -72 -8 -200 -81 -253 -145 -51
-61 -158 -44 -260 40 -8 8 -162 51 -179 51 -2 0 -4 -65 -4 -145 l0 -145 45 5
c25 3 65 7 90 10 25 3 80 21 123 42 77 36 78 37 219 39 l142 2 113 48 113 49
182 1 182 0 31 31 c30 30 31 33 20 65 -14 39 -41 53 -116 61 -39 4 -58 1 -81
-13 -29 -17 -31 -17 -79 6 -38 19 -65 24 -119 23 -38 0 -83 -5 -100 -10z"/>
<path d="M3659 4754 c-22 -25 -22 -26 -3 -16 12 6 24 18 28 27 8 21 3 19 -25
-11z"/>
<path d="M1054 4200 c-27 -11 -37 -36 -24 -61 9 -16 22 -19 74 -19 73 0 84 11
60 59 -13 26 -21 31 -52 30 -20 0 -46 -4 -58 -9z"/>
<path d="M630 4080 c-8 -11 -20 -20 -27 -20 -21 0 -15 -14 11 -26 46 -21 135
31 96 56 -25 16 -65 11 -80 -10z"/>
<path d="M2245 1760 c3 -5 11 -10 16 -10 6 0 7 5 4 10 -3 6 -11 10 -16 10 -6
0 -7 -4 -4 -10z"/>
<path d="M6075 949 c-4 -6 -5 -12 -2 -15 2 -3 7 2 10 11 7 17 1 20 -8 4z"/>
<path d="M454 869 c-3 -6 -20 -9 -36 -7 -32 5 -45 -4 -25 -19 36 -29 187 -35
187 -8 0 8 -12 17 -27 21 -16 3 -41 10 -57 15 -36 11 -33 11 -42 -2z"/>
<path d="M5855 724 c-20 -15 -20 -15 0 -30 18 -13 21 -13 32 3 29 38 7 57 -32
27z"/>
<path d="M5775 648 c-58 -11 -77 -24 -55 -38 29 -18 168 19 154 41 -6 11 -32
10 -99 -3z"/>
<path d="M238 578 c-31 -11 -37 -38 -13 -58 9 -7 14 -18 12 -24 -4 -13 21 -40
46 -49 31 -11 67 4 82 34 19 37 19 48 -2 56 -10 4 -32 17 -49 30 -34 25 -37
26 -76 11z"/>
<path d="M5203 420 c-60 -36 -38 -70 33 -49 35 11 44 18 44 36 0 13 -4 23 -9
23 -5 0 -15 2 -23 5 -7 3 -28 -4 -45 -15z"/>
<path d="M5776 405 c-19 -14 -19 -15 6 -15 35 0 59 10 52 21 -8 13 -36 10 -58
-6z"/>
<path d="M6317 390 c4 -16 9 -18 25 -9 17 9 18 13 7 20 -24 15 -37 10 -32 -11z"/>
<path d="M6300 321 l-24 -19 27 -13 c23 -11 30 -10 44 3 17 18 11 48 -9 48 -7
0 -24 -9 -38 -19z"/>
<path d="M3965 320 c-3 -6 1 -7 9 -4 18 7 21 14 7 14 -6 0 -13 -4 -16 -10z"/>
<path d="M5351 316 c-6 -7 -24 -16 -39 -19 -25 -5 -92 -61 -92 -76 0 -4 6 -16
14 -26 14 -19 15 -19 73 -1 78 24 88 30 88 52 0 12 8 20 23 22 26 4 27 6 6 37
-18 28 -55 33 -73 11z"/>
<path d="M3925 290 c-3 -6 1 -7 9 -4 18 7 21 14 7 14 -6 0 -13 -4 -16 -10z"/>
<path d="M5431 166 c-10 -12 -5 -22 27 -54 l39 -39 -24 -27 c-13 -15 -21 -32
-18 -37 4 -5 60 -9 127 -9 138 0 141 5 34 59 -46 23 -67 40 -76 62 -22 52 -82
77 -109 45z"/>
<path d="M240 162 c0 -6 -9 -14 -20 -17 -22 -7 -26 -35 -8 -53 17 -17 59 -14
87 7 21 16 22 20 10 39 -8 12 -19 22 -26 22 -6 0 -18 3 -27 6 -9 3 -16 1 -16
-4z"/>
<path d="M6220 91 c-14 -5 -41 -16 -60 -26 -19 -10 -64 -29 -100 -41 l-65 -23
160 2 160 2 -3 35 c-6 58 -28 70 -92 51z"/>
<path d="M6334 64 c-14 -6 -6 -45 10 -56 6 -4 21 -8 34 -8 18 0 22 6 22 30 0
19 -5 30 -14 30 -8 0 -20 2 -28 4 -7 3 -18 2 -24 0z"/>
</g>
</svg>
