<?xml version="1.0" standalone="no"?>
<!DOCTYPE svg PUBLIC "-//W3C//DTD SVG 20010904//EN"
 "http://www.w3.org/TR/2001/REC-SVG-20010904/DTD/svg10.dtd">
<svg version="1.0" xmlns="http://www.w3.org/2000/svg"
 width="640.000000pt" height="960.000000pt" viewBox="0 0 640.000000 960.000000"
 preserveAspectRatio="xMidYMid meet">

<g transform="translate(0.000000,960.000000) scale(0.100000,-0.100000)"
fill="#000000" stroke="none">
<path d="M3876 7283 c-1 -2 -193 -11 -253 -12 -18 -1 -33 -5 -33 -11 0 -5 3
-9 8 -9 4 1 14 1 22 -1 11 -1 9 -4 -5 -9 -12 -5 -25 -3 -33 6 -14 14 -42 18
-42 6 0 -5 -17 -9 -38 -10 -20 -2 -59 -8 -87 -15 -27 -7 -53 -11 -57 -10 -7 2
-146 -24 -168 -32 -8 -3 -42 -7 -75 -10 -70 -6 -106 -16 -160 -43 -22 -12 -56
-24 -75 -28 -19 -4 -53 -16 -75 -26 -22 -10 -67 -28 -100 -41 -33 -12 -91 -43
-130 -69 -73 -49 -168 -139 -147 -139 7 0 15 7 18 15 4 8 12 15 20 15 16 0 8
-27 -17 -55 -22 -24 -42 -75 -30 -75 13 0 23 -32 13 -39 -5 -3 -14 -16 -21
-28 -12 -23 -53 -29 -44 -6 9 22 -6 14 -37 -19 -33 -38 -43 -59 -61 -143 -11
-48 -14 -55 -19 -35 -6 23 -7 23 -15 -10 -8 -37 -51 -108 -104 -174 -17 -21
-31 -46 -31 -55 1 -18 -6 -25 64 73 22 30 46 58 53 60 7 3 18 17 23 32 6 15
13 25 15 22 9 -8 -7 -67 -17 -65 -5 1 -17 -9 -26 -22 -16 -23 -16 -23 6 -17
13 5 22 3 22 -3 0 -6 -4 -11 -10 -11 -5 0 -7 -6 -4 -13 3 -8 -2 -20 -11 -27
-8 -7 -15 -18 -15 -24 0 -6 5 -3 11 7 12 21 33 23 25 2 -9 -24 3 -41 44 -69
72 -47 94 -135 66 -266 -9 -41 -16 -90 -16 -107 0 -40 -45 -108 -80 -122 -83
-32 -88 -32 -125 0 -18 16 -38 44 -44 62 -14 47 -12 146 5 185 16 39 17 52 6
70 -23 35 -59 -26 -53 -90 1 -16 -7 -40 -21 -58 -20 -28 -24 -29 -35 -14 -11
15 -13 14 -25 -12 -18 -43 -38 -63 -55 -57 -9 4 -22 -2 -30 -13 -12 -16 -15
-17 -23 -4 -13 20 -12 37 2 46 8 5 9 0 5 -15 -3 -14 -1 -21 6 -18 20 6 20 46
1 54 -12 4 -24 -2 -39 -21 l-22 -28 21 -39 c23 -42 54 -56 89 -38 18 9 20 9
10 -2 -19 -20 -16 -25 23 -44 35 -16 36 -16 59 9 24 26 67 34 91 18 6 -4 25
-33 42 -64 36 -63 35 -99 -1 -154 -24 -37 -91 -74 -133 -74 -22 0 -36 -8 -53
-31 -23 -31 -25 -31 -85 -27 -82 7 -101 21 -123 88 l-18 55 -70 5 -70 5 -15
68 c-8 39 -19 65 -24 60 -5 -4 -4 2 3 14 13 25 14 34 4 31 -5 0 -16 2 -26 7
-11 4 -30 2 -45 -4 -19 -9 -27 -10 -30 -1 -3 8 -8 8 -18 -1 -11 -9 -18 -8 -29
1 -13 11 -18 10 -30 -6 -8 -10 -15 -22 -15 -26 0 -7 -35 -20 -60 -23 -8 -1
-29 -9 -47 -18 -18 -9 -48 -17 -67 -17 -51 0 -122 34 -140 67 -26 49 -116 107
-116 74 0 -5 -11 -8 -24 -8 -14 0 -36 -10 -51 -21 -40 -32 -77 -35 -214 -22
-113 11 -130 11 -161 -4 -86 -40 -129 -91 -102 -118 7 -7 9 -29 5 -53 -5 -39
-3 -45 34 -82 42 -42 128 -71 176 -59 19 4 31 0 46 -16 20 -21 21 -21 61 -3
30 13 40 24 40 41 0 13 -4 26 -10 29 -18 11 -11 30 22 64 44 45 85 41 103 -11
7 -21 10 -48 8 -62 -4 -20 1 -27 31 -41 19 -9 40 -14 45 -10 6 3 21 -1 33 -9
12 -9 38 -16 58 -16 19 0 40 -4 47 -8 7 -4 47 -5 90 -1 43 4 79 5 81 4 2 -2
-8 -14 -22 -28 -31 -31 -33 -42 -7 -27 38 20 35 9 -11 -37 -45 -47 -94 -135
-83 -152 6 -11 47 -2 57 13 5 7 8 5 8 -6 0 -20 38 -34 53 -19 13 13 37 14 37
2 0 -5 -9 -13 -20 -16 -15 -5 -20 -15 -20 -41 0 -38 -15 -74 -30 -74 -6 0 -10
12 -10 26 0 20 -4 25 -16 20 -9 -3 -18 -6 -20 -6 -10 0 -3 -55 10 -69 18 -21
33 -86 17 -77 -6 4 -11 13 -11 20 0 8 -7 19 -15 26 -8 7 -15 21 -15 31 0 11
-4 19 -10 19 -12 0 -13 4 4 -50 8 -25 23 -61 35 -80 24 -41 27 -54 7 -47 -17
7 -28 -27 -21 -65 4 -20 0 -28 -15 -33 -11 -3 -24 -4 -29 0 -5 3 -12 1 -16 -5
-3 -5 -26 -10 -50 -10 -24 0 -45 -4 -47 -9 -1 -6 -32 -12 -68 -14 -36 -2 -75
-8 -86 -15 -12 -6 -41 -14 -65 -17 -37 -5 -42 -4 -29 7 9 7 14 21 12 30 -2 10
4 32 12 50 15 29 15 34 -1 69 -21 48 -51 59 -127 47 -79 -12 -101 -25 -173
-103 -61 -65 -71 -87 -55 -111 11 -18 125 -84 134 -78 4 3 8 0 8 -6 0 -7 7 -9
16 -6 12 4 15 2 10 -9 -19 -47 -18 -49 12 -21 18 16 37 26 46 23 8 -3 20 1 27
9 7 8 26 22 43 30 17 8 44 22 60 31 17 9 50 17 75 19 25 2 39 1 31 -2 -49 -21
-108 -121 -117 -199 -7 -53 -24 -73 -104 -117 -65 -37 -112 -85 -160 -163 -14
-22 -23 -48 -21 -57 2 -9 -4 -27 -12 -40 -11 -16 -14 -44 -13 -96 2 -60 0 -75
-14 -82 -9 -5 -19 -6 -23 -3 -3 3 -6 1 -6 -6 0 -30 -20 4 -21 37 -2 27 -3 30
-6 11 -3 -21 -9 -26 -36 -26 -30 0 -67 27 -67 49 0 4 -9 8 -20 8 -17 0 -20 -7
-21 -42 0 -31 -3 -37 -8 -24 -6 15 -10 16 -15 7 -5 -7 -2 -24 5 -38 12 -22 11
-26 -11 -44 -14 -10 -33 -19 -43 -19 -15 0 -15 -3 -5 -20 10 -15 10 -22 0 -32
-9 -9 -12 -8 -12 6 0 15 -3 16 -15 6 -10 -9 -12 -17 -5 -30 12 -22 2 -33 -15
-17 -6 6 -10 19 -7 29 3 12 -6 23 -26 35 -36 21 -50 60 -47 135 4 68 9 78 40
78 13 0 25 6 28 13 6 19 -13 55 -39 72 -21 14 -24 13 -34 -5 -6 -11 -17 -20
-25 -20 -13 0 -15 -110 -15 -852 1 -764 2 -851 16 -833 8 11 12 29 10 40 -3
11 -9 30 -12 43 -5 18 -2 22 14 22 28 0 43 -31 36 -70 -6 -29 -5 -31 18 -25
27 7 42 -12 32 -39 -4 -10 8 -17 43 -26 26 -6 56 -12 65 -13 15 -1 18 -11 17
-67 -1 -36 5 -85 12 -110 l14 -45 3 63 c2 34 7 62 12 62 6 0 10 -9 10 -20 0
-11 5 -20 11 -20 8 0 10 -12 6 -36 -4 -23 -1 -47 8 -64 14 -27 10 -70 -7 -81
-14 -9 30 -104 92 -198 l55 -83 84 6 c83 6 84 7 122 49 30 32 40 39 47 28 7
-9 12 -10 16 -2 9 13 46 15 46 2 0 -6 -5 -13 -10 -16 -13 -8 -13 -25 -1 -25 5
0 24 12 42 27 31 26 37 27 153 29 134 1 168 7 159 30 -4 10 3 14 27 14 18 0
29 -4 25 -10 -8 -13 42 -13 138 2 50 7 77 16 77 24 0 7 9 22 20 32 19 18 19
21 5 48 -13 26 -15 27 -15 7 0 -12 -5 -25 -10 -28 -6 -4 -10 -12 -9 -18 3 -27
-2 -37 -20 -37 -11 0 -23 5 -26 10 -4 6 -14 10 -23 8 -30 -5 -28 13 8 62 39
55 101 94 87 55 -4 -8 -2 -17 3 -20 6 -4 10 1 10 9 0 9 5 16 10 16 22 0 25 2
37 23 22 39 15 101 -17 162 -16 31 -30 63 -30 69 0 7 -9 21 -19 30 -11 10 -23
32 -27 48 l-6 31 -79 -6 c-46 -3 -77 -1 -73 4 3 5 0 9 -6 9 -6 0 -8 5 -5 11 4
6 13 8 20 5 20 -7 80 24 65 34 -7 5 6 13 34 23 48 16 63 7 24 -15 -23 -12 -23
-12 7 -19 46 -10 65 -10 65 1 0 6 -9 10 -21 10 -25 0 -20 20 8 31 12 4 31 2
48 -7 34 -18 41 -18 26 -1 -8 11 -7 18 7 30 15 13 33 15 103 10 47 -3 93 -11
102 -18 15 -11 15 -16 -4 -70 -11 -33 -28 -65 -37 -72 -16 -11 -16 -12 0 -13
15 0 14 -4 -3 -40 -10 -21 -19 -52 -19 -67 -1 -15 -6 -41 -13 -56 -12 -28 -13
-28 -28 -10 -22 24 -14 97 8 88 14 -5 14 -2 0 18 -14 22 -14 26 1 42 16 16 16
17 -6 6 -27 -15 -42 -7 -42 22 0 37 -18 52 -57 48 -22 -2 -6 -64 21 -84 21
-15 24 -22 16 -38 -8 -15 -7 -17 5 -13 12 5 13 1 5 -23 -15 -42 -7 -77 18 -81
17 -3 21 -10 20 -38 -1 -19 -5 -37 -10 -40 -13 -9 -9 -24 7 -24 27 0 16 -23
-36 -73 -28 -27 -48 -51 -45 -54 3 -4 14 1 24 10 10 10 23 17 29 17 19 0 63
49 57 64 -3 8 -1 23 5 33 9 16 10 15 11 -7 0 -15 5 -31 11 -37 14 -14 2 -53
-16 -53 -7 0 -16 -16 -20 -36 -5 -28 -2 -41 10 -53 13 -12 19 -13 22 -3 7 17
23 5 23 -18 0 -11 9 -24 19 -30 18 -9 19 -7 15 27 -5 32 -3 36 8 22 7 -8 21
-18 32 -22 14 -6 16 -10 7 -20 -6 -8 -9 -28 -6 -45 2 -23 -1 -32 -11 -32 -8 0
-14 -5 -14 -11 0 -16 -64 -77 -92 -88 -13 -4 -36 -8 -53 -7 -30 1 -42 -6 -116
-71 -20 -18 -39 -33 -42 -33 -3 0 -20 -15 -39 -33 -39 -38 -124 -108 -147
-121 -9 -6 -24 -20 -34 -33 -10 -13 -22 -23 -27 -23 -4 0 -24 -15 -43 -33 -18
-17 -42 -38 -53 -45 -10 -7 -12 -9 -4 -5 12 6 13 4 3 -9 -7 -8 -10 -18 -6 -22
4 -4 0 -4 -10 0 -9 3 -14 10 -11 15 8 13 -8 10 -36 -7 l-25 -15 25 6 c24 6 24
5 -2 -10 -16 -9 -28 -18 -28 -21 0 -3 5 -2 12 2 7 5 8 3 3 -5 -4 -7 -21 -19
-39 -27 -17 -7 -25 -13 -18 -14 7 0 10 -5 7 -10 -9 -15 -37 9 -28 24 3 6 2 7
-3 3 -5 -5 -9 -13 -9 -17 0 -5 -9 -16 -20 -25 -19 -14 -18 -14 10 -4 44 15 24
1 -63 -48 -72 -40 -97 -61 -32 -28 17 9 30 13 30 10 0 -2 -18 -14 -40 -25 -22
-11 -39 -25 -37 -31 1 -5 -32 -29 -73 -52 -42 -23 -120 -66 -173 -96 -53 -30
-92 -58 -87 -61 6 -4 -30 -31 -79 -60 -88 -51 -123 -77 -60 -45 56 29 41 8
-18 -26 -53 -30 -90 -53 -139 -87 -17 -11 -16 -11 4 -1 43 20 34 2 -13 -25
-25 -15 -45 -29 -45 -32 0 -3 21 8 48 23 112 65 156 93 147 93 -5 0 -25 -9
-43 -20 -36 -22 -46 -25 -37 -11 3 6 40 29 81 52 48 26 72 44 64 49 -7 5 38
36 118 81 72 41 129 75 127 77 -2 2 -13 -2 -25 -8 -12 -6 -24 -10 -26 -7 -3 3
25 21 62 41 36 20 69 35 71 32 3 -2 -13 -14 -36 -26 -39 -19 -58 -38 -26 -26
31 12 13 -3 -40 -33 -31 -18 -53 -36 -50 -41 4 -6 -1 -7 -11 -3 -11 4 -15 3
-10 -5 3 -6 1 -14 -5 -18 -8 -4 -9 -3 -5 4 10 17 -7 15 -30 -4 -16 -13 -16
-15 -1 -10 35 11 15 -5 -64 -50 -44 -25 -78 -48 -75 -51 2 -3 14 0 25 7 12 6
21 8 21 6 0 -3 -14 -13 -31 -22 -19 -9 -28 -11 -24 -4 5 8 3 11 -6 8 -8 -3
-13 -10 -12 -16 2 -6 -13 -20 -32 -32 -36 -22 -47 -37 -20 -26 31 11 13 -4
-46 -39 -57 -35 -77 -60 -27 -35 37 19 7 -4 -37 -29 -36 -21 -38 -21 -15 -2
33 27 18 27 -31 -1 -41 -23 -55 -46 -16 -28 l22 11 -22 -17 c-22 -16 -23 -23
-23 -140 l0 -124 679 0 679 0 5 28 c3 15 13 56 22 92 9 36 18 75 19 87 4 28
25 55 38 47 5 -3 7 -9 4 -12 -10 -9 68 -32 84 -25 8 3 24 5 34 4 13 -2 17 2
13 13 -3 8 0 21 7 28 15 15 20 37 46 176 10 56 25 114 34 127 9 13 16 36 16
50 0 14 4 25 9 25 5 0 11 13 14 29 3 16 13 36 22 44 8 9 15 23 15 31 0 9 4 16
8 16 4 0 16 14 25 30 10 17 15 30 12 30 -23 0 124 154 150 158 71 13 105 48
105 108 0 14 7 27 15 30 8 4 12 10 9 15 -3 5 -1 9 5 9 16 0 121 -144 121 -165
0 -10 -8 -24 -18 -31 -16 -12 -15 -13 5 -14 40 0 39 40 -2 127 -66 141 -64
135 -52 155 7 11 19 16 29 12 22 -7 24 11 3 20 -8 3 -15 10 -15 16 0 6 5 8 12
4 8 -5 9 2 5 26 -4 19 -2 38 4 46 8 9 8 18 2 27 -6 6 -8 30 -5 52 4 32 6 36
13 20 7 -19 8 -19 8 1 1 12 8 24 16 28 8 3 15 12 15 20 0 19 46 66 65 66 11 0
13 -8 8 -30 -7 -35 -8 -35 65 -14 86 24 93 35 53 84 -31 38 -34 60 -8 60 7 0
18 9 25 20 14 23 25 25 44 7 11 -10 120 -57 134 -57 2 0 1 7 -2 15 -6 16 24
69 98 171 26 35 50 75 54 89 3 14 14 25 27 27 17 2 22 10 22 33 0 17 5 38 10
48 10 15 15 16 45 5 19 -6 46 -19 60 -28 14 -10 37 -25 53 -34 15 -9 27 -23
27 -31 0 -8 7 -15 15 -15 8 0 15 5 15 10 0 6 6 10 13 10 19 0 43 30 51 62 4
17 14 28 29 30 25 3 25 5 4 115 -16 79 -15 93 8 203 31 141 43 253 35 312 -5
32 -11 61 -13 65 -3 4 -8 46 -12 93 -4 47 -10 88 -13 91 -4 3 -27 14 -52 23
-83 33 -149 92 -244 219 -61 83 -133 266 -186 471 -47 186 -82 542 -60 626 31
123 37 170 23 181 -17 14 -17 56 1 144 15 75 30 121 49 143 6 8 12 21 13 29 1
8 10 20 20 27 12 9 14 15 6 20 -18 11 -14 41 9 71 12 14 23 41 25 58 5 40 14
48 58 52 19 2 41 7 47 11 8 5 9 3 4 -5 -6 -10 -2 -10 16 0 13 7 26 14 29 14
18 4 80 40 80 47 0 5 -8 5 -17 0 -10 -5 -29 -6 -43 -1 -24 7 -24 7 5 8 17 1
57 13 90 26 33 14 66 25 73 25 18 0 102 41 102 50 0 4 -18 12 -40 18 -64 16
-253 -11 -337 -48 -81 -36 -78 -41 -64 135 8 85 7 102 -6 112 -9 7 -16 29 -17
50 0 21 -5 41 -10 44 -19 15 4 35 60 53 39 12 59 15 62 8 2 -7 15 -9 31 -6 16
3 63 -5 112 -20 46 -14 109 -28 139 -31 30 -3 70 -11 88 -17 18 -5 35 -8 37
-6 18 18 -12 110 -44 135 -11 10 -33 12 -73 8 -46 -5 -58 -3 -58 8 0 7 -12 19
-27 26 -16 8 -36 17 -45 22 -10 5 -18 6 -18 2 0 -12 -84 -10 -92 1 -4 6 -17 5
-33 -4 -25 -13 -28 -13 -41 5 -11 15 -17 16 -26 7 -7 -7 -19 -12 -27 -12 -12
0 -11 3 2 18 19 20 23 37 7 27 -25 -16 7 68 40 103 20 21 23 22 34 6 12 -15
15 -14 33 12 24 34 34 90 22 122 -8 20 -4 28 18 45 15 12 31 21 34 20 4 -1 10
4 13 12 3 9 -1 15 -9 15 -8 0 -15 7 -15 15 0 8 -4 15 -10 15 -24 0 -1 98 32
130 19 20 78 107 78 116 0 32 199 256 243 273 l22 9 -25 10 -25 11 26 0 c14 1
30 6 36 12 6 6 29 11 50 11 23 0 52 7 69 19 16 10 22 19 14 19 -8 0 1 8 20 19
19 10 41 16 48 14 6 -3 12 1 12 8 0 10 3 10 12 1 7 -7 25 -12 41 -12 19 0 26
-4 21 -12 -5 -7 -2 -9 9 -5 8 3 21 -1 27 -9 7 -8 19 -14 28 -14 13 0 13 3 -2
19 -10 11 -13 22 -8 25 6 3 12 0 15 -8 6 -14 90 -37 130 -35 21 1 21 1 -2 8
-23 6 -23 7 12 18 31 9 38 8 56 -8 24 -23 35 -24 27 -4 -3 8 -1 15 3 15 5 0
17 3 27 7 13 5 16 3 11 -10 -4 -11 -1 -17 7 -17 8 0 16 -4 18 -9 4 -11 49 -25
46 -14 -2 4 0 9 5 11 21 7 41 -1 64 -25 15 -16 24 -21 20 -11 -10 27 44 14 69
-17 15 -19 24 -24 29 -15 5 8 15 3 34 -17 14 -16 37 -36 51 -46 19 -13 22 -20
12 -26 -10 -6 -10 -10 3 -21 13 -11 15 -10 9 4 -7 19 4 20 28 2 10 -7 14 -17
10 -21 -4 -5 -1 -5 7 0 11 6 3 19 -34 52 -26 24 -45 47 -42 50 8 7 107 -77
107 -91 0 -6 11 -23 25 -38 14 -15 25 -34 25 -42 0 -9 9 -20 19 -26 11 -5 30
-30 42 -55 12 -25 26 -45 31 -45 4 0 8 -8 8 -17 0 -10 15 -34 33 -54 58 -66
67 -79 69 -105 2 -18 12 -29 34 -39 39 -16 48 -29 50 -77 1 -26 -2 -35 -11
-32 -14 6 -25 -27 -18 -55 3 -13 10 -18 21 -13 15 5 15 3 -1 -12 -13 -14 -21
-15 -31 -7 -17 15 -32 -15 -16 -34 5 -6 6 -15 2 -19 -4 -4 -7 -21 -7 -36 0
-20 6 -31 20 -35 l20 -6 -20 -9 c-11 -5 -15 -9 -10 -9 14 -1 35 -50 28 -67 -6
-17 -20 -18 -26 -1 -3 7 -6 5 -6 -5 -1 -10 4 -18 9 -18 14 0 13 -27 -1 -36 -6
-3 -15 0 -20 7 -13 22 -20 4 -9 -26 9 -23 8 -26 -5 -21 -52 21 -51 21 -35 1
14 -17 13 -18 -3 -12 -21 8 -37 -21 -18 -33 9 -5 8 -11 -4 -24 -16 -16 -19
-15 -52 4 -19 11 -31 15 -27 8 8 -13 -1 -8 -61 32 -67 45 -163 90 -193 90 -16
0 -51 7 -78 14 -62 19 -191 26 -224 13 -14 -5 -56 -10 -95 -12 -57 -1 -77 -7
-109 -29 -22 -14 -44 -25 -50 -23 -6 2 -19 -8 -28 -22 -10 -14 -18 -21 -18
-16 0 6 -5 3 -10 -5 -14 -22 -12 -76 5 -116 8 -20 12 -40 9 -45 -3 -5 2 -9 11
-9 12 0 15 -5 11 -16 -3 -9 -6 -18 -6 -20 0 -2 -5 -4 -11 -4 -5 0 -7 5 -4 10
10 17 -11 11 -38 -10 -14 -12 -40 -25 -57 -31 -25 -9 -32 -20 -44 -62 -15 -56
-16 -59 -20 -127 -2 -29 -12 -60 -30 -87 -44 -65 -56 -169 -41 -336 5 -51 3
-78 -9 -108 -21 -51 -20 -59 4 -59 11 0 20 -4 20 -10 0 -5 7 -10 15 -10 8 0
15 4 15 9 0 16 82 20 111 6 24 -13 27 -21 31 -77 6 -77 4 -83 -32 -98 -32 -13
-56 -37 -47 -46 6 -6 103 20 154 42 42 17 67 56 60 92 -3 15 -26 62 -50 105
-29 49 -45 90 -45 111 0 19 -5 43 -12 56 -17 32 -18 139 -1 149 13 8 12 30 -3
134 -5 35 14 36 50 2 30 -28 49 -33 40 -10 -9 23 7 18 44 -15 18 -16 37 -30
41 -30 11 0 -17 64 -30 68 -6 2 -11 14 -11 26 0 13 -16 40 -35 60 -32 34 -35
42 -35 98 0 97 15 132 68 160 26 12 60 37 77 53 20 21 48 35 87 43 31 7 69 22
83 34 14 11 29 18 32 14 3 -3 15 0 27 7 26 14 42 16 180 16 16 0 56 -10 90
-23 34 -13 69 -26 79 -30 10 -3 16 -10 13 -15 -3 -5 3 -7 14 -4 13 3 27 -4 45
-23 14 -16 40 -45 58 -64 37 -38 89 -125 80 -134 -3 -3 4 -16 15 -30 10 -14
22 -23 25 -20 3 3 8 -4 12 -15 3 -11 18 -30 32 -41 15 -11 32 -31 39 -43 28
-48 57 -114 65 -142 4 -16 11 -41 15 -54 5 -19 4 -22 -6 -16 -10 6 -12 4 -7
-7 6 -17 -25 -53 -36 -42 -4 4 -14 1 -23 -7 -10 -8 -19 -12 -21 -9 -6 8 -102
-64 -103 -76 0 -6 -7 -17 -15 -24 -13 -11 -13 -14 0 -27 17 -16 19 -41 6 -75
-6 -16 -3 -32 9 -56 11 -19 20 -28 22 -20 7 19 38 -9 38 -33 0 -21 -26 -26
-33 -6 -4 8 -6 8 -6 -2 -1 -11 -5 -10 -16 5 -10 13 -14 14 -15 5 0 -11 -3 -11
-15 -1 -12 10 -15 10 -15 -1 -1 -8 -6 -5 -13 7 -9 15 -21 20 -49 19 -37 -2
-88 -28 -88 -45 0 -6 -7 -10 -15 -10 -12 0 -15 -11 -13 -54 2 -45 4 -51 14
-38 7 10 16 14 20 9 4 -4 2 -7 -5 -7 -8 0 -10 -7 -6 -20 5 -15 0 -22 -19 -30
-14 -5 -33 -21 -42 -35 -9 -14 -23 -24 -30 -21 -18 7 -26 -5 -13 -21 8 -9 8
-17 0 -26 -6 -8 -8 -16 -5 -20 3 -3 -1 -16 -9 -29 -8 -12 -17 -35 -21 -50 -4
-16 -11 -28 -16 -28 -6 0 -15 -11 -20 -25 -5 -14 -14 -25 -20 -25 -6 0 -9 4
-6 9 8 12 -29 21 -85 21 -62 0 -69 -18 -37 -87 6 -12 8 -30 6 -41 -3 -10 0
-25 6 -33 16 -21 83 -69 96 -69 6 0 17 -15 25 -34 13 -30 13 -38 0 -63 -8 -17
-24 -38 -35 -48 -11 -10 -20 -28 -20 -39 0 -15 -7 -22 -21 -23 -28 -2 -27 -1
-29 -53 -5 -86 -1 -110 19 -118 23 -9 73 -67 64 -76 -3 -3 -1 -6 5 -6 7 0 12
-13 12 -30 0 -16 -4 -30 -9 -30 -9 0 -24 -37 -22 -55 0 -6 -8 -16 -19 -22 -16
-11 -28 -7 -82 27 -71 45 -73 46 -111 54 -18 4 -36 19 -49 41 -11 19 -26 35
-34 35 -8 0 -14 7 -14 15 0 8 -4 15 -9 15 -5 0 -19 15 -30 34 -18 28 -19 38
-10 65 6 17 15 31 20 31 12 0 11 -17 -1 -25 -23 -14 3 -24 28 -11 15 8 35 17
45 20 12 4 17 16 17 46 0 36 -3 40 -24 40 -30 0 -43 17 -19 23 10 2 0 3 -22 2
-37 -3 -40 -5 -38 -31 2 -16 -4 -38 -12 -48 -13 -17 -19 -18 -74 -6 -56 12
-81 9 -81 -9 0 -8 11 -22 78 -98 20 -23 38 -47 38 -53 1 -5 2 -14 3 -20 0 -5
23 -31 50 -57 60 -60 96 -123 87 -155 -6 -22 -78 -108 -91 -108 -3 0 -19 -14
-35 -30 -16 -17 -38 -30 -49 -30 -11 0 -37 -17 -58 -38 -21 -21 -46 -41 -55
-45 -25 -9 -22 -27 5 -27 18 0 19 -2 7 -10 -8 -5 -34 -10 -57 -10 -24 0 -43
-4 -43 -10 0 -5 9 -10 20 -10 23 0 146 -77 174 -109 20 -22 97 -61 121 -61 7
0 40 -12 73 -26 l59 -27 0 -44 c0 -24 -4 -46 -9 -50 -6 -3 -5 -8 2 -13 7 -5
12 -43 12 -111 0 -57 3 -108 7 -114 6 -11 7 -18 9 -76 2 -33 5 -37 32 -41 21
-3 34 0 39 10 5 9 26 25 47 37 48 27 65 52 44 65 -10 6 -11 10 -2 10 6 0 12 7
12 15 0 8 4 15 9 15 15 0 26 -23 22 -49 -1 -13 3 -27 10 -31 16 -11 16 -99 0
-110 -9 -5 -10 -13 -4 -25 6 -10 6 -37 2 -67 -5 -29 -4 -60 2 -75 8 -22 -4
-173 -16 -193 -2 -3 -6 -36 -10 -73 -3 -38 -11 -81 -16 -95 -6 -15 -10 -76
-11 -137 0 -119 9 -149 73 -240 72 -104 85 -110 249 -125 105 -10 260 1 305
20 11 5 45 19 75 32 30 12 83 44 118 70 67 51 91 58 113 32 8 -10 23 -14 41
-12 53 8 45 -20 -30 -105 -44 -50 -19 -33 60 40 31 29 65 53 75 53 10 0 34
-20 53 -45 35 -45 75 -60 86 -32 4 11 19 10 80 -6 72 -20 76 -20 111 -3 29 14
34 20 22 27 -8 5 -22 9 -31 9 -24 0 -45 77 -26 96 22 21 117 -3 149 -38 30
-32 48 -38 134 -42 83 -4 108 -13 102 -37 -4 -16 0 -19 25 -19 21 0 29 -4 25
-13 -3 -7 10 -30 28 -51 41 -48 49 -82 25 -105 -48 -43 -99 -85 -139 -114 -27
-20 -48 -43 -52 -61 -5 -16 -18 -39 -30 -52 -22 -23 -22 -25 -4 -38 18 -13 18
-16 3 -52 -27 -63 -30 -83 -16 -102 17 -24 134 -122 146 -122 5 0 19 -11 32
-24 12 -14 41 -34 64 -46 22 -11 79 -44 126 -74 47 -30 108 -68 135 -84 28
-16 57 -37 64 -46 22 -26 31 -19 31 23 0 23 -6 44 -16 52 -9 7 -37 40 -62 74
-26 33 -52 67 -59 75 -17 21 -65 85 -115 153 -38 52 -45 57 -79 57 -40 0 -52
14 -38 42 9 17 -7 68 -22 68 -4 0 -12 14 -18 30 -12 35 -15 33 73 49 92 17
130 14 152 -11 21 -24 139 -210 167 -263 15 -28 16 5 17 439 0 407 -2 472 -15
486 -15 17 -11 50 6 50 5 0 9 448 9 1068 0 1056 0 1068 -20 1107 -12 22 -26
63 -32 90 -9 39 -12 46 -18 30 -7 -18 -9 -17 -20 10 -29 71 -50 140 -50 162 0
13 -6 23 -14 23 -20 0 -9 70 13 86 10 8 17 37 22 95 3 46 7 76 7 67 2 -18 20
-34 28 -25 3 3 -4 25 -15 50 -25 54 -25 55 -7 73 20 20 23 18 30 -18 7 -38 11
-35 19 14 4 24 1 42 -7 50 -17 18 -36 75 -36 110 0 16 -10 48 -22 71 -12 23
-21 46 -20 50 1 5 -2 6 -7 3 -5 -4 -27 15 -48 41 -21 27 -41 50 -45 53 -4 3
-28 46 -54 95 -135 259 -184 362 -184 385 0 14 4 20 8 14 4 -6 19 -14 34 -18
22 -5 26 -3 22 8 -3 8 -11 13 -18 10 -12 -4 -36 48 -36 78 0 16 -33 51 -41 44
-2 -3 -14 10 -26 27 -26 38 -42 94 -24 83 24 -15 31 6 10 32 -20 27 -49 86
-49 103 0 5 16 -8 35 -29 41 -43 38 -18 -4 38 -14 19 -33 51 -42 70 -36 76
-59 130 -59 139 0 5 -20 56 -45 114 -25 58 -45 112 -45 120 0 8 -6 17 -14 20
-7 3 -28 32 -47 64 -46 78 -46 80 -16 60 33 -21 35 -9 6 27 -17 21 -24 25 -30
14 -7 -11 -11 -10 -19 2 -5 8 -10 25 -10 37 0 12 -5 25 -11 29 -6 3 -17 21
-25 38 -28 59 -96 153 -171 234 -29 32 -53 60 -53 64 0 5 -18 27 -40 49 -22
23 -40 49 -40 58 0 19 -60 81 -78 81 -15 0 -16 16 -2 25 8 5 7 11 -1 21 -17
21 -31 17 -23 -8 5 -16 -3 -12 -33 18 -47 47 -92 85 -147 128 -23 17 -55 46
-72 64 -17 17 -37 32 -44 32 -19 0 -70 33 -70 46 0 7 -7 14 -15 18 -8 3 -15
12 -15 20 0 8 -14 19 -31 25 -43 15 -52 14 -45 -4 7 -19 -2 -19 -23 -1 -17 14
-114 65 -171 90 -62 26 -121 36 -265 43 -77 4 -129 9 -116 13 14 3 -12 6 -58
5 -45 0 -84 -1 -85 -2z m-396 -63 c-8 -5 -22 -9 -30 -9 -10 0 -8 3 5 9 27 12
43 12 25 0z m-23 -96 c-3 -3 -12 -4 -19 -1 -8 3 -5 6 6 6 11 1 17 -2 13 -5z
m333 -35 c0 -4 -7 -6 -15 -3 -8 4 -15 10 -15 15 0 4 7 6 15 3 8 -4 15 -10 15
-15z m854 -5 c3 -8 2 -12 -4 -9 -6 3 -10 10 -10 16 0 14 7 11 14 -7z m-1684
-164 c0 -5 -5 -10 -11 -10 -5 0 -7 5 -4 10 3 6 8 10 11 10 2 0 4 -4 4 -10z
m-429 -18 c-13 -24 -40 -46 -47 -39 -4 3 7 17 22 31 35 31 38 31 25 8z m2329
-3 c0 -6 -4 -7 -10 -4 -5 3 -10 11 -10 16 0 6 5 7 10 4 6 -3 10 -11 10 -16z
m-2295 -8 c-3 -6 -11 -11 -17 -11 -6 0 -6 6 2 15 14 17 26 13 15 -4z m184 -14
c-2 -1 -13 -9 -24 -17 -19 -14 -19 -14 -6 3 7 9 18 17 24 17 6 0 8 -1 6 -3z
m-229 -22 c-7 -8 -18 -15 -24 -15 -6 0 -2 7 8 15 25 19 32 19 16 0z m192 -30
c-4 -7 -22 -29 -39 -49 -18 -19 -33 -39 -33 -43 0 -5 -9 -14 -20 -21 -12 -7
-20 -18 -18 -25 3 -16 -31 -80 -48 -90 -8 -4 -14 -15 -14 -22 0 -8 -4 -15 -9
-15 -5 0 -15 -16 -21 -35 -6 -19 -18 -35 -26 -35 -8 0 -14 -5 -14 -10 0 -6 -5
-16 -10 -23 -6 -7 -17 -21 -25 -32 -7 -11 -16 -17 -19 -14 -9 9 14 110 30 134
9 14 11 30 5 50 l-8 30 -20 -45 c-30 -65 -36 -84 -34 -97 1 -6 -3 -14 -9 -18
-5 -3 -10 -16 -10 -28 0 -12 -5 -29 -11 -37 -8 -11 -9 -6 -4 20 4 19 9 47 11
62 4 32 80 179 97 190 6 4 14 5 18 3 3 -3 12 7 19 20 7 14 17 25 22 25 5 0 4
-9 -2 -21 -7 -11 -9 -23 -6 -26 3 -3 16 16 28 43 25 52 65 104 81 104 6 0 2
-9 -8 -20 -23 -25 -12 -39 13 -17 10 10 22 17 25 17 12 0 45 38 39 45 -4 3 1
3 11 -1 10 -4 14 -11 9 -19z m-194 -52 c-15 -15 -31 -23 -35 -19 -4 4 3 16 17
26 37 29 49 24 18 -7z m-48 13 c0 -2 -7 -9 -15 -16 -13 -11 -14 -10 -9 4 5 14
24 23 24 12z m413 -21 c-3 -9 -8 -14 -10 -11 -3 3 -2 9 2 15 9 16 15 13 8 -4z
m-393 -39 c0 -22 -23 -36 -37 -21 -8 9 -9 15 0 24 15 15 37 14 37 -3z m330
-36 c0 -5 -5 -10 -11 -10 -5 0 -7 5 -4 10 3 6 8 10 11 10 2 0 4 -4 4 -10z
m-169 -54 c-6 -14 -15 -26 -20 -26 -5 0 -14 -13 -19 -29 -7 -21 -17 -29 -31
-28 -24 2 -16 21 36 78 40 44 49 45 34 5z m1303 12 c-5 -8 -1 -9 12 -4 14 5
16 4 7 -5 -6 -6 -16 -8 -22 -5 -14 9 -14 26 0 26 5 0 7 -5 3 -12z m-1560 -33
c-4 -8 -8 -15 -10 -15 -2 0 -4 7 -4 15 0 8 4 15 10 15 5 0 7 -7 4 -15z m-44
-9 c0 -3 -4 -8 -10 -11 -5 -3 -10 -1 -10 4 0 6 5 11 10 11 6 0 10 -2 10 -4z
m1895 -44 c-3 -3 -16 5 -28 17 l-22 23 28 -17 c15 -10 25 -20 22 -23z m-1925
-17 c-6 -15 -13 -25 -16 -23 -2 3 1 17 7 32 16 34 23 27 9 -9z m240 -55 c0 -5
-5 -10 -11 -10 -5 0 -7 5 -4 10 3 6 8 10 11 10 2 0 4 -4 4 -10z m1915 -68 c-3
-3 -11 0 -18 7 -9 10 -8 11 6 5 10 -3 15 -9 12 -12z m-2165 -119 c-10 -16 -11
-15 -6 7 3 14 6 34 7 45 1 13 3 11 6 -7 2 -15 -1 -35 -7 -45z m2180 32 c0 -8
-2 -15 -4 -15 -2 0 -6 7 -10 15 -3 8 -1 15 4 15 6 0 10 -7 10 -15z m9 -58 c0
-21 -1 -21 -9 -2 -12 28 -12 37 0 30 6 -3 10 -16 9 -28z m-1945 -21 c-3 -15
-8 -25 -11 -23 -2 3 -1 17 3 31 3 15 8 25 11 23 2 -3 1 -17 -3 -31z m2016 -36
c0 -25 20 -36 32 -19 7 10 8 6 5 -13 -2 -16 -1 -28 3 -28 5 0 17 -18 29 -40
15 -29 16 -38 6 -34 -8 3 -17 14 -20 25 -4 10 -13 19 -21 19 -13 0 -18 12 -15
33 1 4 -7 7 -16 5 -15 -2 -18 5 -19 39 -1 23 3 40 7 37 5 -3 9 -14 9 -24z
m220 -390 c0 -5 -4 -10 -10 -10 -5 0 -10 5 -10 10 0 6 5 10 10 10 6 0 10 -4
10 -10z m-2900 -115 c0 -16 -27 -32 -37 -21 -7 7 16 36 28 36 5 0 9 -7 9 -15z
m-420 -115 c0 -5 -9 -10 -20 -10 -11 0 -20 5 -20 10 0 6 9 10 20 10 11 0 20
-4 20 -10z m2677 -26 c-3 -3 -12 -4 -19 -1 -8 3 -5 6 6 6 11 1 17 -2 13 -5z
m-2673 -88 c-10 -8 -21 -12 -24 -10 -5 6 21 24 34 24 6 0 1 -6 -10 -14z m-14
-40 c0 -3 -4 -8 -10 -11 -5 -3 -10 -1 -10 4 0 6 5 11 10 11 6 0 10 -2 10 -4z
m-165 -36 c-8 -13 -65 -53 -65 -45 0 9 52 55 62 55 5 0 7 -4 3 -10z m215 -9
c0 -12 -20 -25 -27 -18 -7 7 6 27 18 27 5 0 9 -4 9 -9z m-6 -56 c-18 -27 -34
-33 -34 -12 0 11 27 31 48 36 1 1 -5 -10 -14 -24z m-204 -29 c0 -3 -4 -8 -10
-11 -5 -3 -10 -1 -10 4 0 6 5 11 10 11 6 0 10 -2 10 -4z m42 -108 c-7 -7 -12
-8 -12 -2 0 14 12 26 19 19 2 -3 -1 -11 -7 -17z m78 -8 c0 -5 -5 -10 -11 -10
-5 0 -7 5 -4 10 3 6 8 10 11 10 2 0 4 -4 4 -10z m50 -40 c0 -5 -5 -10 -11 -10
-5 0 -7 5 -4 10 3 6 8 10 11 10 2 0 4 -4 4 -10z m-74 -75 c-17 -26 -36 -33
-36 -15 0 6 10 25 23 41 17 24 23 27 25 14 2 -9 -4 -27 -12 -40z m96 33 c-7
-7 -12 -8 -12 -2 0 14 12 26 19 19 2 -3 -1 -11 -7 -17z m-32 -37 c0 -5 -7 -12
-16 -15 -24 -9 -28 -7 -14 9 14 17 30 20 30 6z m4014 -296 c-5 -11 0 -14 17
-13 16 2 24 -3 27 -15 3 -16 -2 -18 -43 -14 -58 6 -62 10 -36 36 24 24 43 28
35 6z m102 -112 c3 -10 12 -31 21 -46 15 -28 12 -65 -9 -119 -17 -46 -28 -21
-22 52 4 39 2 82 -4 100 -7 19 -7 30 -1 30 5 0 12 -8 15 -17z m-132 -129 c3
-8 2 -12 -4 -9 -6 3 -10 10 -10 16 0 14 7 11 14 -7z m111 -113 c-4 -25 -12
-41 -21 -41 -18 0 -18 14 1 30 8 7 15 24 15 38 0 14 3 23 6 19 3 -3 3 -24 -1
-46z m715 -88 c0 -27 -4 -43 -8 -36 -8 12 -4 83 4 83 2 0 4 -21 4 -47z m-5200
27 c0 -5 -4 -10 -10 -10 -5 0 -10 5 -10 10 0 6 5 10 10 10 6 0 10 -4 10 -10z
m-22 -52 c-28 -19 -101 -48 -122 -48 -12 0 -27 -5 -34 -12 -9 -9 -12 -8 -12 4
0 27 56 61 121 73 12 2 24 7 27 10 3 2 11 0 19 -7 11 -9 12 -13 1 -20z m1256
-29 c-15 -23 -30 -36 -32 -30 -5 14 47 85 55 77 4 -3 -7 -24 -23 -47z m-37 10
c-8 -21 -13 -26 -15 -15 -2 10 2 23 8 31 18 22 20 18 7 -16z m2325 -52 c4 -7
8 -16 8 -22 0 -5 -4 -3 -10 5 -11 19 -19 10 -22 -23 -2 -28 -18 -38 -18 -12 0
9 -10 15 -26 15 -17 0 -28 6 -31 20 -3 11 -9 17 -14 14 -11 -6 -12 26 -1 42
14 21 37 20 71 -3 20 -13 39 -30 43 -36z m-2249 28 c-6 -18 8 -20 24 -4 9 9
10 7 6 -9 -3 -14 0 -24 11 -28 13 -5 12 -11 -11 -42 -40 -54 -47 -60 -40 -34
3 14 1 22 -8 22 -11 0 -11 5 1 28 17 32 18 49 3 54 -5 2 -7 11 -4 21 4 9 11
15 16 12 4 -3 6 -12 2 -20z m3044 -7 c-3 -7 -5 -2 -5 12 0 14 2 19 5 13 2 -7
2 -19 0 -25z m-2987 -12 c0 -3 -4 -8 -10 -11 -5 -3 -10 -1 -10 4 0 6 5 11 10
11 6 0 10 -2 10 -4z m-1280 -46 c-8 -5 -17 -7 -19 -4 -3 3 1 9 9 14 8 5 17 7
19 4 3 -3 -1 -9 -9 -14z m-62 -5 c1 -1 -2 -13 -7 -26 -20 -50 -24 -64 -23 -79
1 -8 -8 -26 -19 -40 l-21 -25 5 29 5 28 -25 -28 c-16 -19 -26 -25 -29 -16 -3
6 -12 12 -20 12 -18 0 -18 12 3 77 10 32 24 55 35 59 10 3 18 10 18 16 0 9 68
3 78 -7z m-258 -15 c0 -11 -4 -20 -10 -20 -5 0 -10 9 -10 20 0 11 5 20 10 20
6 0 10 -9 10 -20z m133 -4 c-10 -13 -20 -20 -21 -15 -7 17 7 39 23 39 14 0 14
-3 -2 -24z m4958 4 c23 -13 25 -26 4 -34 -23 -8 -45 4 -45 25 0 21 12 24 41 9z
m-4711 -31 c0 -11 -4 -19 -10 -19 -5 0 -10 5 -10 10 0 6 -5 10 -11 10 -6 0 -9
-9 -6 -20 3 -10 -1 -24 -8 -30 -11 -9 -12 -7 -8 10 4 16 2 19 -11 14 -9 -3
-16 -13 -16 -20 0 -8 -9 -24 -20 -36 l-20 -22 0 26 c0 38 17 78 34 78 7 0 19
6 25 14 16 19 61 8 61 -15z m5067 9 c-3 -8 -6 -5 -6 6 -1 11 2 17 5 13 3 -3 4
-12 1 -19z m-5557 -41 c-34 -30 -56 -66 -65 -107 -4 -19 -12 -41 -17 -47 -6
-7 -8 -25 -5 -39 4 -22 -3 -35 -35 -67 -21 -22 -41 -38 -43 -36 -4 5 -9 58 -6
84 1 16 3 17 11 5 7 -12 10 -11 15 5 4 11 10 27 15 36 5 10 4 21 -2 27 -9 9
-7 17 5 30 9 10 17 25 17 34 0 18 38 55 88 83 45 26 56 22 22 -8z m214 -19
c-11 -17 -27 -2 -29 26 l-1 28 18 -22 c10 -12 15 -26 12 -32z m5336 0 c-1 -26
-3 -30 -10 -16 -6 9 -7 23 -4 32 9 25 14 19 14 -16z m-900 8 c0 -2 -7 -9 -15
-16 -12 -10 -15 -10 -15 4 0 9 7 16 15 16 8 0 15 -2 15 -4z m-3188 -28 c-7 -7
-12 -8 -12 -2 0 14 12 26 19 19 2 -3 -1 -11 -7 -17z m-1025 -33 c-4 -8 -11
-15 -17 -15 -6 0 -6 7 2 20 14 22 24 19 15 -5z m-327 -5 c0 -5 -2 -10 -4 -10
-3 0 -8 5 -11 10 -3 6 -1 10 4 10 6 0 11 -4 11 -10z m1611 -17 c-12 -20 -14
-14 -5 12 4 9 9 14 11 11 3 -2 0 -13 -6 -23z m-1360 -16 c-13 -13 -26 -3 -16
12 3 6 11 8 17 5 6 -4 6 -10 -1 -17z m-258 -20 c11 -4 16 -3 12 3 -3 6 -1 10
4 10 6 0 11 -6 11 -14 0 -8 6 -17 13 -20 14 -6 -40 -56 -60 -56 -16 0 -17 22
-2 37 20 20 3 41 -28 36 -27 -5 -27 -5 -8 10 11 8 24 12 30 8 5 -4 18 -11 28
-14z m4321 -43 c9 -3 16 -11 16 -18 -1 -16 -48 -48 -60 -41 -14 8 -13 38 2 53
14 14 20 14 42 6z m-4427 -26 c-3 -8 -6 -5 -6 6 -1 11 2 17 5 13 3 -3 4 -12 1
-19z m470 -25 c-3 -10 -5 -2 -5 17 0 19 2 27 5 18 2 -10 2 -26 0 -35z m-313
12 c-4 -8 -11 -15 -18 -15 -6 0 -5 -4 3 -9 12 -8 13 -14 3 -36 -10 -22 -15
-24 -33 -14 -15 8 -19 8 -15 0 4 -6 3 -11 -3 -11 -5 0 -15 8 -20 18 -6 9 -11
12 -11 5 0 -6 7 -18 14 -26 13 -12 13 -17 1 -33 -13 -18 -15 -17 -46 14 l-32
33 21 19 c12 11 26 20 32 20 5 0 10 5 10 10 0 6 6 10 14 10 7 0 18 6 24 13 16
19 63 21 56 2z m-114 -10 c-7 -8 -17 -15 -22 -15 -6 0 -5 7 2 15 7 8 17 15 22
15 6 0 5 -7 -2 -15z m274 -80 c-7 -16 -24 -21 -24 -6 0 8 7 13 27 20 1 1 0 -6
-3 -14z m-386 -28 c2 -15 7 -27 12 -27 5 0 10 -7 12 -15 2 -13 10 -12 46 6 57
28 79 13 36 -25 -31 -27 -44 -32 -44 -16 0 15 -17 12 -23 -4 -4 -11 -1 -13 10
-9 11 4 14 2 11 -8 -9 -28 -44 -21 -82 17 -34 34 -56 65 -56 78 0 3 9 6 19 6
10 0 22 7 25 16 9 23 31 11 34 -19z m332 -1 c0 -3 -4 -8 -10 -11 -5 -3 -10 -1
-10 4 0 6 5 11 10 11 6 0 10 -2 10 -4z m10 -31 c0 -2 -10 -9 -22 -15 -22 -11
-22 -10 -4 4 21 17 26 19 26 11z m-440 -77 c26 -30 28 -34 13 -45 -9 -7 -13
-13 -7 -13 17 0 -21 -20 -38 -20 -19 0 -25 34 -8 45 5 3 7 19 3 35 -7 38 0 38
37 -2z m450 -56 c0 -5 -7 -17 -15 -28 -14 -18 -14 -17 -4 9 12 27 19 34 19 19z
m3472 -153 c4 -9 -2 -20 -13 -28 -11 -6 -17 -16 -14 -21 3 -5 -8 -16 -25 -25
-24 -12 -29 -21 -26 -40 10 -53 -47 -56 -95 -4 l-27 29 39 6 c43 7 46 14 23
49 -12 18 -14 35 -9 67 6 35 9 39 16 23 4 -11 8 -14 8 -6 1 8 8 23 17 33 16
17 19 16 59 -25 23 -24 44 -50 47 -58z m-4242 57 c0 -18 -31 -29 -44 -16 -8 8
-7 14 4 20 22 14 40 12 40 -4z m1813 -147 c-5 -5 -9 10 -10 34 l-1 42 10 -34
c5 -19 5 -38 1 -42z m-1616 24 c-3 -10 -5 -4 -5 12 0 17 2 24 5 18 2 -7 2 -21
0 -30z m1820 15 c-3 -8 -6 -5 -6 6 -1 11 2 17 5 13 3 -3 4 -12 1 -19z m-144
-47 c-15 -24 -15 -25 0 -12 23 18 29 11 34 -46 4 -45 3 -47 -10 -24 l-14 24
-16 -24 c-20 -27 -35 -18 -41 26 -2 17 -1 24 1 18 10 -28 21 -11 16 22 -7 42
12 72 34 54 11 -10 11 -16 -4 -38z m162 -37 c4 -34 3 -35 -4 -9 l-8 30 -10
-35 -11 -35 -1 48 c-1 26 -5 47 -11 47 -5 0 -10 9 -10 20 0 20 1 20 25 -3 17
-15 27 -37 30 -63z m-61 25 c-3 -5 -9 -9 -15 -9 -11 0 -12 43 -2 54 9 9 25
-33 17 -45z m-1054 -9 c0 -5 -4 -10 -10 -10 -5 0 -10 5 -10 10 0 6 5 10 10 10
6 0 10 -4 10 -10z m4750 -15 c0 -8 -2 -15 -4 -15 -2 0 -6 7 -10 15 -3 8 -1 15
4 15 6 0 10 -7 10 -15z m-1623 -27 c-3 -7 -5 -2 -5 12 0 14 2 19 5 13 2 -7 2
-19 0 -25z m-2070 0 c-3 -8 -6 -5 -6 6 -1 11 2 17 5 13 3 -3 4 -12 1 -19z
m3528 -51 c22 -51 23 -56 6 -45 -11 6 -21 23 -24 37 -3 14 -8 37 -13 51 -11
40 3 19 31 -43z m-55 -22 c14 -19 14 -19 -2 -6 -10 7 -18 18 -18 24 0 6 1 8 3
6 1 -2 9 -13 17 -24z m209 -17 c1 -5 -3 -8 -9 -8 -5 0 -10 12 -9 28 0 24 1 25
9 7 5 -11 9 -23 9 -27z m-4583 -3 c-4 -14 -10 -25 -15 -25 -5 0 -4 13 2 30 13
35 22 32 13 -5z m4414 -17 c0 -5 -4 -8 -10 -8 -5 0 -10 10 -10 23 0 18 2 19
10 7 5 -8 10 -18 10 -22z m-4285 12 c-3 -5 -10 -10 -16 -10 -5 0 -9 5 -9 10 0
6 7 10 16 10 8 0 12 -4 9 -10z m-946 -100 c1 -39 -2 -46 -19 -47 -24 -2 -27
32 -7 104 12 45 12 45 18 17 4 -16 7 -49 8 -74z m-279 45 c-7 -8 -18 -15 -24
-15 -6 0 -2 7 8 15 25 19 32 19 16 0z m972 -60 c-2 -14 -9 -25 -14 -25 -5 0
-7 3 -5 8 2 4 7 15 10 25 9 25 15 21 9 -8z m-592 -263 c0 -7 -4 -10 -10 -7 -5
3 -10 16 -10 28 0 18 2 19 10 7 5 -8 10 -21 10 -28z m1495 18 c3 -5 1 -10 -4
-10 -6 0 -11 5 -11 10 0 6 2 10 4 10 3 0 8 -4 11 -10z m-1441 -75 c7 -34 -7
-15 -19 25 -5 16 -4 22 3 15 5 -5 12 -23 16 -40z m851 6 c7 -12 -2 -17 -47
-25 -24 -4 -38 -3 -38 4 0 5 11 10 24 10 14 0 28 5 31 10 8 13 22 13 30 1z
m-120 -57 c-38 -20 -45 -17 -15 5 13 11 28 17 33 14 5 -3 -4 -11 -18 -19z
m-709 -22 c2 -11 0 -23 -5 -26 -5 -3 -11 8 -13 24 -3 18 0 29 5 27 6 -2 12
-13 13 -25z m652 6 c-3 -15 -18 -28 -32 -28 -5 0 -1 9 9 20 21 23 26 25 23 8z
m1013 -118 c-7 -18 -10 -20 -10 -7 -1 9 -5 17 -11 17 -15 0 -12 17 8 58 l17
37 3 -40 c2 -23 -1 -52 -7 -65z m-45 -6 c-4 -13 -10 -24 -14 -24 -12 0 -11 41
2 80 l11 35 3 -34 c2 -19 1 -44 -2 -57z m-64 10 c-2 -19 -6 -33 -8 -31 -9 9
-13 52 -7 76 5 21 7 22 13 7 3 -9 4 -33 2 -52z m-73 -31 l-2 -88 -7 70 c-6 63
-4 105 6 105 2 0 3 -39 3 -87z m578 10 c-3 -10 -5 -4 -5 12 0 17 2 24 5 18 2
-7 2 -21 0 -30z m-477 12 c0 -8 -4 -15 -10 -15 -5 0 -10 7 -10 15 0 8 5 15 10
15 6 0 10 -7 10 -15z m2826 -81 c-4 -12 -10 -14 -17 -7 -5 5 -7 17 -3 27 4 12
10 14 17 7 5 -5 7 -17 3 -27z m-3991 -54 c-10 -11 -23 -20 -28 -20 -6 0 -2 9
8 20 10 11 23 20 28 20 6 0 2 -9 -8 -20z m2066 -47 c-9 -16 -10 -15 -11 9 0
14 3 35 8 45 6 15 8 14 10 -9 2 -15 -1 -35 -7 -45z m1149 53 c0 -8 -7 -16 -15
-20 -17 -6 -18 -4 -9 18 8 20 24 21 24 2z m-2439 -38 c-22 -37 -45 -50 -34
-21 6 15 41 52 51 53 2 0 -5 -15 -17 -32z m-761 8 c0 -2 -7 -7 -16 -10 -8 -3
-12 -2 -9 4 6 10 25 14 25 6z m816 -34 c-8 -16 -13 -32 -9 -35 3 -4 -7 -23
-22 -43 -21 -27 -30 -33 -36 -23 -5 9 -3 17 6 22 8 4 15 17 15 27 0 13 5 18
15 14 11 -5 13 -2 9 10 -3 9 1 28 11 42 22 34 31 24 11 -14z m-146 18 c0 -17
-29 -70 -38 -70 -5 0 -17 7 -28 15 -10 8 -29 15 -41 15 -40 0 -25 18 22 24 25
4 45 11 45 17 0 5 9 9 20 9 11 0 20 -5 20 -10z m-1532 -57 c12 -3 22 -9 22
-14 0 -12 -47 -11 -71 1 -27 15 -24 34 4 25 12 -3 32 -9 45 -12z m1842 0 c0
-4 -15 -20 -32 -35 -25 -21 -29 -28 -15 -28 9 0 17 -4 17 -10 0 -5 -5 -10 -12
-10 -20 0 -78 24 -78 32 0 4 6 5 14 2 7 -3 24 8 37 25 21 27 69 43 69 24z
m-135 -43 c0 -31 36 -70 53 -57 8 6 12 6 12 -1 0 -20 -21 -24 -40 -7 -17 15
-19 15 -34 -6 -11 -17 -13 -26 -4 -36 8 -10 3 -13 -28 -12 -22 1 -50 5 -64 9
-22 7 -22 8 -5 10 11 1 23 2 28 1 7 -1 10 13 8 40 -1 9 5 22 14 29 8 7 15 18
15 24 0 16 22 37 35 33 5 -2 10 -14 10 -27z m3315 -30 c0 -5 -4 -10 -10 -10
-5 0 -10 5 -10 10 0 6 5 10 10 10 6 0 10 -4 10 -10z m-25 -48 c3 -34 -9 -52
-19 -27 -3 8 -12 15 -21 15 -19 0 -19 9 2 32 22 25 35 18 38 -20z m-5045 -22
c0 -5 -5 -10 -11 -10 -5 0 -7 5 -4 10 3 6 8 10 11 10 2 0 4 -4 4 -10z m1594
-5 c-4 -8 -11 -15 -16 -15 -6 0 -5 6 2 15 7 8 14 15 16 15 2 0 1 -7 -2 -15z
m-1084 -22 c0 -7 -6 -13 -12 -12 -28 3 -49 -1 -44 -10 10 -16 -5 -41 -24 -41
-24 0 -36 18 -21 33 28 28 6 29 -47 4 -18 -9 -25 -8 -32 3 -13 21 9 30 74 32
31 1 61 5 67 9 17 10 39 0 39 -18z m394 -20 c-13 -10 -20 -10 -23 -2 -4 14 19
30 33 22 5 -3 1 -12 -10 -20z m4412 18 c16 -1 25 -41 10 -41 -7 0 -23 11 -35
24 -20 22 -21 24 -5 21 11 -2 24 -4 30 -4z m-5125 -34 c-16 -16 -26 0 -10 19
9 11 15 12 17 4 2 -6 -1 -17 -7 -23z m5809 -25 c0 -19 -3 -15 -24 28 l-17 35
21 -24 c11 -13 20 -30 20 -39z m-5410 36 c0 -4 -9 -8 -20 -8 -11 0 -20 4 -20
9 0 6 9 9 20 8 11 -1 20 -5 20 -9z m280 -7 c0 -18 -31 -40 -66 -47 -52 -10
-51 1 3 29 54 29 63 31 63 18z m-378 -43 c-13 -13 -26 8 -17 30 6 16 7 16 17
-1 7 -13 7 -22 0 -29z m4528 3 c12 -24 13 -41 2 -41 -8 0 -32 43 -32 55 0 13
21 3 30 -14z m-4470 -16 c0 -28 -12 -32 -30 -10 -14 16 -6 35 16 35 8 0 14
-10 14 -25z m147 3 c-3 -8 -6 -5 -6 6 -1 11 2 17 5 13 3 -3 4 -12 1 -19z
m-297 -13 c0 -14 -4 -25 -9 -25 -5 0 -23 -13 -40 -29 -17 -16 -38 -31 -46 -35
-23 -8 -18 -29 5 -23 16 4 20 0 20 -18 0 -13 -7 -30 -15 -39 -8 -8 -15 -19
-15 -24 0 -14 -28 -23 -35 -11 -4 5 -8 36 -9 69 -4 65 12 99 60 130 25 17 29
17 40 3 10 -15 12 -14 18 5 10 30 26 28 26 -3z m610 3 c0 -18 -2 -20 -9 -8 -6
8 -7 18 -5 22 9 14 14 9 14 -14z m4886 -15 c4 -10 8 -40 9 -67 l2 -49 -15 29
c-17 31 -25 104 -12 104 4 0 11 -8 16 -17z m-5381 -22 c-3 -6 -11 -11 -17 -11
-6 0 -6 6 2 15 14 17 26 13 15 -4z m475 -17 c0 -8 -4 -12 -10 -9 -5 3 -10 13
-10 21 0 8 5 12 10 9 6 -3 10 -13 10 -21z m4743 -17 c16 -22 22 -38 17 -47 -9
-15 -24 -3 -47 38 -29 50 -7 57 30 9z m-3876 1 c1 -12 -11 -46 -28 -76 -36
-66 -69 -181 -69 -240 0 -24 -4 -41 -8 -38 -22 13 53 336 78 336 4 0 10 9 13
20 7 26 12 25 14 -2z m-83 -109 c-33 -118 -47 -142 -40 -72 4 47 54 178 63
169 2 -2 -8 -46 -23 -97z m814 49 c4 -20 -90 -118 -113 -118 -23 0 -17 13 40
81 50 58 67 67 73 37z m-2172 -25 c-4 -10 -7 -20 -6 -22 3 -8 -24 -20 -33 -14
-5 3 1 12 12 20 12 8 21 21 21 30 0 9 3 14 6 10 4 -3 3 -14 0 -24z m-167 -72
c1 -10 -2 -11 -12 -3 -7 6 -14 28 -14 49 l-2 38 14 -35 c7 -19 14 -41 14 -49z
m5499 59 c25 -24 27 -30 10 -30 -14 1 -54 50 -40 50 4 0 18 -9 30 -20z m-557
-29 c-8 -42 -31 -55 -23 -14 4 26 21 57 28 51 1 -2 -1 -19 -5 -37z m-4058 -9
c2 7 8 9 13 5 9 -8 -19 -62 -33 -62 -4 0 -9 15 -11 34 -3 30 -1 33 11 22 12
-9 16 -9 20 1z m-118 -30 c6 2 11 -15 13 -36 4 -43 -11 -60 -40 -45 -14 8 -25
5 -45 -10 -14 -12 -20 -21 -14 -21 7 0 9 -5 6 -11 -5 -6 -12 -4 -21 8 -18 23
-17 33 1 33 9 0 12 6 8 16 -6 16 -7 16 -18 0 -13 -18 -35 -22 -35 -6 0 6 -5
10 -11 10 -6 0 -9 -7 -5 -15 3 -9 0 -15 -10 -15 -11 0 -14 8 -12 27 2 20 14
32 48 50 61 33 113 44 120 25 3 -7 10 -12 15 -10z m4693 -19 c6 -15 12 -32 12
-39 0 -6 7 -11 16 -10 9 0 19 -5 22 -13 3 -9 0 -11 -7 -7 -7 4 -18 3 -26 -4
-17 -14 -30 6 -40 63 -8 43 4 49 23 10z m-1238 -11 c0 -15 -2 -15 -10 -2 -13
20 -13 33 0 25 6 -3 10 -14 10 -23z m1310 13 c0 -8 -2 -15 -4 -15 -2 0 -6 7
-10 15 -3 8 -1 15 4 15 6 0 10 -7 10 -15z m-5460 -4 c0 -14 -18 -23 -31 -15
-8 4 -7 9 2 15 18 11 29 11 29 0z m350 0 c0 -13 -26 -32 -33 -24 -14 13 -6 33
13 33 11 0 20 -4 20 -9z m27 -33 c-3 -7 -5 -2 -5 12 0 14 2 19 5 13 2 -7 2
-19 0 -25z m-437 -14 c0 -8 -4 -12 -10 -9 -5 3 -10 10 -10 16 0 5 5 9 10 9 6
0 10 -7 10 -16z m2200 9 c0 -16 -41 -75 -48 -69 -7 8 28 76 40 76 4 0 8 -3 8
-7z m2448 -6 c11 -13 -7 -47 -26 -47 -8 0 -10 32 -3 58 2 7 20 0 29 -11z
m-4278 -42 c0 -8 -9 -15 -20 -15 -25 0 -26 17 -2 23 9 3 18 5 20 6 1 0 2 -6 2
-14z m-131 -4 c12 -7 4 -22 -38 -70 -29 -34 -57 -61 -61 -61 -5 0 -18 12 -30
27 l-21 27 36 14 c25 10 34 19 30 30 -12 33 47 56 84 33z m4666 -11 c-10 -11
-21 -17 -24 -14 -3 3 3 12 13 20 28 20 32 17 11 -6z m-4265 -9 c0 -15 -16 -22
-35 -15 -13 5 -14 8 -3 15 18 12 38 11 38 0z m4966 -58 c-28 -25 -30 -23 -20
26 5 22 11 30 20 27 8 -3 15 0 15 7 1 7 4 1 6 -12 3 -17 -3 -31 -21 -48z
m-5135 14 c-10 -9 -11 -8 -5 6 3 10 9 15 12 12 3 -3 0 -11 -7 -18z m4109 -17
c0 -5 -4 -10 -10 -10 -5 0 -10 5 -10 10 0 6 5 10 10 10 6 0 10 -4 10 -10z
m1068 -12 c-2 -12 -8 -23 -14 -25 -7 -2 -10 6 -7 22 6 30 26 34 21 3z m-5583
2 c3 -5 2 -10 -4 -10 -5 0 -13 5 -16 10 -3 6 -2 10 4 10 5 0 13 -4 16 -10z
m5060 -100 c-19 -21 -38 -18 -29 5 5 13 34 25 43 18 2 -1 -4 -12 -14 -23z
m506 -3 c-8 -8 -11 -7 -11 4 0 20 13 34 18 19 3 -7 -1 -17 -7 -23z m-3681 19
c0 -3 -4 -8 -10 -11 -5 -3 -10 -1 -10 4 0 6 5 11 10 11 6 0 10 -2 10 -4z
m3270 -20 c0 -17 -49 -77 -50 -61 0 12 37 75 45 75 3 0 5 -6 5 -14z m-1135
-57 c42 -11 43 -12 49 -57 4 -26 14 -64 23 -85 14 -33 15 -40 3 -47 -9 -6 -20
-4 -30 5 -8 7 -34 18 -58 25 -46 12 -62 35 -62 90 0 31 16 80 25 80 4 0 26 -5
50 -11z m1182 -163 c12 -11 19 -24 17 -28 -8 -12 -59 -9 -86 5 -20 10 -24 17
-17 35 7 19 13 21 36 16 16 -4 38 -16 50 -28z m-519 -19 c5 -26 -16 -47 -49
-47 -35 0 -36 8 -8 44 23 30 52 31 57 3z m329 -62 c12 -4 29 -92 19 -102 -11
-11 -93 19 -120 44 -29 26 -50 69 -41 83 4 7 101 -10 142 -25z m-691 -51 c-4
-20 -10 -34 -13 -30 -3 3 -2 21 1 42 4 20 10 34 13 30 3 -3 2 -21 -1 -42z
m1314 -186 c82 -65 132 -112 147 -142 l16 -31 -23 20 c-13 11 -37 32 -53 47
-16 15 -41 29 -55 33 -42 10 -92 55 -92 81 0 32 10 30 60 -8z m-5630 -353 c0
-8 -82 -47 -87 -41 -3 2 12 14 34 25 39 20 53 25 53 16z m5420 -161 c0 -8 -5
-12 -10 -9 -6 4 -8 11 -5 16 9 14 15 11 15 -7z m240 -145 c0 -24 -23 -21 -28
4 -2 10 3 17 12 17 10 0 16 -9 16 -21z"/>
<path d="M2454 6648 c-4 -6 -2 -14 4 -16 7 -2 12 -11 13 -20 0 -12 3 -10 10 6
13 35 -9 60 -27 30z"/>
<path d="M2500 6619 c0 -5 5 -7 10 -4 6 3 10 8 10 11 0 2 -4 4 -10 4 -5 0 -10
-5 -10 -11z"/>
<path d="M2530 6620 c0 -5 4 -10 9 -10 6 0 13 5 16 10 3 6 -1 10 -9 10 -9 0
-16 -4 -16 -10z"/>
<path d="M2465 6720 c-3 -5 -1 -10 4 -10 6 0 11 5 11 10 0 6 -2 10 -4 10 -3 0
-8 -4 -11 -10z"/>
<path d="M794 3879 c-3 -6 0 -18 9 -26 13 -13 14 -12 10 11 -6 29 -9 31 -19
15z"/>
<path d="M4702 7098 c2 -6 11 -12 20 -14 8 -1 26 -5 39 -8 16 -5 12 0 -11 13
-40 23 -53 26 -48 9z"/>
<path d="M327 6969 c-3 -13 -1 -19 6 -16 15 5 22 37 9 37 -5 0 -12 -9 -15 -21z"/>
<path d="M248 6925 c-3 -6 -9 -27 -13 -48 -4 -20 -11 -40 -17 -43 -5 -3 -4
-12 4 -21 10 -12 9 -18 -7 -29 -10 -8 -22 -14 -25 -14 -16 0 -54 42 -55 63 -2
20 -6 22 -56 19 -30 -1 -60 -4 -66 -7 -10 -3 -13 -39 -13 -135 l0 -130 36 0
c19 0 67 -5 106 -12 90 -15 194 1 278 43 75 37 100 38 100 3 0 -22 3 -24 23
-18 60 18 112 52 133 85 22 36 22 37 3 42 -12 3 -17 1 -12 -6 4 -6 0 -8 -10
-4 -9 3 -19 2 -22 -4 -12 -19 -100 -56 -120 -50 -27 8 -126 73 -144 94 -7 10
-26 17 -40 17 -15 0 -35 6 -45 13 -17 12 -17 15 4 50 l22 37 -25 0 c-22 0 -26
5 -29 33 -2 17 -6 27 -10 22z"/>
<path d="M100 6902 c0 -14 33 -40 54 -44 14 -2 21 5 27 25 6 22 5 26 -5 18 -7
-6 -17 -6 -26 -1 -19 12 -50 13 -50 2z"/>
<path d="M5050 6851 c0 -5 5 -13 10 -16 6 -3 10 -2 10 4 0 5 -4 13 -10 16 -5
3 -10 2 -10 -4z"/>
<path d="M2390 6805 c-7 -9 -8 -15 -2 -15 5 0 12 7 16 15 3 8 4 15 2 15 -2 0
-9 -7 -16 -15z"/>
<path d="M721 6787 c-28 -14 -40 -37 -19 -37 7 0 31 11 53 25 36 22 38 24 15
25 -14 0 -36 -6 -49 -13z"/>
<path d="M5130 6780 c0 -5 5 -10 11 -10 5 0 7 5 4 10 -3 6 -8 10 -11 10 -2 0
-4 -4 -4 -10z"/>
<path d="M2397 6683 c-11 -13 -17 -27 -14 -30 3 -2 13 7 23 21 22 34 15 42 -9
9z"/>
<path d="M5210 6650 c6 -11 13 -20 16 -20 2 0 0 9 -6 20 -6 11 -13 20 -16 20
-2 0 0 -9 6 -20z"/>
<path d="M3860 6609 c0 -5 5 -7 10 -4 6 3 10 8 10 11 0 2 -4 4 -10 4 -5 0 -10
-5 -10 -11z"/>
<path d="M4100 6585 c7 -8 17 -15 22 -15 5 0 3 7 -6 15 -8 8 -18 15 -22 15 -3
0 -1 -7 6 -15z"/>
<path d="M2252 6528 c-14 -14 -16 -28 -3 -28 5 0 11 9 14 20 6 23 5 24 -11 8z"/>
<path d="M5326 6507 c3 -10 9 -15 12 -12 3 3 0 11 -7 18 -10 9 -11 8 -5 -6z"/>
<path d="M1135 6100 c-7 -23 2 -43 16 -35 12 8 12 42 0 50 -5 3 -12 -4 -16
-15z"/>
<path d="M1198 6086 c-19 -14 -24 -41 -9 -50 5 -3 11 1 15 9 3 8 16 15 29 15
32 0 40 10 19 26 -22 17 -33 17 -54 0z"/>
<path d="M647 6068 c-53 -18 -100 -55 -91 -69 3 -5 -13 -9 -35 -9 -31 0 -44 6
-60 26 -21 27 -76 41 -96 24 -21 -17 -107 -31 -207 -33 -105 -2 -140 -16 -105
-42 18 -13 17 -14 -2 -20 -23 -7 -27 -20 -10 -31 6 -4 73 -11 148 -15 75 -5
214 -19 308 -30 163 -20 263 -20 263 1 0 4 21 12 48 17 l47 9 -52 8 c-29 4
-55 11 -58 16 -3 4 9 23 26 41 45 48 59 71 59 96 0 15 -6 24 -17 25 -65 6
-122 1 -166 -14z m-209 -122 c10 -11 -333 -6 -348 5 -11 7 37 9 163 5 99 -2
182 -7 185 -10z"/>
<path d="M5595 6067 c9 -27 23 -43 31 -35 10 10 -5 46 -22 52 -12 5 -14 1 -9
-17z"/>
<path d="M1175 5910 c-3 -5 1 -10 9 -10 9 0 16 5 16 10 0 6 -4 10 -9 10 -6 0
-13 -4 -16 -10z"/>
<path d="M4294 5576 c11 -9 24 -16 30 -16 12 0 7 5 -24 19 -24 11 -24 11 -6
-3z"/>
<path d="M4430 5490 c8 -5 20 -10 25 -10 6 0 3 5 -5 10 -8 5 -19 10 -25 10 -5
0 -3 -5 5 -10z"/>
<path d="M5882 5373 c2 -10 13 -22 24 -28 12 -6 33 -24 47 -40 17 -19 26 -25
27 -15 0 15 -78 100 -93 100 -5 0 -7 -8 -5 -17z"/>
<path d="M5990 5278 c0 -14 23 -58 32 -58 4 0 8 3 8 8 -1 9 -39 59 -40 50z"/>
<path d="M4354 5203 c7 -12 3 -14 -31 -17 -14 -1 -39 -22 -64 -53 -12 -14 -14
-25 -7 -37 14 -25 5 -42 -13 -25 -31 30 -121 70 -134 59 -6 -5 -16 -6 -21 -2
-4 4 -3 0 3 -8 7 -9 9 -21 5 -28 -6 -9 -32 -6 -107 9 -143 29 -184 32 -212 14
-21 -14 -22 -16 -6 -35 10 -11 27 -20 38 -20 12 0 26 -5 33 -12 6 -6 34 -12
62 -12 30 -1 50 -6 50 -12 0 -6 15 -17 33 -25 17 -7 41 -19 52 -27 18 -13 16
-14 -22 -8 -44 6 -63 -5 -44 -28 7 -8 22 -11 38 -8 14 3 24 1 21 -4 -3 -5 0
-15 8 -22 12 -11 14 -10 14 5 0 14 3 12 13 -7 10 -20 23 -26 67 -32 30 -4 75
-14 99 -22 49 -18 99 -20 133 -7 13 6 40 12 61 16 23 4 37 11 37 20 0 8 -4 15
-10 15 -14 0 -12 27 5 60 11 21 20 27 35 23 22 -6 28 12 6 20 -12 5 -46 91
-46 118 0 21 -44 79 -60 79 -9 0 -22 6 -29 13 -11 10 -13 10 -7 0z"/>
<path d="M4130 5160 c0 -5 5 -10 11 -10 5 0 7 5 4 10 -3 6 -8 10 -11 10 -2 0
-4 -4 -4 -10z"/>
<path d="M975 5000 c-3 -5 -1 -10 4 -10 6 0 11 5 11 10 0 6 -2 10 -4 10 -3 0
-8 -4 -11 -10z"/>
<path d="M1190 4971 c0 -10 30 -24 37 -17 3 2 -5 9 -16 16 -12 6 -21 7 -21 1z"/>
<path d="M1140 4750 c0 -5 5 -10 11 -10 5 0 7 5 4 10 -3 6 -8 10 -11 10 -2 0
-4 -4 -4 -10z"/>
<path d="M6210 4689 c0 -14 7 -34 15 -45 14 -18 15 -17 9 11 -10 46 -23 65
-24 34z"/>
<path d="M4556 4477 c3 -10 9 -15 12 -12 3 3 0 11 -7 18 -10 9 -11 8 -5 -6z"/>
<path d="M6317 4419 c4 -13 8 -18 11 -10 2 7 -1 18 -6 23 -8 8 -9 4 -5 -13z"/>
<path d="M3338 4422 c0 -4 -2 -12 -2 -18 -1 -6 -14 -22 -29 -35 -20 -17 -26
-29 -21 -43 6 -15 13 -17 43 -10 20 4 62 8 93 8 45 1 61 6 77 23 36 39 26 48
-64 63 -27 4 -60 10 -72 13 -13 3 -24 3 -25 -1z"/>
<path d="M3103 4393 c9 -9 19 -14 23 -11 10 10 -6 28 -24 28 -15 0 -15 -1 1
-17z"/>
<path d="M6330 4106 c0 -29 4 -36 19 -36 18 0 19 3 9 30 -15 44 -28 46 -28 6z"/>
<path d="M3350 4002 c-14 -4 -46 -7 -72 -7 -27 0 -48 -4 -48 -9 0 -4 -6 -3
-14 3 -18 15 -36 -13 -36 -58 0 -16 -5 -33 -10 -36 -17 -11 -46 4 -58 30 -14
30 -31 31 -64 5 -19 -15 -25 -28 -24 -52 1 -18 -2 -41 -8 -50 -7 -12 -4 -33 9
-75 10 -32 19 -63 21 -70 1 -6 29 -21 61 -34 50 -20 82 -24 233 -29 165 -5
178 -7 231 -33 67 -33 94 -36 80 -9 -15 28 18 84 55 94 21 6 39 1 72 -17 41
-23 84 -36 56 -17 -6 4 -14 21 -17 39 -6 28 -3 33 23 45 17 7 31 19 31 25 1 7
2 19 3 26 0 6 14 13 29 15 62 7 15 31 -128 65 -27 7 -94 34 -148 61 -55 27
-115 52 -135 57 -73 15 -86 19 -96 29 -11 11 -11 11 -46 2z m-290 -181 c0 -5
-7 -14 -15 -21 -12 -10 -15 -10 -15 2 0 8 3 18 7 21 9 10 23 9 23 -2z m30 -51
c0 -11 -4 -20 -10 -20 -5 0 -10 2 -10 4 0 2 -3 11 -6 20 -4 11 -1 16 10 16 9
0 16 -8 16 -20z m85 -10 c3 -5 0 -7 -8 -4 -11 4 -13 -1 -10 -19 6 -32 -23 -45
-33 -15 -9 30 35 63 51 38z m59 1 c3 -5 -2 -8 -11 -7 -10 0 -19 -8 -21 -19 -2
-11 -8 -24 -12 -29 -5 -5 -6 2 -3 15 10 41 34 61 47 40z m123 -33 c-3 -8 -6
-5 -6 6 -1 11 2 17 5 13 3 -3 4 -12 1 -19z m30 0 c-3 -8 -6 -5 -6 6 -1 11 2
17 5 13 3 -3 4 -12 1 -19z"/>
<path d="M3141 3734 c0 -11 3 -14 6 -6 3 7 2 16 -1 19 -3 4 -6 -2 -5 -13z"/>
<path d="M3137 3994 c-14 -14 -6 -24 19 -24 16 0 24 5 22 13 -5 14 -31 21 -41
11z"/>
<path d="M4007 3907 c3 -15 9 -27 14 -27 13 0 11 13 -5 35 -13 18 -14 18 -9
-8z"/>
<path d="M442 3880 c0 -14 2 -19 5 -12 2 6 2 18 0 25 -3 6 -5 1 -5 -13z"/>
<path d="M2936 3861 c-30 -12 -1 -24 37 -15 28 6 30 8 12 15 -25 9 -25 9 -49
0z"/>
<path d="M6320 3828 c0 -13 5 -30 10 -38 7 -11 10 -5 10 23 0 20 -4 37 -10 37
-5 0 -10 -10 -10 -22z"/>
<path d="M437 3833 c-4 -3 -7 -11 -7 -17 0 -6 5 -5 12 2 6 6 9 14 7 17 -3 3
-9 2 -12 -2z"/>
<path d="M4030 3754 c0 -8 5 -12 10 -9 6 4 8 11 5 16 -9 14 -15 11 -15 -7z"/>
<path d="M4014 3716 c-7 -11 -14 -14 -18 -8 -7 11 -46 4 -46 -8 0 -13 31 -34
52 -35 23 -2 31 13 26 47 -3 22 -4 22 -14 4z"/>
<path d="M1523 1743 c-17 -3 -23 -11 -23 -30 0 -15 3 -24 6 -20 4 3 12 1 20
-6 50 -45 61 -46 49 -6 -5 15 -9 18 -15 9 -4 -7 -13 -9 -19 -5 -9 5 -8 13 3
31 18 26 20 35 9 33 -5 -1 -18 -4 -30 -6z"/>
<path d="M2929 1738 c0 -2 -2 -22 -4 -45 -2 -23 -12 -55 -22 -70 -10 -15 -24
-40 -31 -55 -6 -15 -23 -35 -38 -44 -25 -17 -25 -18 -8 -31 34 -25 48 -14 88
68 22 45 47 89 56 98 23 22 9 81 -20 81 -11 0 -20 -1 -21 -2z"/>
<path d="M1395 1650 c5 -15 1 -27 -14 -41 -23 -21 -29 -83 -10 -95 16 -10 57
15 63 39 3 12 -1 29 -9 37 -8 9 -15 28 -15 43 0 14 -5 29 -11 33 -8 4 -9 -1
-4 -16z"/>
<path d="M3380 1291 c24 -21 74 -43 159 -71 69 -22 132 -40 142 -40 16 0 15 3
-2 37 -23 45 -42 57 -69 43 -13 -7 -20 -7 -20 0 0 6 -27 9 -68 8 -47 -2 -77 3
-93 13 -13 8 -37 20 -54 28 l-30 12 35 -30z"/>
<path d="M4702 947 c-37 -56 -81 -120 -97 -142 -17 -22 -34 -46 -40 -53 -5 -8
-31 -37 -57 -65 -26 -28 -45 -53 -42 -56 14 -15 222 237 271 329 66 124 52
119 -35 -13z"/>
<path d="M5100 1002 c0 -12 34 -42 48 -42 7 0 12 -4 12 -9 0 -13 87 -71 106
-71 7 0 14 5 14 11 0 6 7 9 15 6 32 -13 31 42 -2 79 -10 11 -25 18 -35 16 -9
-2 -19 2 -23 7 -7 13 -135 15 -135 3z"/>
<path d="M5430 893 c0 -41 47 -157 70 -173 4 -3 12 -14 19 -25 10 -17 11 -15
6 15 -4 19 -17 65 -31 102 -36 103 -64 139 -64 81z"/>
<path d="M665 830 c-3 -6 1 -7 9 -4 18 7 21 14 7 14 -6 0 -13 -4 -16 -10z"/>
<path d="M658 803 c-27 -14 -46 -28 -45 -30 2 -2 28 10 58 27 30 16 50 30 44
30 -5 0 -31 -12 -57 -27z"/>
<path d="M5610 791 c15 -29 30 -35 30 -13 0 11 -7 23 -16 26 -24 9 -26 8 -14
-13z"/>
<path d="M540 740 c-9 -6 -10 -10 -3 -10 6 0 15 5 18 10 8 12 4 12 -15 0z"/>
<path d="M374 644 c-18 -14 -18 -15 4 -4 12 6 22 13 22 15 0 8 -5 6 -26 -11z"/>
<path d="M4424 598 l-19 -23 23 19 c12 11 22 21 22 23 0 8 -8 2 -26 -19z"/>
<path d="M294 574 c-18 -14 -18 -15 4 -4 12 6 22 13 22 15 0 8 -5 6 -26 -11z"/>
<path d="M348 559 c-36 -19 -47 -29 -30 -29 4 0 25 11 47 25 48 29 36 32 -17
4z"/>
<path d="M4363 544 c-20 -18 -22 -22 -7 -15 21 10 52 41 41 41 -3 0 -19 -12
-34 -26z"/>
<path d="M94 454 c-18 -14 -18 -15 4 -4 12 6 22 13 22 15 0 8 -5 6 -26 -11z"/>
<path d="M87 351 c-43 -27 -81 -52 -85 -57 -9 -10 102 53 148 83 65 43 15 23
-63 -26z"/>
<path d="M44 374 c-18 -14 -18 -15 4 -4 12 6 22 13 22 15 0 8 -5 6 -26 -11z"/>
<path d="M4140 350 c-8 -6 -27 -10 -41 -10 -25 0 -39 -16 -39 -43 0 -7 5 -4
11 6 16 28 29 20 22 -15 -9 -45 -30 -76 -56 -80 -12 -2 -23 -11 -25 -21 -4
-19 54 -127 68 -127 5 0 7 26 5 59 -3 40 0 64 10 77 8 11 15 38 15 62 0 32 6
49 26 69 27 26 29 38 4 23z"/>
<path d="M10 330 c-9 -6 -10 -10 -3 -10 6 0 15 5 18 10 8 12 4 12 -15 0z"/>
<path d="M4172 103 l-21 -48 24 28 c14 15 25 37 25 48 0 28 -4 24 -28 -28z"/>
</g>
</svg>
