<?xml version="1.0" standalone="no"?>
<!DOCTYPE svg PUBLIC "-//W3C//DTD SVG 20010904//EN"
 "http://www.w3.org/TR/2001/REC-SVG-20010904/DTD/svg10.dtd">
<svg version="1.0" xmlns="http://www.w3.org/2000/svg"
 width="640.000000pt" height="800.000000pt" viewBox="0 0 640.000000 800.000000"
 preserveAspectRatio="xMidYMid meet">

<g transform="translate(0.000000,800.000000) scale(0.100000,-0.100000)"
fill="#000000" stroke="none">
<path d="M0 6090 c0 -1903 0 -1910 21 -1946 21 -39 19 -55 -6 -34 -13 11 -15
-203 -15 -2049 l0 -2061 3200 0 3200 0 0 4000 0 4000 -3200 0 -3200 0 0 -1910z
m3433 -1043 c4 3 11 -6 16 -21 6 -14 17 -26 26 -26 8 0 16 -4 16 -10 1 -5 2
-14 3 -19 0 -5 5 -13 10 -18 5 -4 6 -3 2 4 -4 8 3 15 21 19 15 4 31 11 34 17
8 11 45 13 83 2 26 -7 28 -6 21 14 -3 11 -2 21 3 21 16 0 21 -27 9 -39 -8 -8
-8 -14 -2 -19 13 -9 12 -40 -3 -75 -7 -16 -12 -37 -12 -47 0 -10 -4 -22 -10
-25 -5 -3 -10 -21 -10 -40 0 -27 7 -39 34 -60 19 -14 36 -38 39 -54 3 -15 26
-48 52 -74 43 -44 71 -107 47 -107 -5 0 -8 -9 -5 -20 3 -11 12 -20 19 -20 17
0 17 -9 2 -60 -7 -22 -23 -44 -35 -51 -25 -14 -31 -28 -35 -81 -1 -21 -6 -38
-10 -38 -4 0 -8 5 -8 10 0 6 -7 10 -15 10 -8 0 -15 -6 -15 -14 0 -7 -7 -19
-15 -26 -9 -7 -14 -19 -11 -27 7 -18 -9 -16 -56 4 -40 18 -51 48 -22 60 15 5
15 7 0 15 -22 12 -21 18 14 91 33 70 38 107 15 107 -11 0 -15 11 -15 40 0 22
-4 40 -10 40 -5 0 -10 6 -10 14 0 8 -13 24 -30 36 -16 12 -30 27 -30 35 0 32
-35 78 -78 103 -17 9 -22 9 -22 0 0 -9 -4 -8 -15 2 -20 20 -109 15 -101 -6 3
-9 -1 -14 -14 -14 -10 0 -31 -11 -47 -24 -16 -14 -49 -33 -74 -42 -46 -19 -71
-38 -67 -51 2 -4 -4 -18 -13 -30 -15 -22 -16 -20 -19 35 -11 182 0 245 50 300
22 24 40 47 40 52 0 6 4 10 9 10 5 0 14 14 20 31 7 20 16 30 28 28 39 -5 123
14 123 27 0 7 6 11 14 8 7 -3 17 3 20 13 7 17 8 17 20 1 7 -10 16 -15 19 -11z
m597 -102 c0 -8 5 -15 11 -15 6 0 8 -9 4 -20 -5 -16 -2 -20 17 -20 20 -1 21
-2 6 -11 -10 -5 -18 -16 -18 -24 0 -16 -69 -95 -83 -95 -5 0 -6 7 -3 16 3 8 2
13 -3 10 -5 -3 -12 -20 -16 -38 l-7 -33 -9 29 c-4 17 -15 34 -24 39 -12 6 -14
17 -9 40 11 52 50 112 73 112 11 0 26 6 33 13 16 16 28 15 28 -3z m-890 -34
c0 -5 -6 -14 -14 -20 -12 -10 -13 -8 -9 8 5 21 23 30 23 12z m-1010 -71 c0 -5
-4 -10 -10 -10 -5 0 -10 5 -10 10 0 6 5 10 10 10 6 0 10 -4 10 -10z m70 -48
c0 -4 16 -25 35 -46 19 -21 35 -46 35 -55 1 -20 24 -51 39 -51 6 0 11 -7 11
-15 0 -8 5 -15 10 -15 6 0 10 -9 10 -20 0 -30 -15 -24 -66 25 -25 25 -49 45
-55 45 -5 0 -9 6 -9 14 0 23 -40 66 -55 59 -17 -6 -19 6 -5 41 9 24 50 38 50
18z m-460 -23 c0 -6 -4 -7 -10 -4 -5 3 -10 11 -10 16 0 6 5 7 10 4 6 -3 10
-11 10 -16z m2710 -4 c-7 -8 -19 -15 -27 -15 -8 0 -11 -4 -8 -10 3 -5 2 -10
-4 -10 -5 0 -17 -3 -27 -7 -31 -12 -10 19 26 39 42 22 57 23 40 3z m-3709 -25
c8 -22 17 -30 34 -30 37 0 55 -11 55 -32 0 -18 4 -20 39 -14 32 5 39 3 44 -13
2 -10 1 -25 -4 -32 -11 -18 -2 -29 26 -29 26 0 45 -25 45 -59 0 -14 6 -21 20
-21 23 0 44 -42 35 -71 -9 -27 3 -43 21 -28 22 18 46 -17 39 -57 -4 -23 -1
-33 10 -38 10 -3 15 0 15 11 0 14 2 14 20 -2 11 -10 20 -23 20 -28 0 -6 6 -18
14 -26 8 -9 18 -28 21 -43 6 -22 4 -28 -9 -28 -15 0 -18 -4 -20 -32 -1 -16
-27 -37 -45 -38 -20 0 -7 67 18 94 12 12 17 27 13 33 -6 9 -13 7 -25 -8 -10
-11 -16 -23 -13 -27 3 -5 -4 -13 -14 -20 -15 -9 -22 -8 -35 4 -8 8 -15 24 -15
34 0 10 -15 31 -32 46 -18 15 -33 36 -33 48 0 12 -7 21 -15 22 -33 1 -50 17
-50 45 0 22 -6 32 -26 39 -14 6 -29 23 -36 40 -5 17 -23 37 -38 45 -25 13 -28
19 -23 49 4 28 2 35 -16 41 -11 3 -25 4 -31 0 -6 -4 -8 10 -4 39 6 40 4 45
-19 58 -20 11 -23 17 -16 36 11 30 18 28 30 -8z m765 -5 c-10 -8 -24 -25 -30
-37 -15 -29 -40 -30 -44 0 -2 14 3 24 15 29 10 3 26 15 37 25 14 15 21 17 30
8 8 -8 6 -15 -8 -25z m2548 -4 c3 -5 -1 -12 -10 -15 -12 -4 -13 -10 -6 -19 7
-8 6 -16 -3 -24 -17 -16 -23 -6 -20 27 2 14 4 28 4 33 1 10 29 9 35 -2z m56
-1 c-8 -5 -19 -10 -25 -10 -5 0 -3 5 5 10 8 5 20 10 25 10 6 0 3 -5 -5 -10z
m-2150 -43 c0 -5 -7 -6 -16 -3 -9 3 -18 6 -20 6 -2 0 -4 7 -4 15 0 13 3 13 20
3 11 -7 20 -17 20 -21z m-1260 3 c0 -5 -7 -10 -15 -10 -8 0 -15 5 -15 10 0 6
7 10 15 10 8 0 15 -4 15 -10z m3660 0 c0 -5 -4 -10 -10 -10 -5 0 -10 5 -10 10
0 6 5 10 10 10 6 0 10 -4 10 -10z m-2803 -21 c-9 -32 9 -67 35 -71 13 -2 24
-10 24 -18 1 -8 2 -20 3 -27 0 -7 11 -21 22 -32 16 -15 20 -26 15 -46 -9 -33
-36 -30 -54 7 -7 15 -21 30 -32 33 -20 6 -34 39 -28 66 2 10 -6 14 -27 14 -26
0 -30 4 -33 30 -2 24 3 33 25 47 40 23 56 22 50 -3z m511 -13 c-4 -22 0 -27
29 -37 30 -10 34 -14 31 -42 -3 -28 0 -32 25 -35 23 -3 27 -8 27 -34 0 -18 10
-42 25 -60 14 -16 25 -40 25 -54 0 -28 1 -28 -38 -11 -25 10 -29 17 -27 44 2
30 1 32 -25 27 -28 -6 -60 16 -60 41 0 14 -25 28 -50 29 -8 1 -16 10 -16 21
-1 11 -2 25 -3 31 -1 6 -13 16 -27 23 -22 10 -25 16 -19 39 8 33 15 37 66 41
39 2 41 1 37 -23z m2147 14 c-3 -5 -11 -10 -16 -10 -6 0 -7 5 -4 10 3 6 11 10
16 10 6 0 7 -4 4 -10z m75 -5 c-17 -20 4 -20 24 1 15 14 16 14 16 -1 0 -9 -5
-26 -11 -38 -9 -20 -9 -20 4 -4 20 24 25 21 19 -9 -6 -32 -46 -50 -79 -35 -29
13 -29 26 -1 45 12 9 17 16 10 16 -24 0 -44 -29 -36 -52 6 -20 5 -21 -9 -10
-12 10 -16 10 -20 0 -3 -8 -9 -4 -15 12 -6 14 -11 19 -11 13 -1 -15 -21 -18
-21 -3 0 5 15 14 33 19 24 7 26 9 10 10 -12 1 -25 6 -29 12 -5 8 2 10 22 6 19
-3 36 1 53 14 30 24 60 27 41 4z m-2440 -41 c0 -8 -4 -12 -10 -9 -5 3 -10 10
-10 16 0 5 5 9 10 9 6 0 10 -7 10 -16z m80 -78 c0 -14 -10 -26 -31 -35 -16 -7
-33 -10 -36 -7 -6 6 11 47 30 74 13 17 37 -3 37 -32z m1380 -2 c0 -10 -6 -14
-14 -11 -10 4 -12 0 -9 -14 4 -16 11 -19 29 -15 29 8 33 -18 7 -46 -14 -15
-15 -21 -4 -27 10 -7 11 -13 2 -30 -13 -24 -46 -30 -37 -6 8 21 0 19 -24 -7
-16 -17 -19 -18 -15 -5 4 10 2 17 -4 17 -6 0 -11 -4 -11 -10 0 -5 -5 -10 -11
-10 -6 0 -9 6 -7 12 3 7 0 18 -6 24 -8 9 -15 8 -28 -3 -17 -15 -18 -14 -18 5
0 16 -4 20 -16 15 -24 -9 -9 34 25 72 14 16 27 32 28 34 1 2 14 4 28 4 14 0
25 3 25 8 0 5 14 9 30 9 21 0 30 -5 30 -16z m-932 -18 c3 -12 -1 -17 -10 -14
-7 3 -15 13 -16 22 -3 12 1 17 10 14 7 -3 15 -13 16 -22z m-1743 3 c11 -17 -1
-21 -15 -4 -8 9 -8 15 -2 15 6 0 14 -5 17 -11z m149 -14 c3 -9 0 -15 -9 -15
-8 0 -15 7 -15 15 0 8 4 15 9 15 5 0 11 -7 15 -15z m1206 -4 c0 -5 3 -24 6
-42 6 -28 4 -32 -7 -21 -18 16 -29 15 -29 -3 0 -16 -9 -19 -26 -7 -20 13 -20
35 0 58 21 22 56 32 56 15z m-1250 -31 c0 -13 -10 -24 -26 -30 -34 -13 -34
-13 -34 10 0 11 7 20 15 20 8 0 15 5 15 10 0 6 7 10 15 10 8 0 15 -9 15 -20z
m1050 -33 c0 -21 -37 -51 -45 -37 -10 16 -35 -7 -35 -32 0 -17 -3 -18 -15 -8
-21 18 -19 37 8 52 12 7 25 12 29 13 4 0 13 6 20 13 16 16 38 15 38 -1z
m-1476 -13 c11 -28 6 -39 -9 -20 -8 11 -15 23 -15 28 0 14 18 9 24 -8z m516 6
c0 -5 -5 -10 -11 -10 -5 0 -7 5 -4 10 3 6 8 10 11 10 2 0 4 -4 4 -10z m-30
-41 c0 -28 -2 -30 -16 -18 -14 11 -18 11 -29 -4 -19 -27 -26 -7 -8 24 24 40
53 39 53 -2z m1250 21 c0 -5 -4 -10 -10 -10 -5 0 -10 5 -10 10 0 6 5 10 10 10
6 0 10 -4 10 -10z m-220 -34 c0 -8 3 -21 6 -29 4 -12 -3 -16 -28 -19 -27 -2
-33 -7 -32 -25 1 -26 -6 -29 -24 -11 -18 18 -15 30 17 66 31 33 61 42 61 18z
m-1478 -38 c-9 -9 -12 -7 -12 12 0 19 3 21 12 12 9 -9 9 -15 0 -24z m558 -9
c0 -18 -35 -5 -38 14 -3 16 -1 17 17 7 12 -6 21 -15 21 -21z m275 1 c-5 -8
-11 -8 -17 -2 -6 6 -7 16 -3 22 5 8 11 8 17 2 6 -6 7 -16 3 -22z m1075 3 c0
-10 -5 -25 -10 -33 -7 -11 -10 -7 -10 18 0 17 5 32 10 32 6 0 10 -8 10 -17z
m-1405 -31 c-3 -3 -11 0 -18 7 -9 10 -8 11 6 5 10 -3 15 -9 12 -12z m1035 -15
c10 -4 8 -6 -7 -6 -16 -1 -23 5 -23 17 0 10 3 13 8 6 4 -6 14 -14 22 -17z
m-918 -39 c-17 -17 -47 9 -30 29 10 12 13 12 27 -1 11 -12 12 -19 3 -28z m258
6 c0 -8 -5 -12 -10 -9 -6 4 -8 11 -5 16 9 14 15 11 15 -7z m-839 -62 c32 -51
36 -72 14 -72 -8 0 -17 14 -21 37 -4 20 -15 46 -25 57 -11 11 -19 24 -19 28 0
17 22 -5 51 -50z m524 38 c3 -5 1 -10 -4 -10 -6 0 -11 5 -11 10 0 6 2 10 4 10
3 0 8 -4 11 -10z m-797 -55 c-9 -9 -30 14 -23 25 6 9 10 8 17 -4 6 -10 8 -19
6 -21z m3821 -53 c9 -34 9 -46 -1 -61 -13 -17 -14 -17 -33 2 -17 17 -18 19 -2
14 15 -6 16 -4 7 13 -7 14 -8 26 0 39 5 11 7 28 3 38 -4 12 -3 15 4 8 5 -5 15
-29 22 -53z m131 -3 c0 -5 -7 -9 -15 -9 -9 0 -15 9 -15 21 0 18 2 19 15 9 8
-7 15 -16 15 -21z m-3610 -50 c0 -6 -4 -7 -10 -4 -5 3 -10 11 -10 16 0 6 5 7
10 4 6 -3 10 -11 10 -16z m-385 3 c-3 -3 0 -11 7 -19 15 -18 2 -29 -17 -13
-19 16 -19 37 0 37 8 0 13 -3 10 -5z"/>
<path d="M3470 4942 c0 -5 7 -17 15 -28 15 -19 20 -8 9 20 -6 17 -24 22 -24 8z"/>
</g>
</svg>
