<?xml version="1.0" standalone="no"?>
<!DOCTYPE svg PUBLIC "-//W3C//DTD SVG 20010904//EN"
 "http://www.w3.org/TR/2001/REC-SVG-20010904/DTD/svg10.dtd">
<svg version="1.0" xmlns="http://www.w3.org/2000/svg"
 width="640.000000pt" height="800.000000pt" viewBox="0 0 640.000000 800.000000"
 preserveAspectRatio="xMidYMid meet">

<g transform="translate(0.000000,800.000000) scale(0.100000,-0.100000)"
fill="#000000" stroke="none">
<path d="M2888 7983 c-2 -10 -1 -61 4 -113 7 -74 27 -769 27 -937 0 -23 6 -33
21 -38 47 -15 9 -41 -89 -62 -64 -13 -125 -43 -148 -73 -10 -12 -9 -17 3 -27
11 -8 13 -16 6 -30 -5 -10 -7 -23 -5 -29 2 -6 -21 -23 -51 -37 -30 -14 -58
-32 -62 -39 -6 -9 -11 -2 -14 22 l-5 35 -92 -1 c-84 -2 -97 -5 -165 -39 -40
-20 -80 -42 -88 -49 -8 -7 -27 -18 -42 -25 -15 -8 -25 -18 -22 -23 3 -4 0 -8
-6 -8 -40 0 -262 -165 -245 -182 3 -2 -25 -17 -63 -32 -113 -46 -191 -95 -224
-139 -37 -51 -68 -115 -67 -142 0 -11 9 2 19 29 10 27 31 66 47 88 32 47 131
114 145 100 6 -6 5 -13 -3 -17 -8 -5 -10 -4 -5 3 14 23 -10 11 -49 -26 -23
-20 -33 -31 -23 -23 28 22 31 7 3 -19 -14 -13 -25 -30 -25 -39 0 -9 12 -1 31
22 17 20 36 37 43 37 7 0 23 11 36 25 13 14 32 25 42 25 14 0 10 -9 -21 -42
-22 -24 -53 -59 -71 -78 -17 -19 -28 -27 -24 -17 3 9 2 17 -4 17 -5 0 -13 -12
-17 -27 -6 -26 -8 -27 -20 -10 -12 17 -13 16 -13 -5 -2 -162 -4 -179 -18 -185
-8 -3 -17 -3 -19 -1 -12 12 -7 117 8 150 9 21 15 46 15 55 0 10 3 27 7 38 6
14 2 13 -13 -7 -24 -28 -29 -43 -11 -32 12 7 4 -30 -13 -56 -6 -10 -8 -6 -3
15 4 24 3 27 -5 12 -6 -9 -8 -26 -5 -37 4 -12 2 -20 -5 -20 -15 0 -3 -104 16
-144 16 -34 18 -56 5 -56 -11 0 19 -112 32 -121 5 -4 7 -11 4 -16 -3 -5 3 -24
14 -41 10 -18 19 -45 18 -60 -1 -24 -2 -23 -13 11 -6 21 -15 35 -18 31 -4 -3
-10 11 -14 32 -4 22 -13 52 -19 68 l-13 29 -8 -34 c-4 -19 -8 -43 -9 -54 -1
-11 -4 -27 -7 -35 -6 -18 -27 -119 -35 -174 -4 -28 -3 -37 5 -32 9 5 12 -7 12
-39 0 -30 -5 -47 -14 -51 -23 -9 -40 -303 -20 -335 11 -18 12 -82 1 -90 -4 -3
-8 -41 -8 -85 0 -59 4 -81 15 -90 9 -6 16 -19 16 -30 0 -17 -1 -17 -15 2 -13
18 -14 16 -15 -28 0 -25 5 -48 10 -50 7 -2 3 -19 -9 -43 -50 -101 -104 -249
-101 -278 0 -4 -13 -33 -28 -65 -27 -52 -29 -65 -27 -151 2 -94 -10 -171 -26
-171 -5 0 -9 -25 -9 -55 0 -45 4 -56 21 -66 17 -9 20 -17 14 -45 -3 -21 -2
-34 5 -34 6 0 10 -28 9 -72 -1 -55 2 -74 15 -83 20 -15 20 -20 0 -39 -22 -23
-34 -20 -34 8 0 14 -4 27 -9 31 -14 8 -25 -35 -12 -48 14 -14 14 -110 0 -124
-7 -7 -9 -19 -5 -28 5 -14 9 -15 21 -5 9 7 17 11 19 9 5 -5 -57 -185 -67 -196
-5 -4 -6 10 -3 32 5 33 4 36 -4 15 -14 -35 -49 -57 -62 -38 -4 7 -6 24 -3 38
3 14 10 43 14 65 12 57 28 95 51 114 11 9 22 35 26 61 8 57 -10 44 -29 -21 -8
-27 -20 -45 -30 -47 -24 -5 -22 23 8 142 28 111 29 114 16 101 -15 -17 -53
-178 -54 -230 0 -27 -3 -54 -7 -60 -4 -5 -10 -32 -14 -60 -6 -51 -27 -119 -39
-131 -4 -4 -7 -24 -7 -44 0 -20 -9 -63 -20 -96 -11 -32 -20 -69 -20 -82 0 -13
-4 -20 -10 -17 -5 3 -10 -3 -10 -15 0 -12 -4 -19 -9 -16 -11 7 -28 -13 -33
-39 -2 -11 -14 -25 -28 -32 -14 -7 -21 -13 -16 -13 5 0 3 -7 -4 -15 -10 -12
-10 -15 0 -15 8 0 11 -2 8 -5 -3 -3 -16 -1 -29 4 -17 7 -19 10 -6 10 21 1 23
21 2 21 -9 0 -12 6 -8 17 5 12 0 11 -24 -6 -17 -13 -63 -34 -102 -47 -191 -64
-431 -182 -506 -247 -27 -24 -61 -48 -75 -52 -37 -11 -49 -23 -96 -95 -50 -77
-59 -109 -80 -267 -8 -65 -26 -181 -39 -258 -65 -383 -65 -378 -65 -1127 l0
-688 3200 0 3200 0 0 4000 0 4000 -1500 0 c-1422 0 -1500 -1 -1500 -17 0 -10
13 -44 29 -77 16 -32 27 -65 24 -72 -3 -8 -1 -14 5 -14 6 0 13 6 15 13 3 6 6
-1 6 -18 1 -35 9 -49 33 -58 13 -4 16 -2 11 11 -5 14 -3 15 8 5 19 -18 29 -16
29 7 0 23 8 25 31 7 34 -26 59 -115 79 -277 10 -81 32 -160 54 -188 5 -7 17
-11 26 -9 10 2 24 0 33 -5 18 -10 61 -143 97 -300 13 -54 28 -102 34 -107 7
-6 27 -13 46 -16 35 -6 68 -28 126 -81 44 -41 70 -82 85 -134 7 -25 17 -51 22
-57 6 -9 5 -18 -3 -28 -11 -13 -10 -18 3 -28 11 -8 18 -32 21 -72 2 -33 7 -90
12 -127 6 -63 5 -68 -12 -67 -11 0 -42 29 -74 70 -40 50 -82 87 -150 133 -52
35 -119 85 -147 111 -213 192 -402 274 -662 289 -58 4 -107 9 -110 12 -3 3 -1
13 5 22 5 9 11 60 12 112 2 52 8 113 14 135 6 22 14 63 19 90 4 28 13 75 19
105 6 30 7 82 4 115 -4 33 -8 130 -9 215 -1 113 -5 167 -17 200 -9 25 -19 57
-22 73 l-6 27 -99 0 c-86 0 -99 -2 -103 -17z m-483 -1363 c-28 -12 -37 -12
-30 0 3 6 16 10 28 9 21 0 21 -1 2 -9z m269 -10 c27 21 31 2 6 -25 -12 -13
-20 -31 -17 -39 3 -8 -3 -24 -13 -36 -11 -13 -17 -27 -13 -33 3 -6 1 -7 -5 -3
-7 4 -20 -7 -33 -28 -12 -20 -28 -36 -37 -36 -15 1 -16 2 -1 13 20 16 42 57
35 65 -8 7 -66 -54 -67 -71 -4 -38 8 -57 22 -37 8 11 9 6 5 -20 -7 -40 -26
-65 -26 -34 0 11 -5 25 -11 31 -18 18 -15 104 5 143 22 44 117 125 127 108 6
-9 11 -8 23 2z m323 -112 c-3 -8 -6 -5 -6 6 -1 11 2 17 5 13 3 -3 4 -12 1 -19z
m-342 -109 c-14 -28 -61 -66 -71 -56 -2 2 3 21 11 42 8 22 14 37 15 33 0 -4
12 -1 27 7 15 8 29 13 30 11 2 -2 -3 -19 -12 -37z m65 -35 c-12 -19 -25 -33
-28 -30 -3 3 2 14 10 23 9 10 19 29 23 43 5 14 10 19 12 13 3 -7 -5 -29 -17
-49z m-49 13 c-10 -9 -11 -8 -5 6 3 10 9 15 12 12 3 -3 0 -11 -7 -18z m-440
-18 c-16 -15 -38 -23 -67 -24 -52 -2 -49 4 14 26 67 24 80 23 53 -2z m403 -24
c-4 -8 -8 -15 -10 -15 -2 0 -4 7 -4 15 0 8 4 15 10 15 5 0 7 -7 4 -15z m1504
-60 c12 -19 22 -40 22 -46 0 -19 -30 11 -51 53 -24 47 -3 42 29 -7z m91 -42
c26 -53 36 -87 22 -79 -24 15 -64 116 -46 116 2 0 13 -17 24 -37z m-752 -80
c-3 -10 -5 -2 -5 17 0 19 2 27 5 18 2 -10 2 -26 0 -35z m-765 -28 c15 -4 29
-2 32 4 10 15 26 14 26 -2 0 -22 75 -39 136 -31 43 5 54 10 52 23 -3 18 -1 18
60 6 25 -4 42 -13 42 -21 0 -8 8 -13 18 -12 38 3 51 -2 46 -17 -5 -11 1 -15
20 -15 14 0 26 -4 26 -10 0 -5 -5 -10 -11 -10 -6 0 3 -13 20 -29 25 -23 30
-35 25 -57 -3 -18 1 -37 10 -49 9 -11 16 -14 16 -7 0 17 20 15 20 -3 0 -7 7
-18 16 -23 11 -6 15 -18 12 -35 -3 -16 -1 -25 6 -24 6 1 11 -14 11 -36 0 -23
6 -43 16 -50 24 -18 30 -57 13 -88 -10 -20 -19 -26 -31 -22 -11 4 -14 3 -9 -5
4 -8 2 -10 -7 -6 -8 3 -17 -1 -20 -9 -3 -8 -15 -13 -27 -12 -21 1 -101 -69
-121 -107 -5 -10 -19 -18 -29 -18 -11 0 -20 -7 -20 -15 0 -9 -8 -19 -17 -22
-10 -4 -25 -16 -33 -27 -19 -27 -50 -113 -42 -120 3 -3 0 -6 -6 -6 -7 0 -12
-10 -12 -22 0 -23 -14 -73 -35 -123 -15 -37 -18 -136 -6 -201 5 -28 6 -81 1
-124 -7 -60 -5 -80 7 -104 26 -50 41 -184 29 -248 -6 -34 -5 -38 14 -38 13 0
20 -7 20 -20 0 -22 -16 -27 -23 -7 -6 15 -11 1 -25 -76 -11 -60 -4 -101 19
-109 7 -2 15 -24 18 -49 6 -44 7 -44 43 -41 33 2 40 -1 62 -35 38 -57 52 -73
65 -73 8 0 11 -12 9 -31 -2 -24 -11 -36 -37 -50 -19 -10 -46 -29 -60 -43 -24
-23 -33 -25 -111 -23 -76 2 -90 -1 -130 -25 -68 -39 -146 -127 -160 -179 -11
-42 -11 -44 17 -69 17 -14 37 -37 46 -52 28 -46 121 -108 192 -129 l65 -20
103 24 c244 59 241 58 281 42 36 -15 62 -12 51 6 -9 13 9 11 23 -3 7 -7 12 -9
12 -5 0 4 9 3 21 -3 17 -10 21 -8 26 9 5 19 15 25 36 22 6 -1 11 13 9 30 -1 3
6 28 13 54 11 35 12 52 4 61 -6 7 -8 18 -4 24 4 6 3 23 -3 38 -5 15 -15 45
-22 67 -7 22 -21 48 -31 58 -11 10 -19 32 -19 50 -1 32 -29 86 -31 56 0 -8 -4
-6 -8 6 -11 26 -7 29 19 15 28 -15 38 -5 18 17 -25 29 -56 94 -79 163 -11 36
-30 75 -41 86 -17 20 -20 37 -21 163 -1 90 -6 144 -13 149 -6 4 -14 20 -18 36
-6 24 -4 27 9 22 22 -8 31 21 13 42 -9 9 -13 23 -11 30 3 6 0 12 -7 12 -6 0
-8 5 -5 10 4 6 15 8 26 5 19 -6 25 7 20 43 -3 16 48 62 67 62 6 0 12 7 12 15
0 11 8 13 30 8 25 -5 29 -3 24 11 -11 28 54 21 78 -9 12 -16 27 -23 41 -21 12
2 29 -2 37 -10 8 -7 20 -12 25 -11 6 1 18 -36 27 -83 20 -98 23 -154 8 -145
-12 8 -9 -67 4 -76 4 -4 3 -17 -4 -29 -7 -14 -10 -42 -7 -69 3 -25 3 -40 0
-33 -2 6 -9 12 -14 12 -11 0 -12 -33 0 -46 15 -16 22 -62 10 -69 -6 -4 -8 -13
-5 -20 3 -8 0 -16 -7 -19 -7 -3 -3 -4 8 -1 17 4 20 -1 22 -38 1 -23 7 -71 13
-106 7 -38 8 -66 3 -70 -14 -9 -23 -40 -13 -46 4 -3 10 -1 12 5 1 6 1 -49 0
-122 -4 -128 9 -238 30 -265 5 -7 8 -20 5 -30 -4 -15 -6 -15 -12 5 -11 32 -25
9 -25 -40 0 -21 -4 -38 -10 -38 -9 0 -14 14 -11 33 0 4 -3 7 -9 7 -5 0 -10 -4
-10 -9 0 -6 -9 -9 -19 -8 -16 1 -19 7 -14 32 l5 30 -14 -25 c-22 -38 -30 -88
-15 -93 9 -3 9 -9 0 -28 -6 -13 -13 -30 -15 -38 -4 -15 -48 60 -48 82 0 7 -7
22 -15 33 -8 10 -14 15 -13 9 1 -5 -1 -34 -5 -62 -6 -39 -4 -60 8 -82 18 -36
19 -45 3 -38 -9 3 -14 -7 -15 -27 -1 -17 -12 -38 -23 -48 -11 -9 -20 -19 -20
-24 0 -4 -8 -12 -17 -19 -15 -11 -15 -14 5 -31 12 -10 22 -25 22 -33 0 -12 -3
-12 -12 -3 -19 19 -28 14 -28 -18 0 -18 6 -33 15 -36 9 -4 15 -19 15 -39 0
-26 -9 -41 -45 -74 -24 -22 -41 -41 -37 -41 4 0 -6 -7 -23 -14 -16 -8 -52 -24
-80 -37 -136 -63 -362 -17 -481 97 -73 70 -193 219 -206 254 -5 17 -14 30 -19
30 -5 0 -9 5 -9 11 0 14 -66 123 -86 144 -20 20 -114 204 -114 223 0 8 -18 51
-39 96 -22 44 -43 95 -47 111 -4 17 -13 37 -21 46 -7 9 -16 49 -19 89 -3 41
-9 81 -15 91 -5 10 -9 29 -9 43 0 14 -4 27 -9 30 -4 3 -11 33 -15 66 -4 33
-14 79 -22 103 -10 26 -16 82 -17 147 -2 133 3 170 23 171 54 2 145 25 210 52
14 6 38 11 54 13 16 1 35 9 41 18 7 9 17 16 24 16 6 0 11 9 11 20 0 11 4 20 9
20 5 0 11 10 15 23 3 12 21 33 41 46 41 27 44 45 13 79 l-23 24 23 -6 c21 -7
21 -6 11 21 -5 15 -22 40 -37 56 -14 15 -22 27 -18 27 5 0 3 7 -4 15 -7 8 -20
15 -29 15 -10 0 -36 9 -60 20 -38 19 -81 20 -81 1 0 -3 -8 -7 -17 -8 -10 0
-51 -11 -91 -23 -91 -27 -104 -20 -95 48 4 26 12 52 18 59 12 12 152 10 227
-2 34 -6 37 -5 31 12 -6 16 -4 16 17 -2 l23 -20 -5 28 -5 28 21 -23 c18 -20
21 -20 24 -5 4 22 22 22 23 0 0 -13 3 -11 10 7 9 21 6 27 -16 43 -14 11 -37
36 -51 56 l-26 36 6 -34 6 -34 -21 24 c-11 13 -30 35 -40 49 l-20 25 6 -32 c4
-21 3 -33 -4 -33 -6 0 -11 3 -11 8 0 10 -54 72 -63 72 -5 0 -5 -9 -2 -20 5
-14 2 -20 -9 -20 -9 0 -16 5 -16 10 0 6 -4 10 -10 10 -5 0 -7 -8 -4 -17 4 -13
-1 -10 -17 7 l-22 25 6 -35 6 -35 -29 34 c-28 33 -29 34 -55 17 -14 -9 -30
-14 -36 -10 -6 3 -21 -4 -35 -17 -13 -12 -24 -18 -24 -13 -1 5 -3 63 -5 129
-4 134 -25 265 -54 340 -28 74 -31 125 -6 125 8 0 15 4 15 9 0 4 15 12 33 18
l32 9 -37 14 c-21 8 -38 18 -38 23 0 10 72 0 80 -11 3 -4 14 -14 24 -22 18
-14 19 -13 13 3 -4 12 -1 17 11 17 14 0 15 2 2 10 -11 7 -9 11 13 19 28 11 76
58 104 103 14 22 22 26 45 21 17 -3 28 -1 28 6 0 6 7 11 15 11 8 0 15 4 15 9
0 5 23 8 50 5 32 -3 50 -1 50 6 0 7 8 9 20 5 11 -3 30 1 45 11 23 15 25 15 25
0 0 -18 15 -21 26 -5 3 6 16 8 29 5 15 -4 28 1 40 14 10 11 21 16 24 11 4 -5
18 -12 33 -16z m-932 -18 c0 -8 -9 -24 -20 -37 -11 -13 -20 -27 -20 -32 0 -5
-4 -7 -9 -4 -5 3 -11 0 -14 -8 -4 -10 1 -12 16 -9 21 4 21 4 2 -8 -11 -6 -30
-24 -42 -38 -17 -20 -22 -22 -23 -9 0 29 19 68 57 114 38 45 53 54 53 31z
m1621 -70 c-10 -9 -11 -8 -5 6 3 10 9 15 12 12 3 -3 0 -11 -7 -18z m-1507
-144 c6 -19 4 -22 -10 -16 -13 5 -15 2 -10 -13 3 -10 2 -25 -3 -33 -5 -8 -8
33 -8 100 l0 114 12 -65 c6 -36 15 -75 19 -87z m1623 5 c-3 -7 -5 -2 -5 12 0
14 2 19 5 13 2 -7 2 -19 0 -25z m-1833 -3 c-4 -8 -8 -15 -10 -15 -2 0 -4 7 -4
15 0 8 4 15 10 15 5 0 7 -7 4 -15z m1823 -47 c-3 -7 -5 -2 -5 12 0 14 2 19 5
13 2 -7 2 -19 0 -25z m-1627 -99 c1 -13 1 -35 0 -49 -2 -19 -4 -15 -11 15 -4
22 -8 54 -8 70 0 26 1 27 9 9 4 -11 9 -32 10 -45z m1641 -16 c4 -27 10 -61 15
-77 4 -19 3 -27 -3 -23 -6 4 -14 24 -17 44 -15 84 -18 118 -11 111 5 -4 11
-29 16 -55z m-1531 2 c0 -5 -5 -3 -10 5 -5 8 -10 20 -10 25 0 6 5 3 10 -5 5
-8 10 -19 10 -25z m-63 -37 c-3 -8 -6 -5 -6 6 -1 11 2 17 5 13 3 -3 4 -12 1
-19z m1460 -4 c-3 -3 -12 -4 -19 -1 -8 3 -5 6 6 6 11 1 17 -2 13 -5z m-1480
-106 c-3 -8 -6 -5 -6 6 -1 11 2 17 5 13 3 -3 4 -12 1 -19z m139 -108 c4 -54 4
-54 -16 25 -23 96 -24 111 -3 65 9 -19 18 -60 19 -90z m1508 55 l6 -50 -15 45
c-17 51 -19 79 -6 65 5 -6 11 -32 15 -60z m-1913 12 c-6 -6 -11 -29 -11 -51 0
-23 -5 -48 -11 -56 -14 -20 -4 88 13 127 9 23 12 25 16 9 2 -10 -1 -23 -7 -29z
m79 -72 c0 -5 -5 -3 -10 5 -5 8 -10 20 -10 25 0 6 5 3 10 -5 5 -8 10 -19 10
-25z m1814 -93 c10 -90 8 -92 -93 -94 -145 -3 -155 -1 -127 31 9 10 16 24 14
32 -3 11 74 56 112 65 8 2 29 7 45 13 17 5 33 10 36 10 4 1 9 -25 13 -57z m45
-17 c1 -16 -1 -17 -9 -5 -5 8 -9 29 -9 45 1 29 1 29 9 5 4 -14 8 -34 9 -45z
m-1512 -25 c1 -23 -2 -38 -8 -35 -15 10 -10 75 6 75 0 0 1 -18 2 -40z m-340
-2 c-3 -8 -6 -5 -6 6 -1 11 2 17 5 13 3 -3 4 -12 1 -19z m-77 -25 c0 -7 -4
-13 -10 -13 -5 0 -10 12 -10 28 0 21 2 24 10 12 5 -8 10 -21 10 -27z m3229 10
c1 23 18 22 31 -3 9 -17 21 -20 70 -20 37 0 60 -4 63 -12 3 -7 6 -3 6 10 1 25
9 27 33 9 17 -13 21 -28 19 -61 -1 -14 -4 -16 -15 -7 -11 9 -15 8 -20 -5 -7
-19 3 -64 15 -64 25 0 4 -19 -34 -31 -37 -11 -43 -16 -39 -35 2 -13 12 -25 21
-27 9 -2 -4 -4 -29 -4 -25 1 -55 -5 -68 -12 -12 -6 -27 -9 -33 -5 -6 4 -15 0
-20 -7 -12 -19 -49 27 -48 61 0 24 0 24 14 6 8 -11 15 -15 15 -9 0 6 -6 16
-14 22 -8 7 -24 30 -35 50 l-19 39 24 53 c35 76 47 88 55 58 5 -16 7 -18 8 -6z
m-2897 -15 c-8 -8 -9 -4 -5 13 4 13 8 18 11 10 2 -7 -1 -18 -6 -23z m-382 -83
c0 -29 -3 -36 -10 -25 -5 8 -10 33 -10 55 0 29 3 36 10 25 5 -8 10 -33 10 -55z
m605 55 c3 -5 2 -10 -4 -10 -5 0 -13 5 -16 10 -3 6 -2 10 4 10 5 0 13 -4 16
-10z m-568 -67 c-2 -16 -4 -5 -4 22 0 28 2 40 4 28 2 -13 2 -35 0 -50z m369
30 c-10 -10 -19 5 -10 18 6 11 8 11 12 0 2 -7 1 -15 -2 -18z m1489 17 c7 -11
-15 -16 -94 -24 -65 -7 -147 -44 -191 -89 l-33 -32 18 30 c30 50 66 79 125
102 57 22 164 31 175 13z m162 -22 c-3 -7 -5 -2 -5 12 0 14 2 19 5 13 2 -7 2
-19 0 -25z m-277 -37 c0 -5 3 -22 6 -39 6 -27 3 -32 -30 -47 -20 -10 -45 -15
-57 -12 -16 4 -18 3 -8 -9 9 -11 9 -14 0 -14 -18 0 -60 50 -55 64 7 19 87 57
137 65 4 0 7 -3 7 -8z m40 -17 c0 -14 -4 -23 -10 -19 -5 3 -10 15 -10 26 0 10
5 19 10 19 6 0 10 -12 10 -26z m-1843 -46 c-3 -8 -6 -5 -6 6 -1 11 2 17 5 13
3 -3 4 -12 1 -19z m426 7 c-3 -9 -8 -14 -10 -11 -3 3 -2 9 2 15 9 16 15 13 8
-4z m-363 -153 c0 -13 -4 -21 -10 -17 -5 3 -9 18 -8 33 1 15 -2 47 -5 72 -6
42 -6 41 8 -10 8 -30 14 -65 15 -78z m380 123 c0 -20 -43 -114 -51 -110 -5 4
-2 21 6 42 8 19 12 40 9 45 -4 6 0 14 7 19 15 10 29 12 29 4z m31 -92 c-16
-63 -40 -97 -57 -82 -20 16 -18 28 18 108 31 67 33 70 41 46 6 -16 5 -44 -2
-72z m1189 48 c-1 -21 -67 -87 -77 -77 -4 4 2 15 13 24 12 9 24 26 28 36 5 16
4 17 -9 6 -14 -12 -14 -10 -5 15 6 15 13 32 17 38 8 12 33 -21 33 -42z m-1133
-68 c-3 -10 -5 -2 -5 17 0 19 2 27 5 18 2 -10 2 -26 0 -35z m1230 26 c1 -12
17 -37 34 -55 l33 -34 -56 0 c-71 0 -88 7 -88 35 0 51 74 103 77 54z m60 -25
c-7 -7 -47 18 -47 29 0 4 5 5 10 2 6 -3 10 0 10 7 0 7 7 2 16 -10 9 -13 14
-26 11 -28z m-1830 -41 c-2 -16 -4 -5 -4 22 0 28 2 40 4 28 2 -13 2 -35 0 -50z
m249 3 c-9 -26 -16 -60 -16 -76 0 -33 -16 -80 -27 -80 -5 0 -9 18 -9 41 -1 23
2 36 6 29 8 -14 20 10 20 41 0 22 31 102 37 95 2 -2 -3 -25 -11 -50z m513 17
c0 -10 -4 -27 -8 -37 -7 -19 -8 -19 -16 0 -16 37 -13 54 11 54 8 0 14 -8 13
-17z m-48 -29 c5 -15 8 -28 6 -30 -7 -7 -47 38 -42 47 11 17 25 10 36 -17z
m-31 -38 c0 -5 -7 -3 -15 4 -8 7 -15 20 -15 28 0 13 3 12 15 -4 8 -10 15 -23
15 -28z m-591 -69 c-1 -91 -1 -91 -11 -37 -5 30 -7 63 -4 73 2 9 0 17 -5 17
-10 0 -12 33 -3 43 17 17 24 -12 23 -96z m555 77 c5 -14 4 -15 -9 -4 -17 14
-19 20 -6 20 5 0 12 -7 15 -16z m-14 -42 c-15 -5 -41 18 -34 30 3 5 15 1 26
-9 11 -10 15 -19 8 -21z m1138 18 c3 -8 8 -8 17 0 10 8 15 6 20 -10 5 -16 10
-18 20 -10 16 13 37 5 53 -20 11 -18 10 -20 -12 -20 -14 0 -28 5 -31 10 -3 6
-21 10 -38 10 -29 -1 -30 -2 -15 -14 18 -14 14 -26 -9 -26 -7 0 -13 10 -13 23
0 18 -2 19 -10 7 -5 -8 -10 -28 -10 -43 0 -24 -3 -27 -20 -22 -11 3 -20 2 -20
-3 0 -5 9 -12 20 -15 11 -3 20 -12 20 -20 0 -14 -3 -14 -31 0 -19 9 -28 20
-25 29 3 8 -1 14 -8 14 -8 0 -19 13 -26 30 -7 16 -17 28 -24 27 -6 -1 -11 6
-11 16 0 10 -6 22 -14 26 -10 6 -6 11 15 20 35 13 147 7 152 -9z m-1778 -11
c0 -11 -4 -18 -10 -14 -5 3 -7 12 -3 20 7 21 13 19 13 -6z m3973 5 c88 -30
156 -121 165 -219 9 -110 -44 -207 -142 -255 -55 -27 -62 -34 -64 -63 -1 -18
-12 -60 -24 -94 -20 -59 -21 -64 -5 -100 43 -97 37 -177 -15 -236 -16 -17 -28
-39 -28 -49 0 -18 -44 -50 -114 -83 -36 -17 -39 -17 -51 -2 -15 21 -35 22 -35
1 0 -8 -4 -13 -9 -9 -5 3 -12 1 -16 -5 -4 -6 -12 -7 -18 -3 -7 4 -35 6 -63 4
l-52 -3 -12 39 c-7 21 -21 47 -31 59 -11 11 -16 23 -13 27 8 8 15 109 15 222
0 104 -2 128 -11 140 -4 6 -10 23 -14 39 -6 23 -4 27 8 23 11 -4 16 0 17 11 0
10 3 12 6 4 10 -25 23 1 23 46 0 93 70 195 157 228 38 15 43 20 43 49 0 90 77
198 162 228 56 20 66 20 121 1z m-2003 -30 c0 -6 -9 -14 -20 -17 -15 -4 -20 0
-20 13 0 13 7 18 20 17 11 -1 20 -7 20 -13z m-1783 -46 c-3 -7 -5 -2 -5 12 0
14 2 19 5 13 2 -7 2 -19 0 -25z m1703 -9 c0 -6 -4 -7 -10 -4 -5 3 -10 11 -10
16 0 6 5 7 10 4 6 -3 10 -11 10 -16z m-1178 -17 c15 -16 41 -36 59 -44 l31
-16 -41 -4 c-62 -6 -101 14 -101 50 0 50 14 54 52 14z m-725 -14 c-3 -7 -5 -2
-5 12 0 14 2 19 5 13 2 -7 2 -19 0 -25z m152 -30 c1 -10 -3 -18 -9 -18 -5 0
-10 19 -9 43 1 36 2 38 9 17 4 -14 8 -33 9 -42z m1672 18 c-19 -19 -41 -15
-41 7 0 7 13 12 30 12 29 0 29 0 11 -19z m464 -51 l7 -30 -21 30 c-11 17 -21
37 -21 45 0 25 28 -10 35 -45z m-75 -64 c0 -27 -18 3 -24 39 l-6 35 15 -30 c8
-16 14 -37 15 -44z m-1963 12 c-3 -10 -5 -4 -5 12 0 17 2 24 5 18 2 -7 2 -21
0 -30z m-113 -35 c-4 -29 -7 -73 -6 -98 l0 -45 -8 40 c-7 37 6 155 17 155 3 0
2 -24 -3 -52z m57 -5 c2 -23 0 -45 -4 -49 -4 -4 -7 17 -7 46 0 62 7 64 11 3z
m98 -88 c0 -5 -4 -3 -9 5 -5 8 -9 22 -9 30 0 16 17 -16 18 -35z m-294 -4 c0
-22 -4 -43 -8 -47 -4 -4 -7 -2 -7 5 0 7 -4 10 -9 6 -10 -5 1 44 14 65 10 16
11 13 10 -29z m202 7 c-3 -8 -6 -5 -6 6 -1 11 2 17 5 13 3 -3 4 -12 1 -19z
m82 -68 c1 -13 0 -13 -9 0 -5 8 -9 26 -9 40 l1 25 8 -25 c4 -14 8 -32 9 -40z
m-174 13 c-9 -50 -14 -67 -21 -61 -5 6 16 98 23 98 2 0 1 -17 -2 -37z m-148
-25 c-3 -8 -6 -5 -6 6 -1 11 2 17 5 13 3 -3 4 -12 1 -19z m345 -30 c3 -7 1
-24 -3 -38 -6 -23 -7 -23 -8 -3 -1 12 -4 28 -7 37 -3 9 -2 16 4 16 5 0 12 -6
14 -12z m-305 -65 c-3 -10 -5 -4 -5 12 0 17 2 24 5 18 2 -7 2 -21 0 -30z m56
-85 c-2 -13 -8 -32 -13 -43 -5 -11 -11 -27 -13 -35 -3 -9 -6 -5 -6 9 -1 29 20
91 30 91 4 0 5 -10 2 -22z m-67 -44 c-19 -19 -21 -11 -4 16 7 11 14 16 16 10
2 -5 -4 -17 -12 -26z m1648 30 c26 -10 40 -43 25 -60 -19 -23 -39 -16 -55 21
-7 19 -14 37 -14 40 0 7 25 6 44 -1z m1790 -63 c9 -28 16 -68 16 -90 0 -22 5
-41 12 -43 9 -3 9 -12 -2 -38 l-14 -33 -18 43 c-10 23 -19 56 -20 74 -1 36 4
136 7 136 2 0 10 -22 19 -49z m-3427 -8 c-3 -10 -5 -4 -5 12 0 17 2 24 5 18 2
-7 2 -21 0 -30z m3390 5 c-3 -8 -6 -5 -6 6 -1 11 2 17 5 13 3 -3 4 -12 1 -19z
m-3321 -25 c-11 -11 -19 6 -11 24 8 17 8 17 12 0 3 -10 2 -21 -1 -24z m-85
-91 c-9 -26 -9 -26 -10 10 -1 20 -4 45 -7 55 -3 10 2 5 11 -10 12 -21 14 -35
6 -55z m45 69 c-6 -9 -24 -116 -31 -185 -3 -22 -9 -44 -15 -50 -14 -14 -13 7
4 95 8 41 17 91 21 112 3 20 10 37 16 37 6 0 8 -4 5 -9z m69 -181 c-14 -46
-27 -86 -30 -88 -15 -15 -11 12 11 78 14 41 27 81 30 89 2 8 7 12 9 9 3 -2 -6
-42 -20 -88z m2749 55 c11 -8 16 -18 12 -22 -3 -4 -21 8 -39 26 -31 32 -16 30
27 -4z m1588 -122 c44 -43 78 -110 78 -153 0 -17 9 -56 20 -87 11 -31 23 -79
26 -106 4 -30 10 -44 15 -36 4 7 5 35 2 62 -5 40 -3 49 8 45 22 -7 49 -69 49
-114 0 -46 -36 -174 -49 -174 -4 0 -13 -12 -20 -27 -14 -30 -6 -39 42 -50 15
-3 27 -8 27 -12 -1 -14 -27 -39 -59 -55 -36 -19 -101 -15 -101 6 0 16 31 48
47 48 7 0 13 7 13 16 0 12 -7 10 -32 -10 -40 -29 -103 -56 -132 -56 -15 0 -17
3 -8 9 11 7 10 10 -3 15 -26 10 -85 7 -85 -4 0 -5 5 -10 12 -10 6 0 9 -2 6 -5
-10 -11 -37 7 -31 21 3 8 0 14 -7 14 -17 0 -50 39 -50 58 0 11 6 8 20 -8 11
-13 20 -26 20 -29 0 -3 18 -7 39 -9 34 -2 39 0 34 17 -3 10 -17 21 -31 24 -15
3 -59 36 -98 74 -87 84 -104 126 -104 257 0 50 5 108 10 128 23 82 118 171
200 187 66 14 100 5 142 -36z m-4404 -53 c0 -9 -3 -7 -8 5 -5 11 -8 29 -8 40
0 16 2 15 8 -5 4 -14 8 -32 8 -40z m-58 -50 c23 -67 25 -104 5 -120 -13 -10
-15 -9 -15 9 0 11 5 21 12 21 6 0 4 6 -7 13 -13 10 -16 21 -12 39 4 15 0 42
-9 63 -10 24 -11 36 -4 33 6 -2 20 -28 30 -58z m90 30 c0 -11 -4 -20 -10 -20
-5 0 -10 -6 -10 -14 0 -8 -9 -24 -20 -37 -19 -24 -19 -24 0 31 11 30 20 56 20
57 0 2 5 3 10 3 6 0 10 -9 10 -20z m2170 -55 c0 -5 -5 -3 -10 5 -5 8 -10 20
-10 25 0 6 5 3 10 -5 5 -8 10 -19 10 -25z m-576 -24 c13 -20 -8 -40 -54 -51
-26 -6 -56 -11 -67 -9 -10 1 -31 -3 -46 -9 -34 -14 -104 -16 -112 -2 -3 5 -20
7 -38 3 -22 -4 -29 -2 -22 4 16 17 74 31 152 38 39 4 89 13 110 21 45 16 70
17 77 5z m2056 -106 c-9 -11 -9 -15 -1 -15 6 0 11 6 11 13 0 8 4 7 11 -3 8
-12 9 -10 4 8 -7 25 10 31 19 6 16 -42 -4 -71 -39 -58 -19 8 -23 47 -8 84 5
12 7 12 10 -3 3 -10 -1 -24 -7 -32z m-3700 -37 c0 -21 20 -24 38 -6 7 7 12 9
12 6 0 -7 -149 -158 -155 -158 -7 0 26 59 40 70 8 7 15 24 15 39 0 15 5 32 12
39 7 7 9 12 5 12 -4 0 -3 10 4 21 9 17 13 19 20 8 5 -8 9 -22 9 -31z m3763
-30 c-13 -12 -26 -19 -29 -15 -4 4 1 14 12 22 29 22 41 18 17 -7z m-37 -23
c18 -34 42 -50 31 -21 -3 8 3 22 13 31 18 16 19 16 26 -9 3 -14 10 -26 15 -26
12 0 11 17 -1 25 -17 10 -11 25 10 25 10 0 24 -8 29 -18 19 -36 69 -83 74 -70
4 10 8 9 16 -2 10 -13 11 -13 11 0 0 13 1 13 10 0 6 -10 10 -11 10 -2 0 6 5
12 12 12 17 0 -41 -54 -80 -74 -43 -22 -145 -25 -165 -4 -9 8 -22 39 -31 69
-16 54 -16 54 3 29 11 -13 18 -27 16 -31 -3 -3 2 -15 10 -25 15 -18 15 -18 8
1 -6 20 -6 20 16 0 l23 -20 -19 33 c-10 17 -21 32 -25 32 -4 0 -16 18 -27 40
-24 49 -11 53 15 5z m-3869 3 c-3 -8 -6 -5 -6 6 -1 11 2 17 5 13 3 -3 4 -12 1
-19z m3823 -12 c0 -3 -4 -8 -10 -11 -5 -3 -10 -1 -10 4 0 6 5 11 10 11 6 0 10
-2 10 -4z m-3680 -53 c0 -5 -12 -19 -25 -32 -25 -23 -25 -23 -25 -2 0 12 6 21
15 21 8 0 15 5 15 10 0 6 5 10 10 10 6 0 10 -3 10 -7z m28 -91 c8 -45 7 -52
-5 -47 -12 4 -14 -1 -10 -22 4 -16 4 -22 0 -14 -4 11 -7 11 -14 0 -16 -27 -21
1 -9 58 21 104 23 105 38 25z m-168 39 c0 -5 -7 -14 -15 -21 -16 -14 -18 -10
-9 14 6 17 24 22 24 7z m2249 -28 c0 -16 -3 -22 -6 -15 -2 6 -14 12 -24 12
-11 0 -17 5 -14 10 4 6 10 8 15 5 5 -3 11 -1 15 5 10 17 15 11 14 -17z m2075
-79 c3 -8 2 -12 -4 -9 -6 3 -10 10 -10 16 0 14 7 11 14 -7z m-2187 0 c-3 -3
-12 -4 -19 -1 -8 3 -5 6 6 6 11 1 17 -2 13 -5z m-1870 -26 c-3 -8 -6 -5 -6 6
-1 11 2 17 5 13 3 -3 4 -12 1 -19z m4473 -8 c0 -5 -7 -10 -16 -10 -8 0 -12 5
-9 10 3 6 10 10 16 10 5 0 9 -4 9 -10z m-4764 -109 c-19 -19 -20 -9 -3 61 l12
53 3 -49 c2 -34 -1 -54 -12 -65z m212 17 l-1 -83 -7 70 c-6 65 -4 95 6 95 2 0
3 -37 2 -82z m69 50 c-3 -7 -5 -2 -5 12 0 14 2 19 5 13 2 -7 2 -19 0 -25z
m-174 -88 c-6 -31 -7 -32 -14 -11 -6 14 -4 27 4 36 16 18 18 14 10 -25z m34
18 c-3 -8 -6 -5 -6 6 -1 11 2 17 5 13 3 -3 4 -12 1 -19z m4346 5 c-7 -2 -19
-2 -25 0 -7 3 -2 5 12 5 14 0 19 -2 13 -5z m-4516 -50 c-3 -10 -5 -4 -5 12 0
17 2 24 5 18 2 -7 2 -21 0 -30z m112 -57 c-9 -8 -10 -7 -5 7 3 10 7 24 7 30 1
7 3 4 6 -7 3 -10 -1 -23 -8 -30z m38 12 c-3 -7 -5 -2 -5 12 0 14 2 19 5 13 2
-7 2 -19 0 -25z m-297 -14 c0 -8 -7 -14 -15 -14 -10 0 -15 10 -15 26 0 22 2
25 15 14 8 -7 15 -19 15 -26z m393 16 c3 -11 1 -23 -4 -26 -5 -3 -9 6 -9 20 0
31 6 34 13 6z m-382 -101 c-6 -16 -10 -18 -10 -7 -1 22 12 55 16 42 2 -6 -1
-22 -6 -35z m391 -33 c6 4 8 -1 4 -13 -3 -10 -10 -52 -15 -92 -5 -40 -11 -74
-13 -76 -4 -5 -2 207 2 215 2 3 5 -5 7 -18 2 -12 9 -19 15 -16z m-344 -77 c-7
-4 -15 -5 -18 -2 -3 3 0 8 6 10 7 2 10 13 7 23 -3 11 -2 28 3 37 6 14 9 9 12
-21 2 -24 -1 -42 -10 -47z m276 18 c-3 -8 -12 -18 -20 -21 -11 -4 -10 0 3 18
20 26 27 28 17 3z m-52 -60 c-6 -7 -12 -21 -15 -32 -2 -11 -4 6 -4 38 1 56 1
58 14 32 10 -17 11 -30 5 -38z m-35 -29 c-3 -8 -6 -5 -6 6 -1 11 2 17 5 13 3
-3 4 -12 1 -19z m40 -50 c-3 -8 -6 -5 -6 6 -1 11 2 17 5 13 3 -3 4 -12 1 -19z
m-246 -19 c-9 -22 -10 -22 -10 -3 -1 11 2 24 6 27 12 12 14 0 4 -24z m215 -26
c-10 -26 -18 -8 -9 23 5 21 8 24 11 11 2 -10 1 -25 -2 -34z m64 17 c0 -5 -2
-10 -4 -10 -3 0 -8 5 -11 10 -3 6 -1 10 4 10 6 0 11 -4 11 -10z m-597 -30 c-3
-11 -14 -25 -25 -31 -18 -10 -18 -8 3 20 27 37 29 37 22 11z m284 -37 c-3 -10
-5 -2 -5 17 0 19 2 27 5 18 2 -10 2 -26 0 -35z m293 27 c0 -11 -4 -20 -10 -20
-5 0 -10 9 -10 20 0 11 5 20 10 20 6 0 10 -9 10 -20z m-592 -81 c-3 -8 -7 -3
-11 10 -4 17 -3 21 5 13 5 -5 8 -16 6 -23z m652 7 c0 -3 -4 -8 -10 -11 -5 -3
-10 -1 -10 4 0 6 5 11 10 11 6 0 10 -2 10 -4z m-93 -48 c-3 -7 -5 -2 -5 12 0
14 2 19 5 13 2 -7 2 -19 0 -25z m38 -28 c-8 -27 -14 -36 -14 -23 -1 21 19 76
25 70 2 -1 -3 -23 -11 -47z m35 -8 c-5 -15 -18 -52 -30 -82 -12 -30 -26 -70
-31 -87 -14 -47 -20 -41 -17 16 2 34 7 47 16 44 11 -5 17 8 13 30 -1 4 8 25
19 47 11 21 20 46 20 55 0 9 4 14 9 10 6 -3 6 -17 1 -33z m-78 -68 c-7 -13
-10 -6 -10 26 -1 24 2 49 6 54 11 17 14 -62 4 -80z m-545 44 c-3 -8 -6 -5 -6
6 -1 11 2 17 5 13 3 -3 4 -12 1 -19z m880 -20 c-3 -8 -6 -5 -6 6 -1 11 2 17 5
13 3 -3 4 -12 1 -19z m-40 -100 c-3 -7 -5 -2 -5 12 0 14 2 19 5 13 2 -7 2 -19
0 -25z m-900 -40 c-3 -8 -6 -5 -6 6 -1 11 2 17 5 13 3 -3 4 -12 1 -19z m1002
-28 c0 -9 -4 -8 -9 5 -5 11 -9 27 -9 35 0 9 4 8 9 -5 5 -11 9 -27 9 -35z
m-443 -107 c-8 -15 -15 -22 -16 -15 0 17 20 55 27 49 2 -3 -2 -18 -11 -34z
m-46 -41 c0 -15 -2 -15 -10 -2 -13 20 -13 33 0 25 6 -3 10 -14 10 -23z m5 -72
c-4 -23 -9 -39 -12 -36 -3 2 -2 23 2 46 4 23 9 39 12 36 3 -2 2 -23 -2 -46z
m-515 21 c-12 -23 -30 -36 -30 -22 0 10 27 41 36 41 3 0 0 -9 -6 -19z m467
-33 c-3 -8 -6 -5 -6 6 -1 11 2 17 5 13 3 -3 4 -12 1 -19z m-437 -33 c0 -5 -5
-3 -10 5 -5 8 -10 20 -10 25 0 6 5 3 10 -5 5 -8 10 -19 10 -25z m-89 -12 c-8
-15 -10 -15 -11 -2 0 17 10 32 18 25 2 -3 -1 -13 -7 -23z m-24 -25 c-3 -8 -6
-5 -6 6 -1 11 2 17 5 13 3 -3 4 -12 1 -19z m26 -54 l-8 -49 -5 40 c-3 22 -2
46 4 53 14 20 17 9 9 -44z m-43 16 c0 -5 -5 -10 -11 -10 -5 0 -7 5 -4 10 3 6
8 10 11 10 2 0 4 -4 4 -10z m784 -60 c4 -25 3 -31 -4 -20 -5 8 -10 26 -10 39
0 32 6 24 14 -19z m46 -26 c0 -14 -4 -23 -9 -20 -5 3 -7 15 -4 26 7 28 13 25
13 -6z m-787 -86 c-28 -59 -33 -45 -9 28 17 53 22 60 24 38 2 -15 -5 -44 -15
-66z m757 41 c-7 -11 -10 -31 -7 -42 3 -12 2 -42 -3 -67 -7 -40 -8 -36 -9 37
-1 75 2 85 27 92 1 1 -2 -8 -8 -20z m-787 -104 c-3 -9 -8 -14 -10 -11 -3 3 -2
9 2 15 9 16 15 13 8 -4z m-29 -62 c-9 -21 -20 -50 -26 -64 -5 -15 -19 -29 -31
-33 -20 -5 -20 -4 -5 8 10 7 29 38 44 70 28 62 44 78 18 19z m-84 -113 c0 -5
-5 -10 -11 -10 -5 0 -7 5 -4 10 3 6 8 10 11 10 2 0 4 -4 4 -10z m-555 -60 c3
-5 1 -10 -4 -10 -6 0 -11 5 -11 10 0 6 2 10 4 10 3 0 8 -4 11 -10z m405 -295
c-7 -9 -15 -13 -18 -10 -3 2 1 11 8 20 7 9 15 13 18 10 3 -2 -1 -11 -8 -20z
m943 -13 c-3 -12 -10 -22 -15 -22 -5 0 -7 3 -5 8 2 4 7 16 11 26 9 25 17 16 9
-12z m-1136 -88 c0 -17 -56 -126 -57 -110 0 15 45 126 51 126 3 0 6 -7 6 -16z
m48 -43 c3 -5 1 -12 -5 -16 -5 -3 -10 1 -10 9 0 18 6 21 15 7z m8 -231 c-3
-11 -7 -20 -9 -20 -2 0 -4 9 -4 20 0 11 4 20 9 20 5 0 7 -9 4 -20z m-59 -214
c-3 -15 -8 -25 -11 -23 -2 3 -1 17 3 31 3 15 8 25 11 23 2 -3 1 -17 -3 -31z"/>
<path d="M2536 6495 c-3 -9 -6 -22 -5 -28 0 -7 5 -1 10 12 5 13 8 26 5 28 -2
2 -6 -3 -10 -12z"/>
<path d="M2690 6100 c0 -5 5 -10 11 -10 5 0 7 5 4 10 -3 6 -8 10 -11 10 -2 0
-4 -4 -4 -10z"/>
<path d="M3140 5941 c0 -6 5 -13 10 -16 6 -3 10 1 10 9 0 9 -4 16 -10 16 -5 0
-10 -4 -10 -9z"/>
<path d="M3406 4734 c-5 -14 -4 -15 9 -4 17 14 19 20 6 20 -5 0 -12 -7 -15
-16z"/>
<path d="M3346 4551 c-4 -7 -5 -15 -2 -18 9 -9 19 4 14 18 -4 11 -6 11 -12 0z"/>
<path d="M2736 4173 c-10 -10 25 -43 47 -43 16 0 17 2 7 16 -18 20 -46 35 -54
27z"/>
<path d="M3500 3961 c0 -21 25 -46 38 -37 4 2 16 -11 27 -30 10 -19 22 -34 27
-34 5 0 18 -9 30 -20 21 -20 38 -18 38 3 0 7 -14 28 -32 47 -18 19 -31 39 -30
44 2 5 -6 6 -18 3 -13 -3 -26 3 -39 19 -23 29 -41 31 -41 5z"/>
<path d="M3681 3884 c0 -11 3 -14 6 -6 3 7 2 16 -1 19 -3 4 -6 -2 -5 -13z"/>
<path d="M4872 5100 c0 -14 2 -19 5 -12 2 6 2 18 0 25 -3 6 -5 1 -5 -13z"/>
<path d="M4960 5089 c0 -5 5 -7 10 -4 6 3 10 8 10 11 0 2 -4 4 -10 4 -5 0 -10
-5 -10 -11z"/>
<path d="M2031 5034 c0 -11 3 -14 6 -6 3 7 2 16 -1 19 -3 4 -6 -2 -5 -13z"/>
<path d="M6057 3625 c-18 -67 -18 -70 -2 -42 9 16 15 38 13 50 -3 19 -5 18
-11 -8z"/>
<path d="M1325 3704 c-4 -16 -8 -35 -11 -41 -5 -19 6 -43 21 -43 7 0 16 -6 18
-12 3 -7 6 1 6 19 1 17 -4 35 -10 39 -6 3 -9 14 -6 24 2 10 1 24 -4 31 -5 9
-10 4 -14 -17z"/>
<path d="M1301 3272 c-13 -25 -14 -45 -2 -38 5 4 11 0 14 -6 2 -7 8 0 12 15
10 36 -8 58 -24 29z"/>
<path d="M1276 3193 c-6 -14 -5 -15 5 -6 7 7 10 15 7 18 -3 3 -9 -2 -12 -12z"/>
</g>
</svg>
