<?xml version="1.0" standalone="no"?>
<!DOCTYPE svg PUBLIC "-//W3C//DTD SVG 20010904//EN"
 "http://www.w3.org/TR/2001/REC-SVG-20010904/DTD/svg10.dtd">
<svg version="1.0" xmlns="http://www.w3.org/2000/svg"
 width="640.000000pt" height="800.000000pt" viewBox="0 0 640.000000 800.000000"
 preserveAspectRatio="xMidYMid meet">

<g transform="translate(0.000000,800.000000) scale(0.100000,-0.100000)"
fill="#000000" stroke="none">
<path d="M2610 7600 c-16 -6 -2 -7 37 -3 66 6 181 -11 208 -31 14 -10 3 -11
-52 -9 -67 4 -68 3 -35 -11 40 -19 40 -23 2 -23 -16 0 -30 4 -30 9 0 5 -36 7
-79 6 -44 -1 -78 -5 -76 -9 3 -3 -28 -6 -68 -6 -57 1 -90 -6 -162 -32 -49 -18
-98 -33 -108 -33 -9 1 -15 -3 -12 -8 3 -5 -11 -16 -31 -25 -63 -26 -166 -105
-249 -190 l-80 -82 -45 13 c-78 21 -175 -4 -207 -53 -15 -22 -16 -35 -8 -133
1 -25 3 -66 4 -92 1 -36 5 -48 16 -48 8 0 15 -9 15 -21 0 -13 4 -18 12 -13 7
5 8 3 4 -5 -5 -7 -14 -10 -22 -7 -8 3 -21 -7 -31 -24 -9 -17 -23 -29 -30 -27
-6 1 -19 -7 -27 -18 -14 -19 -15 -17 -16 27 0 26 -4 50 -10 53 -5 3 -10 16
-10 27 0 20 -1 20 -18 5 -10 -10 -24 -17 -30 -17 -30 0 -140 -129 -134 -157 4
-17 -15 -17 -20 -1 -9 27 -105 -76 -136 -145 -14 -33 -16 -48 -2 -27 9 13 10
13 9 0 0 -8 -6 -37 -13 -65 l-14 -50 -11 28 c-19 50 -7 110 34 171 33 49 32
56 -4 16 -51 -59 -68 -165 -33 -211 10 -13 29 -51 42 -84 26 -65 59 -126 73
-136 5 -3 0 -21 -11 -39 -16 -26 -21 -29 -24 -14 -2 12 -8 3 -18 -26 -8 -25
-20 -49 -27 -53 -14 -9 -18 -47 -5 -47 4 0 14 6 21 13 11 10 12 8 8 -8 -3 -11
-9 -46 -13 -77 -6 -56 -7 -58 -33 -53 -23 5 -23 4 4 -6 49 -19 82 -47 87 -73
4 -20 0 -25 -22 -29 -39 -8 -110 11 -147 39 -17 13 -36 24 -42 24 -6 0 -11 4
-11 9 0 5 -5 22 -12 38 -6 15 -10 34 -9 41 1 6 -5 12 -12 12 -16 0 -26 19 -28
53 -1 12 -5 0 -9 -28 -5 -35 -3 -58 6 -75 7 -14 20 -42 29 -62 10 -23 22 -35
29 -31 6 3 8 2 3 -2 -10 -12 23 -45 45 -45 10 0 33 -7 50 -16 18 -9 49 -17 69
-17 21 0 35 -5 32 -10 -6 -9 2 -8 65 9 34 10 26 -13 -9 -25 -47 -16 -71 -14
-144 14 -73 27 -87 24 -23 -5 24 -11 35 -20 25 -20 -12 0 -16 -4 -11 -12 4 -7
-1 -5 -12 4 -10 9 -23 18 -29 19 -19 4 -55 22 -55 28 0 3 -9 17 -19 30 -16 20
-19 21 -24 7 -5 -12 4 -28 26 -49 19 -18 33 -39 32 -47 -1 -8 -3 -21 -3 -29
-2 -11 -5 -11 -17 -1 -9 7 -19 10 -23 6 -4 -4 4 -16 18 -26 20 -16 22 -20 8
-20 -52 0 18 -41 95 -55 21 -4 39 -11 42 -15 6 -10 179 -2 211 10 33 13 34 13
34 -3 0 -16 -37 -51 -64 -61 -10 -3 -16 -9 -13 -13 4 -3 20 0 36 7 16 6 40 9
52 5 l23 -8 -27 -23 c-36 -31 -113 -39 -207 -20 -41 8 -76 14 -77 13 -5 -6 16
-25 51 -45 49 -29 108 -54 102 -43 -3 5 20 11 52 14 31 3 68 9 82 12 19 5 22
4 10 -4 -8 -6 -10 -11 -5 -11 6 0 16 5 23 12 9 9 19 5 42 -17 17 -17 28 -35
25 -44 -4 -11 -3 -12 10 -1 25 21 61 3 91 -44 19 -30 31 -41 36 -33 6 9 12 7
23 -7 8 -10 16 -23 18 -29 1 -5 17 -11 35 -12 72 -4 72 -4 72 -32 0 -37 -14
-57 -33 -50 -11 4 -14 1 -10 -9 3 -9 -1 -14 -12 -14 -14 0 -15 -3 -6 -14 10
-12 6 -16 -21 -25 -18 -5 -42 -12 -53 -14 -11 -3 -4 -3 16 -2 20 1 60 14 89
28 30 15 55 25 57 24 1 -2 7 -34 13 -72 6 -39 17 -92 25 -120 8 -27 20 -69 25
-93 12 -49 43 -73 103 -82 l40 -5 42 -120 c86 -246 134 -336 243 -451 l39 -41
6 -114 c7 -128 3 -159 -23 -159 -10 0 -20 -6 -23 -12 -3 -10 -7 -10 -19 0 -23
19 -62 5 -98 -34 -35 -39 -57 -92 -65 -161 -3 -25 -8 -49 -11 -54 -3 -5 1 -12
9 -15 8 -3 18 -25 21 -49 7 -44 38 -85 51 -66 11 19 35 12 36 -11 0 -13 3 -17
6 -11 3 10 10 9 28 -3 20 -13 24 -13 38 1 9 8 24 15 35 15 24 0 52 31 52 58 0
12 11 29 25 38 14 9 32 29 40 43 8 15 14 20 15 11 0 -9 9 -2 20 15 14 21 20
25 20 13 0 -21 35 -25 44 -5 5 9 7 9 12 -1 3 -6 10 -10 14 -7 11 7 90 -41 90
-54 0 -5 10 -11 23 -15 13 -3 37 -17 53 -31 16 -14 34 -30 41 -35 23 -19 376
5 419 28 27 15 55 24 83 28 13 2 27 7 30 11 24 32 110 71 112 50 0 -7 4 -2 9
11 5 12 16 22 24 22 9 0 22 13 31 29 8 16 24 32 35 36 11 3 25 15 30 26 6 10
16 19 23 19 7 0 22 16 35 36 14 21 29 34 37 30 7 -2 19 2 25 10 14 16 45 20
35 4 -3 -6 -1 -10 4 -10 6 0 11 5 11 10 0 6 9 10 20 10 11 0 20 -4 20 -10 0
-5 9 -10 20 -10 11 0 20 -4 20 -10 0 -5 10 -18 22 -30 13 -12 17 -20 9 -20
-10 0 -11 -3 -2 -14 7 -9 8 -17 2 -20 -13 -8 -24 -80 -16 -106 3 -11 13 -20
20 -20 9 0 22 -27 36 -75 12 -41 26 -72 30 -69 5 3 9 -9 9 -25 0 -17 5 -31 10
-31 6 0 10 -10 10 -21 0 -21 1 -21 20 4 11 14 20 32 20 41 0 9 4 16 10 16 5 0
12 11 16 25 6 25 28 33 39 15 4 -6 14 -9 23 -8 10 2 16 -3 14 -11 -5 -25 21
-30 47 -10 23 18 27 19 37 5 10 -14 14 -14 44 0 18 9 54 17 81 18 27 1 52 5
55 9 12 12 -68 90 -143 141 -110 74 -164 136 -203 236 -34 85 -34 86 -38 281
l-4 196 30 59 c67 135 90 236 98 429 7 160 7 161 36 141 14 -10 44 -16 76 -16
50 0 58 3 92 38 31 30 39 48 44 87 4 28 15 88 26 135 11 47 20 115 20 151 0
67 22 173 41 196 6 7 27 15 48 19 20 4 57 17 84 31 49 24 64 39 24 24 -14 -6
-26 -4 -33 3 -19 21 73 90 139 105 46 10 62 19 86 50 21 26 26 38 16 38 -8 0
-15 -5 -15 -10 0 -14 -49 -57 -65 -57 -7 0 -20 -3 -28 -6 -10 -4 -15 2 -14 20
0 21 5 27 33 32 19 3 34 10 34 15 0 5 -12 7 -27 4 -27 -6 -27 -6 -9 9 18 15
18 16 2 16 -13 0 -16 5 -10 23 9 30 4 27 70 40 6 2 22 10 34 18 20 13 21 18
11 37 -15 28 -46 35 -99 24 -38 -9 -44 -8 -57 11 -8 12 -15 29 -15 39 0 10 -4
18 -10 18 -21 0 -9 46 20 77 17 18 30 36 30 41 0 4 14 21 31 38 30 28 75 102
71 116 -1 4 7 12 18 18 11 6 20 18 20 27 0 8 18 42 39 74 22 33 35 59 30 59
-5 0 -9 -3 -9 -7 0 -5 -19 -29 -43 -55 -23 -25 -62 -73 -87 -105 l-45 -58 -6
35 c-3 19 -14 49 -23 65 -9 17 -16 34 -16 38 0 5 -8 21 -18 35 -11 15 -31 68
-47 117 -15 50 -36 107 -46 127 -26 51 -24 54 16 24 42 -32 46 -25 8 10 l-28
25 30 -14 c47 -23 124 -96 145 -138 22 -42 25 -53 11 -45 -5 4 -4 -5 2 -19 16
-33 41 -43 32 -12 -29 101 -96 178 -210 243 -38 22 -72 51 -94 81 -19 27 -70
80 -113 118 -43 39 -102 93 -131 120 -28 28 -67 61 -85 74 -20 14 -31 29 -28
37 3 8 -1 14 -10 14 -9 0 -42 26 -74 58 -37 37 -76 65 -107 77 -26 10 -50 21
-53 25 -8 13 -119 70 -135 70 -7 0 -17 5 -21 11 -4 8 1 9 16 4 20 -6 21 -5 9
8 -9 10 -21 12 -35 7 -19 -8 -91 12 -140 38 -11 6 -35 10 -52 10 -18 -1 -35 2
-39 5 -3 4 5 7 18 7 13 0 30 4 37 8 7 5 -45 8 -115 7 -86 -1 -136 3 -153 12
-14 7 -41 13 -60 15 -19 1 -41 9 -48 18 -11 13 -11 13 -6 -2 3 -10 1 -18 -5
-18 -6 0 -11 4 -11 10 0 28 -139 64 -171 44 -6 -3 -26 2 -47 12 -84 40 -225
56 -292 34z m390 -100 c8 -5 12 -11 9 -14 -3 -3 -14 1 -25 9 -21 16 -8 20 16
5z m-535 -22 c-27 -5 -54 -13 -59 -19 -6 -5 -18 -9 -29 -9 -10 0 -16 -4 -13
-9 9 -13 -30 -56 -50 -56 -10 0 -23 -9 -29 -21 -5 -11 -15 -19 -22 -17 -15 5
-73 -24 -73 -37 0 -10 -39 -25 -57 -22 -6 2 -17 -6 -25 -16 -7 -10 -27 -28
-45 -40 -24 -17 -31 -28 -27 -47 3 -17 0 -25 -9 -25 -8 0 -22 -9 -33 -21 -10
-11 -27 -25 -37 -30 -22 -12 -46 -1 -26 12 10 6 8 9 -9 9 -20 0 -21 3 -12 21
22 40 146 157 215 202 73 47 174 97 209 102 12 2 44 10 71 18 28 9 64 15 80
15 20 0 13 -3 -20 -10z m103 5 c-10 -2 -26 -2 -35 0 -10 3 -2 5 17 5 19 0 27
-2 18 -5z m-121 -39 c-3 -3 -12 -4 -19 -1 -8 3 -5 6 6 6 11 1 17 -2 13 -5z
m-43 -35 c-3 -5 -10 -7 -15 -3 -5 3 -7 10 -3 15 3 5 10 7 15 3 5 -3 7 -10 3
-15z m-332 -211 c-6 -6 -15 -8 -19 -4 -4 4 -1 11 7 16 19 12 27 3 12 -12z
m-214 -63 c12 -10 5 -12 -40 -11 -61 2 -118 -21 -158 -64 l-26 -28 4 27 c6 40
33 70 77 86 45 17 122 11 143 -10z m-54 -31 c9 -3 16 -12 16 -20 0 -7 -6 -11
-14 -8 -8 3 -23 1 -33 -5 -10 -6 -12 -11 -5 -11 6 0 12 -10 11 -22 0 -13 -3
-18 -5 -12 -3 6 -18 10 -34 8 -21 -3 -30 1 -30 11 0 8 -5 15 -12 15 -6 0 -3 7
8 15 10 8 29 15 42 15 12 0 22 5 22 10 0 11 11 13 34 4z m-117 -80 c-3 -3 -12
-4 -19 -1 -8 3 -5 6 6 6 11 1 17 -2 13 -5z m48 -14 c18 -8 17 -9 -7 -9 -16 -1
-28 4 -28 9 0 12 8 12 35 0z m-74 -70 c6 0 8 4 5 8 -3 5 8 6 25 4 34 -5 40
-34 12 -64 -20 -23 -33 -23 -34 0 0 14 -2 14 -8 -3 -8 -19 -8 -19 -19 2 -14
25 -16 66 -4 77 4 4 8 1 10 -8 2 -9 8 -16 13 -16z m-144 -194 c-9 -24 -25 -19
-22 7 6 51 6 52 17 30 6 -12 8 -29 5 -37z m-37 34 c0 -5 -4 -10 -9 -10 -5 0
-14 -13 -20 -30 -5 -16 -15 -30 -20 -30 -6 0 -11 -6 -11 -14 0 -7 -7 -20 -17
-27 -15 -13 -16 -11 -9 16 10 41 53 105 71 105 8 0 15 -4 15 -10z m-16 -97
c-19 -74 -41 -116 -55 -107 -16 9 -10 42 11 57 11 8 17 16 14 20 -3 3 -2 12 2
19 5 7 9 15 9 18 0 3 6 20 14 38 22 53 25 29 5 -45z m47 -16 c-14 -15 -21 -17
-21 -8 0 21 33 56 38 41 3 -7 -5 -22 -17 -33z m-201 -30 c0 -2 -15 -14 -32
-27 l-33 -23 24 26 c21 23 41 35 41 24z m40 -50 c0 -31 -36 -90 -69 -113 -20
-14 -21 -14 -21 18 0 18 7 42 15 52 8 11 15 27 15 35 0 8 10 25 23 37 25 24
37 15 37 -29z m-89 -29 c-20 -40 -51 -85 -51 -75 0 29 46 102 66 107 1 0 -6
-15 -15 -32z m114 -48 c-5 -8 -11 -8 -17 -2 -6 6 -7 16 -3 22 5 8 11 8 17 2 6
-6 7 -16 3 -22z m-138 -52 c-3 -7 -5 -2 -5 12 0 14 2 19 5 13 2 -7 2 -19 0
-25z m63 -13 c0 -8 -4 -15 -10 -15 -5 0 -7 7 -4 15 4 8 8 15 10 15 2 0 4 -7 4
-15z m1620 -21 c0 -4 -8 -12 -17 -19 -15 -11 -15 -14 5 -35 12 -13 22 -27 22
-32 0 -4 7 -8 15 -8 9 0 12 -6 8 -16 -5 -14 -3 -14 15 -3 15 10 18 16 9 21 -7
4 3 7 23 7 19 0 30 -3 23 -5 -21 -9 -2 -34 26 -34 15 0 35 -6 46 -14 11 -7 31
-16 45 -19 15 -4 38 -25 55 -51 17 -25 34 -46 38 -46 4 0 12 -13 18 -28 5 -16
27 -43 49 -61 22 -18 40 -39 40 -46 0 -7 14 -18 30 -25 17 -7 30 -19 30 -27 0
-7 19 -22 43 -33 59 -27 87 -53 81 -77 -3 -11 1 -27 10 -36 17 -16 5 -34 -14
-22 -9 6 -14 -7 -11 -31 2 -15 -72 -38 -99 -31 -26 7 -52 -1 -44 -14 3 -5 -8
-6 -25 -3 -30 6 -78 -19 -109 -56 -11 -13 -11 -13 -6 3 9 24 -8 21 -24 -4 -13
-20 -14 -20 -27 -2 -13 17 -14 16 -24 -10 -6 -16 -11 -34 -11 -42 0 -8 -4 -17
-10 -20 -5 -3 -10 2 -10 11 0 16 -1 16 -14 -1 -8 -11 -12 -23 -9 -28 3 -4 2
-15 -1 -24 -6 -14 -8 -14 -21 3 -8 11 -15 14 -15 7 0 -7 -9 -13 -19 -13 -24 0
-36 -16 -20 -26 8 -4 7 -9 -2 -15 -11 -8 -11 -12 4 -23 9 -7 17 -20 17 -28 0
-9 9 -18 19 -21 11 -3 22 -17 26 -36 7 -33 22 -41 31 -16 4 8 12 15 20 15 8 0
14 6 14 13 0 8 6 14 14 14 11 0 13 -8 9 -27 -4 -25 -3 -27 19 -23 15 3 31 -2
41 -12 10 -9 17 -14 17 -11 0 3 15 -1 33 -8 17 -8 50 -16 72 -20 l40 -6 -39
19 c-45 22 -39 28 27 26 42 -2 83 -15 45 -15 -9 0 -18 -6 -21 -14 -8 -19 92
-33 104 -14 5 7 9 9 9 5 0 -5 5 -5 12 -1 7 4 24 9 37 10 14 2 35 8 46 13 44
22 132 41 188 41 48 0 58 3 53 15 -9 23 39 23 63 0 12 -11 12 -21 1 -59 -8
-31 -9 -50 -3 -58 13 -17 33 -99 33 -138 0 -18 4 -29 10 -25 14 9 6 -111 -9
-129 -7 -9 -11 -21 -9 -28 3 -7 -4 -21 -13 -32 -10 -11 -31 -51 -46 -90 -15
-39 -30 -75 -34 -81 -3 -5 -9 -27 -13 -47 -4 -21 -11 -38 -16 -38 -15 0 -12
-22 5 -34 12 -9 14 -20 7 -56 -5 -25 -5 -60 0 -78 5 -20 5 -40 -2 -51 -5 -11
-10 -28 -10 -39 0 -11 -9 -31 -20 -45 -11 -14 -20 -32 -20 -41 0 -9 -22 -40
-50 -69 -27 -29 -50 -58 -50 -64 0 -7 -4 -13 -9 -13 -13 0 -22 -27 -31 -90
-11 -80 -47 -172 -66 -172 -19 0 -34 -22 -34 -50 0 -16 -4 -27 -9 -23 -11 6
-25 -13 -26 -35 0 -8 -10 -16 -22 -18 -13 -2 -23 -9 -23 -15 0 -18 -78 -89
-135 -124 -27 -17 -68 -34 -90 -37 -22 -3 -62 -11 -89 -17 -29 -7 -84 -9 -135
-6 -79 6 -88 9 -108 34 -13 15 -23 23 -23 16 0 -17 -31 -4 -48 19 -7 10 -17
18 -22 18 -12 0 -105 93 -102 103 1 4 -6 10 -15 14 -27 10 -103 99 -103 121 0
5 -9 21 -21 36 -11 14 -17 26 -12 26 4 1 -4 8 -19 16 -16 8 -28 19 -28 25 0 6
-7 9 -15 5 -8 -3 -15 0 -15 7 0 7 -21 22 -48 35 -52 25 -119 104 -129 153 -3
16 -10 32 -14 35 -5 3 -9 14 -9 25 0 10 -4 19 -9 19 -5 0 -15 26 -21 58 -7 31
-15 62 -19 67 -4 6 -13 37 -20 70 -7 33 -19 79 -27 103 -7 24 -10 50 -7 58 3
8 -2 23 -11 33 -9 10 -13 21 -9 24 11 11 -30 37 -43 26 -7 -6 -9 3 -8 27 2 21
-5 50 -16 72 -21 38 -26 73 -13 86 4 4 8 13 9 19 3 53 19 121 32 134 13 13 13
16 1 24 -8 5 -9 9 -3 9 6 0 16 12 23 26 11 24 16 26 53 21 34 -5 44 -1 64 18
19 19 37 25 81 27 49 3 60 7 68 26 5 12 28 29 51 38 44 17 64 52 64 112 0 40
15 41 68 2 39 -28 53 -49 35 -51 -26 -2 -53 -10 -83 -24 -38 -17 -34 -17 75 6
33 7 61 13 63 15 2 1 -1 12 -8 23 -16 30 3 26 26 -6 13 -18 20 -42 19 -68 -1
-23 4 -46 13 -54 10 -11 13 -29 9 -66 -6 -56 7 -96 18 -60 4 11 13 32 21 48 8
15 12 27 9 27 -3 0 -1 9 5 20 6 11 11 50 12 87 1 60 -3 76 -34 132 -19 34 -38
62 -42 61 -4 -1 -18 10 -31 24 -13 14 -29 26 -35 26 -5 0 -10 5 -10 11 0 5 -5
7 -10 4 -6 -3 -13 1 -16 9 -3 9 -13 16 -22 16 -8 0 -23 7 -33 16 -10 9 -59 22
-117 31 l-100 16 -5 36 c-5 41 0 52 13 31 7 -11 10 -9 10 12 0 36 51 93 68 76
9 -9 12 -7 12 10 0 13 7 25 15 28 10 4 13 13 10 25 -4 11 -2 19 5 19 6 0 8 -4
5 -10 -16 -26 6 -5 38 35 35 46 103 99 110 87 2 -4 2 -1 1 6 -2 7 6 17 19 22
12 5 16 9 9 9 -8 1 4 34 33 89 24 48 46 101 49 117 2 17 7 38 11 48 4 9 5 26
2 37 -4 15 0 20 15 20 12 0 17 -4 12 -12 -5 -10 -3 -10 7 0 12 11 12 14 -1 23
-13 10 -13 10 0 6 8 -3 23 -8 33 -12 12 -5 17 -2 18 11 0 16 2 15 9 -3 7 -16
14 -21 27 -16 10 4 12 8 5 11 -19 6 -14 60 6 71 20 12 32 14 32 5z m50 -44 c0
-7 -31 -24 -34 -18 -1 2 -7 10 -14 19 -10 13 -8 15 18 11 17 -2 30 -8 30 -12z
m-1719 -72 c11 -21 11 -22 -4 -9 -10 7 -17 17 -17 22 0 15 9 10 21 -13z m3409
-37 c0 -9 7 -29 15 -44 8 -15 10 -25 4 -21 -6 3 -17 -2 -25 -12 -9 -11 -13
-14 -10 -7 4 6 2 14 -4 18 -5 3 -10 15 -10 26 0 13 4 18 12 13 8 -5 9 -2 3 12
-4 10 -10 30 -12 44 -4 24 -4 24 11 6 9 -11 16 -27 16 -35z m-3350 9 c0 -5 -2
-10 -4 -10 -3 0 -8 5 -11 10 -3 6 -1 10 4 10 6 0 11 -4 11 -10z m1367 -72 c-3
-7 -5 -2 -5 12 0 14 2 19 5 13 2 -7 2 -19 0 -25z m-1388 -15 c1 -1 0 -7 -4
-13 -5 -8 -11 -5 -21 7 -19 25 -17 38 4 22 9 -7 19 -14 21 -16z m1382 -54 c-5
-13 -10 -19 -10 -12 -1 15 10 45 15 40 3 -2 0 -15 -5 -28z m1989 16 c0 -2 -11
-10 -25 -19 -24 -16 -25 -15 -25 3 0 13 7 19 25 19 14 0 25 -2 25 -3z m-3335
-57 c-7 -23 -7 -23 9 -3 28 36 18 -6 -11 -44 -39 -52 -63 -66 -63 -35 0 8 5
12 10 9 6 -3 10 -4 10 -1 0 2 3 13 6 23 5 15 4 15 -5 3 -9 -13 -11 -13 -11 3
0 9 5 17 10 17 6 0 10 8 10 18 0 22 8 32 27 32 10 0 12 -7 8 -22z m1251 -90
c4 -7 3 -8 -4 -4 -7 4 -12 2 -12 -5 0 -7 -3 -10 -6 -6 -6 5 3 27 11 27 2 0 7
-5 11 -12z m-1256 -38 c0 -5 -10 -20 -22 -32 -12 -12 -23 -29 -24 -36 -7 -43
-28 -23 -27 24 1 41 10 54 23 34 7 -11 10 -12 10 -2 0 7 5 10 10 7 6 -3 10 -1
10 4 0 6 5 11 10 11 6 0 10 -4 10 -10z m46 -57 c-10 -10 -19 5 -10 18 6 11 8
11 12 0 2 -7 1 -15 -2 -18z m3162 18 c10 -6 10 -11 -3 -21 -14 -12 -18 -11
-26 1 -17 28 -1 40 29 20z m232 -61 c0 -5 -5 -10 -11 -10 -5 0 -7 5 -4 10 3 6
8 10 11 10 2 0 4 -4 4 -10z m-135 -110 c-3 -5 -12 -10 -20 -10 -8 0 -17 5 -20
10 -4 6 5 10 20 10 15 0 24 -4 20 -10z m-30 -50 c-3 -5 -12 -10 -18 -10 -7 0
-6 4 3 10 19 12 23 12 15 0z m-98 -26 c-3 -3 -12 -4 -19 -1 -8 3 -5 6 6 6 11
1 17 -2 13 -5z m-3212 -43 c-13 -11 -133 -23 -139 -13 -3 4 25 9 62 10 36 2
68 5 71 7 2 3 7 5 10 5 3 0 1 -4 -4 -9z m2375 -11 c-13 -8 -12 -10 2 -10 9 0
20 5 23 10 10 17 25 11 18 -7 -5 -13 -2 -15 11 -10 10 4 15 3 11 -3 -3 -5 3
-15 15 -22 11 -7 20 -16 20 -19 0 -12 -41 -18 -68 -9 -15 4 -73 14 -129 21
-57 7 -103 15 -103 19 0 11 73 30 137 36 32 3 60 8 62 10 2 2 7 2 10 -2 3 -3
-1 -9 -9 -14z m-2575 -11 c0 -8 8 -13 20 -11 11 2 17 1 13 -4 -11 -11 43 -36
67 -30 11 2 29 0 40 -5 14 -6 1 -8 -40 -5 -74 4 -142 31 -126 50 6 7 7 16 3
21 -4 4 0 6 8 3 8 -3 15 -11 15 -19z m3405 7 c0 -3 -4 -8 -10 -11 -5 -3 -10
-1 -10 4 0 6 5 11 10 11 6 0 10 -2 10 -4z m0 -60 c0 -3 -4 -8 -10 -11 -5 -3
-10 -1 -10 4 0 6 5 11 10 11 6 0 10 -2 10 -4z m-1147 -63 c-4 -30 1 -46 21
-76 l27 -39 -53 6 c-29 4 -72 7 -95 7 -32 0 -43 4 -43 16 0 9 6 13 14 10 8 -3
16 2 19 12 4 15 100 101 112 101 2 0 1 -17 -2 -37z m107 -3 c0 -5 -4 -10 -10
-10 -5 0 -10 5 -10 10 0 6 5 10 10 10 6 0 10 -4 10 -10z m-1112 -6 c-10 -9
-107 -42 -112 -37 -3 3 -1 14 5 24 8 15 20 19 60 18 27 -1 48 -3 47 -5z m1258
-30 c3 -13 10 -21 15 -18 5 3 9 3 9 -1 0 -11 -66 -45 -88 -45 -13 0 -22 3 -20
8 13 26 27 59 32 74 7 24 45 11 52 -18z m-2181 -4 c-3 -5 -11 -10 -16 -10 -6
0 -7 5 -4 10 3 6 11 10 16 10 6 0 7 -4 4 -10z m765 -5 c0 -8 -4 -15 -10 -15
-5 0 -7 7 -4 15 4 8 8 15 10 15 2 0 4 -7 4 -15z m-700 -5 c0 -5 -5 -10 -11
-10 -5 0 -7 5 -4 10 3 6 8 10 11 10 2 0 4 -4 4 -10z m67 -57 c4 -9 2 -18 -5
-21 -6 -2 -8 -10 -5 -18 7 -18 -2 -18 -21 1 -13 13 -13 20 -3 35 15 24 26 25
34 3z m893 7 c0 -5 -4 -10 -10 -10 -5 0 -10 5 -10 10 0 6 5 10 10 10 6 0 10
-4 10 -10z m-110 -41 c0 -9 9 -28 20 -42 l20 -25 -24 -6 c-12 -3 -43 1 -67 8
-24 8 -36 14 -27 15 14 1 16 7 12 29 -4 22 0 30 23 44 29 17 43 10 43 -23z
m-885 21 c-25 -40 -152 -55 -216 -26 -20 9 -24 13 -10 10 42 -11 150 -4 184
10 39 18 50 19 42 6z m2015 0 c8 -5 11 -12 8 -16 -4 -3 -14 1 -23 10 -18 17
-9 21 15 6z m794 -229 c3 -4 -1 -17 -9 -27 -16 -21 -20 -38 -6 -30 5 3 11 -10
13 -30 4 -32 1 -37 -30 -50 -30 -12 -33 -17 -27 -41 18 -72 72 -72 90 0 5 18
3 27 -5 27 -6 0 -8 -4 -5 -10 3 -5 -1 -10 -11 -10 -13 0 -14 -3 -5 -13 13 -16
5 -27 -20 -27 -20 0 -30 31 -15 46 7 6 24 14 39 18 23 5 29 3 36 -16 5 -14 5
-28 -1 -35 -5 -7 -7 -17 -4 -22 4 -5 1 -13 -5 -17 -8 -4 -9 -3 -5 4 4 7 2 12
-3 12 -6 0 -11 -4 -11 -10 0 -5 -6 -10 -14 -10 -8 0 -28 -8 -45 -17 -36 -21
-58 -12 -79 29 -12 26 -8 48 17 88 6 8 12 31 15 50 8 49 42 100 65 100 11 0
22 -4 25 -9z m-384 -1431 c0 -5 -2 -10 -4 -10 -3 0 -8 5 -11 10 -3 6 -1 10 4
10 6 0 11 -4 11 -10z"/>
<path d="M1989 7183 c-13 -17 -13 -17 6 -3 11 8 22 16 24 17 2 2 0 3 -6 3 -6
0 -17 -8 -24 -17z"/>
<path d="M1736 7071 c-4 -7 -5 -15 -2 -18 9 -9 19 4 14 18 -4 11 -6 11 -12 0z"/>
<path d="M2675 6050 c-3 -5 -2 -10 4 -10 5 0 13 5 16 10 3 6 2 10 -4 10 -5 0
-13 -4 -16 -10z"/>
<path d="M3270 5324 c0 -8 8 -14 18 -14 14 0 15 -2 2 -10 -12 -7 -7 -12 22
-25 46 -18 45 -18 45 0 0 8 -6 15 -13 15 -6 0 -14 8 -17 19 -5 22 -57 35 -57
15z"/>
<path d="M2425 5257 c-4 -10 -5 -21 -1 -24 10 -10 18 4 13 24 -4 17 -4 17 -12
0z"/>
<path d="M2435 5180 c3 -5 10 -10 16 -10 5 0 9 5 9 10 0 6 -7 10 -16 10 -8 0
-12 -4 -9 -10z"/>
<path d="M2800 5130 c0 -5 -6 -9 -12 -7 -7 1 -13 -7 -13 -17 0 -11 -6 -21 -13
-24 -6 -2 -12 -13 -12 -25 0 -12 -9 -28 -20 -35 -11 -7 -20 -17 -20 -23 0 -5
4 -7 10 -4 6 3 9 -4 8 -19 -1 -13 -5 -23 -9 -21 -5 4 -15 -23 -55 -154 -27
-87 -13 -135 46 -166 17 -9 33 -27 36 -41 4 -14 11 -23 18 -21 6 3 10 10 8 17
-2 7 3 10 11 7 7 -3 31 -1 53 3 132 29 169 40 204 65 36 25 46 27 94 21 62 -7
88 1 134 41 28 24 33 36 38 88 5 52 3 64 -18 95 -23 34 -88 78 -117 79 -8 1
-26 11 -39 24 l-24 22 7 -35 c5 -19 8 -42 8 -50 0 -36 18 -39 46 -8 l28 31 36
-38 c21 -22 37 -42 38 -45 0 -3 1 -28 2 -57 2 -61 0 -62 -110 -72 -58 -5 -69
-4 -60 7 8 11 5 12 -18 6 -32 -8 -65 -33 -65 -50 0 -16 -46 -34 -83 -33 -29 0
-84 17 -63 18 5 1 -3 10 -18 22 -14 11 -23 25 -20 30 3 6 -1 16 -10 22 -14 10
-15 17 -5 46 8 21 8 35 2 40 -6 3 -9 17 -7 31 2 14 4 48 4 77 1 38 5 55 18 62
10 6 12 11 5 11 -9 0 -13 16 -13 45 0 33 -4 45 -15 45 -8 0 -15 -4 -15 -10z
m-76 -335 c8 -19 21 -35 29 -35 12 0 27 -19 27 -35 0 -7 -54 -15 -70 -10 -26
8 -32 32 -19 76 7 21 14 39 15 39 2 0 10 -16 18 -35z"/>
<path d="M2720 5069 c0 -5 5 -7 10 -4 6 3 10 8 10 11 0 2 -4 4 -10 4 -5 0 -10
-5 -10 -11z"/>
<path d="M3816 4891 c-4 -7 -5 -15 -2 -18 9 -9 19 4 14 18 -4 11 -6 11 -12 0z"/>
<path d="M3352 4615 c0 -16 2 -22 5 -12 2 9 2 23 0 30 -3 6 -5 -1 -5 -18z"/>
<path d="M2831 4456 c-9 -10 -9 -16 -1 -21 17 -10 37 12 24 25 -8 8 -15 6 -23
-4z"/>
<path d="M3025 4426 c-15 -11 -25 -11 -39 -4 -14 8 -21 8 -24 0 -1 -5 -12 -8
-22 -5 -11 3 -20 0 -20 -6 0 -6 -8 -11 -18 -11 -10 0 -53 -19 -97 -41 -139
-72 -155 -80 -165 -74 -5 3 -12 1 -15 -5 -4 -6 -15 -8 -24 -5 -11 3 -25 -3
-36 -15 -18 -19 -17 -20 20 -36 25 -10 41 -12 48 -5 5 5 15 7 22 5 18 -7 6
-44 -14 -45 -13 0 -14 -1 -1 -6 34 -13 129 -56 182 -83 31 -16 60 -25 63 -20
3 5 0 12 -6 15 -5 4 -8 13 -5 20 2 7 -2 16 -10 19 -19 7 -18 26 1 26 8 0 15 5
15 10 0 6 5 10 11 10 6 0 25 11 41 25 16 14 34 23 39 19 5 -3 9 0 9 6 0 6 4 9
8 6 4 -2 14 -1 22 4 10 6 21 3 32 -7 10 -9 18 -12 18 -7 0 14 56 36 82 33 13
-2 29 0 36 4 6 5 12 4 12 -2 0 -5 11 -8 25 -6 14 1 28 -2 31 -6 3 -5 -4 -9
-16 -9 -12 0 -18 -4 -15 -11 4 -6 19 -7 36 -4 19 4 29 3 29 -5 0 -23 89 -5
127 24 27 22 37 26 43 15 11 -17 46 24 54 63 3 15 16 33 30 40 20 11 22 16 13
29 -20 26 -52 40 -65 27 -15 -15 -123 -20 -139 -7 -18 16 -208 25 -217 10 -4
-6 -12 -11 -19 -11 -8 0 -8 3 1 12 7 7 12 16 12 20 0 14 -75 9 -95 -6z m-126
-237 c-19 -12 -24 -2 -8 17 9 11 14 13 17 4 3 -7 -2 -16 -9 -21z"/>
<path d="M3145 4140 c-3 -5 1 -10 9 -10 8 0 18 5 21 10 3 6 -1 10 -9 10 -8 0
-18 -4 -21 -10z"/>
<path d="M3590 4124 c0 -8 5 -12 10 -9 6 3 10 10 10 16 0 5 -4 9 -10 9 -5 0
-10 -7 -10 -16z"/>
<path d="M2973 4096 c-3 -4 1 -12 8 -17 11 -7 10 -9 -3 -9 -10 0 -18 -4 -18
-10 0 -5 11 -10 25 -10 14 0 25 -5 25 -11 0 -11 9 -10 92 7 14 3 28 14 31 24
4 16 -1 17 -54 13 -51 -5 -59 -4 -54 10 5 11 0 15 -20 13 -15 0 -29 -5 -32
-10z m72 -46 c3 -5 -1 -10 -10 -10 -9 0 -13 5 -10 10 3 6 8 10 10 10 2 0 7 -4
10 -10z"/>
<path d="M3077 4026 c-7 -17 1 -26 24 -26 22 0 32 27 13 34 -24 9 -31 7 -37
-8z"/>
<path d="M3005 3980 c4 -6 11 -8 16 -5 14 9 11 15 -7 15 -8 0 -12 -5 -9 -10z"/>
<path d="M2490 7570 c-30 -11 -81 -26 -113 -35 -32 -9 -56 -19 -54 -21 2 -3
44 7 93 22 49 14 104 30 122 34 19 5 36 11 39 14 12 12 -33 4 -87 -14z"/>
<path d="M3550 7490 c0 -5 5 -10 10 -10 6 0 10 5 10 10 0 6 -4 10 -10 10 -5 0
-10 -4 -10 -10z"/>
<path d="M2140 7480 c-13 -9 -13 -10 0 -9 8 0 24 4 35 9 l20 9 -20 0 c-11 0
-27 -4 -35 -9z"/>
<path d="M1585 6770 c-3 -5 -1 -10 4 -10 6 0 11 5 11 10 0 6 -2 10 -4 10 -3 0
-8 -4 -11 -10z"/>
<path d="M4620 6607 c0 -2 15 -16 33 -33 l32 -29 -29 33 c-28 30 -36 37 -36
29z"/>
<path d="M4741 6404 c0 -11 3 -14 6 -6 3 7 2 16 -1 19 -3 4 -6 -2 -5 -13z"/>
<path d="M970 6008 c-1 -19 35 -75 58 -92 l27 -20 -19 22 c-11 13 -30 39 -42
60 -13 20 -24 34 -24 30z"/>
<path d="M4750 5785 c-7 -9 -11 -18 -8 -20 3 -3 11 1 18 10 7 9 11 18 8 20 -3
3 -11 -1 -18 -10z"/>
<path d="M4718 5703 c6 -2 18 -2 25 0 6 3 1 5 -13 5 -14 0 -19 -2 -12 -5z"/>
<path d="M1350 5310 l-45 -7 40 -1 c22 -1 47 3 55 8 8 5 11 9 5 8 -5 0 -30 -4
-55 -8z"/>
<path d="M1616 5051 c-3 -5 4 -11 16 -14 30 -8 35 -1 9 12 -11 6 -22 7 -25 2z"/>
<path d="M1690 5044 l-25 -14 26 0 c15 0 29 7 33 15 6 18 -1 18 -34 -1z"/>
<path d="M1850 3640 c-7 -22 -17 -40 -22 -40 -4 0 -8 -5 -8 -10 0 -20 38 9 44
34 3 13 9 31 12 40 3 9 2 16 -3 16 -6 0 -16 -18 -23 -40z"/>
<path d="M1586 3555 c-23 -18 -34 -21 -53 -14 -32 12 -33 12 -33 -5 0 -8 11
-17 25 -20 21 -5 24 -11 21 -39 -3 -18 -1 -39 4 -46 12 -20 30 19 30 63 0 19
4 38 10 41 9 6 34 45 28 45 -2 -1 -16 -11 -32 -25z"/>
<path d="M1830 3551 c0 -5 7 -12 16 -15 22 -9 24 -8 24 9 0 8 -9 15 -20 15
-11 0 -20 -4 -20 -9z"/>
<path d="M1425 3522 c-6 -4 -11 -18 -13 -31 -1 -14 -12 -34 -24 -45 l-21 -19
22 -8 c12 -5 21 -17 21 -29 0 -22 19 -34 45 -28 13 2 11 10 -11 42 -26 38 -27
41 -11 69 17 29 11 63 -8 49z"/>
<path d="M1306 3462 c-5 -8 -7 -58 -5 -127 1 -28 2 -29 15 -10 8 10 14 36 14
57 0 23 4 37 11 36 6 -2 14 3 17 11 3 10 0 12 -12 8 -11 -5 -16 -1 -16 13 0
20 -14 27 -24 12z"/>
<path d="M1186 3372 c-3 -5 1 -15 9 -22 9 -7 13 -21 10 -31 -4 -11 -2 -19 4
-19 6 0 11 -7 11 -15 0 -20 14 -19 31 2 11 13 11 17 2 20 -7 3 -13 11 -13 19
0 8 -5 14 -10 14 -6 0 -10 8 -8 17 3 19 -26 30 -36 15z"/>
<path d="M1600 3372 c0 -7 -6 -12 -14 -12 -8 0 -16 -3 -18 -8 -6 -14 -103 -71
-123 -72 -11 0 -42 0 -68 0 -32 1 -46 -3 -42 -10 3 -5 13 -10 20 -10 9 0 12
-6 9 -15 -4 -8 -1 -15 4 -15 35 0 56 -71 26 -88 -16 -9 -38 -87 -29 -103 4 -5
12 -9 20 -9 8 0 11 -7 8 -20 -3 -11 0 -20 6 -20 5 0 8 -6 5 -13 -2 -7 6 -19
19 -26 16 -8 23 -19 20 -30 -3 -13 6 -20 36 -30 23 -6 41 -18 41 -26 0 -12 25
-21 83 -30 12 -2 31 -6 43 -10 35 -11 48 40 47 179 -2 107 -7 194 -15 249 -1
9 -8 17 -15 17 -7 0 -13 6 -13 14 0 18 -30 30 -44 16 -5 -5 -18 -10 -28 -10
-10 0 -18 -4 -18 -10 0 -5 -4 -10 -9 -10 -18 0 2 42 25 52 23 11 41 44 30 55
-3 4 -6 1 -6 -5z m80 -241 c0 -6 -4 -13 -10 -16 -5 -3 -10 1 -10 9 0 9 5 16
10 16 6 0 10 -4 10 -9z m-70 -15 c0 -3 -4 -8 -10 -11 -5 -3 -10 -1 -10 4 0 6
5 11 10 11 6 0 10 -2 10 -4z m27 -18 c-3 -8 -6 -5 -6 6 -1 11 2 17 5 13 3 -3
4 -12 1 -19z m13 -28 c0 -5 -4 -10 -10 -10 -5 0 -10 5 -10 10 0 6 5 10 10 10
6 0 10 -4 10 -10z m-44 -27 c-10 -10 -19 5 -10 18 6 11 8 11 12 0 2 -7 1 -15
-2 -18z m64 2 c0 -8 -4 -15 -10 -15 -5 0 -7 7 -4 15 4 8 8 15 10 15 2 0 4 -7
4 -15z m-104 -22 c-10 -10 -19 5 -10 18 6 11 8 11 12 0 2 -7 1 -15 -2 -18z
m-51 8 c3 -5 1 -12 -5 -16 -5 -3 -10 1 -10 9 0 18 6 21 15 7z m128 -48 c-5
-14 -8 -11 -14 12 -5 15 -5 33 -2 38 9 15 23 -30 16 -50z m-100 -3 c-3 -11 -9
-17 -15 -14 -5 3 -4 12 3 20 16 19 18 18 12 -6z m77 16 c0 -3 -4 -8 -10 -11
-5 -3 -10 -1 -10 4 0 6 5 11 10 11 6 0 10 -2 10 -4z m-40 -21 c0 -8 -4 -15
-10 -15 -5 0 -10 7 -10 15 0 8 5 15 10 15 6 0 10 -7 10 -15z m103 -5 c3 -11 1
-23 -4 -26 -5 -3 -9 -1 -9 5 0 5 -3 16 -6 25 -3 9 -2 16 4 16 5 0 12 -9 15
-20z m-175 -2 c-2 -6 -10 -14 -16 -16 -7 -2 -10 2 -6 12 7 18 28 22 22 4z m82
-28 c0 -5 -4 -10 -10 -10 -5 0 -10 5 -10 10 0 6 5 10 10 10 6 0 10 -4 10 -10z
m30 -11 c0 -5 -4 -9 -10 -9 -5 0 -10 7 -10 16 0 8 5 12 10 9 6 -3 10 -10 10
-16z m-86 -4 c-6 -16 -24 -21 -24 -7 0 11 11 22 21 22 5 0 6 -7 3 -15z m120 0
c-4 -8 -10 -12 -15 -9 -11 6 -2 24 11 24 5 0 7 -7 4 -15z m26 -36 c0 -5 -4 -9
-10 -9 -5 0 -10 7 -10 16 0 8 5 12 10 9 6 -3 10 -10 10 -16z m-120 -4 c0 -8
-4 -15 -10 -15 -5 0 -10 7 -10 15 0 8 5 15 10 15 6 0 10 -7 10 -15z m34 -10
c-4 -8 -10 -12 -15 -9 -11 6 -2 24 11 24 5 0 7 -7 4 -15z m46 0 c0 -8 -4 -15
-10 -15 -5 0 -7 7 -4 15 4 8 8 15 10 15 2 0 4 -7 4 -15z"/>
<path d="M4519 3345 c9 -19 20 -34 24 -35 10 0 -1 39 -15 58 -20 24 -25 11 -9
-23z"/>
<path d="M4840 3205 c7 -8 16 -13 20 -10 5 3 10 1 12 -4 1 -4 13 -12 26 -15
37 -12 25 12 -14 29 -46 19 -60 19 -44 0z"/>
<path d="M4970 3140 c0 -5 3 -10 8 -10 4 0 25 -17 47 -38 22 -20 57 -45 78
-54 20 -10 37 -24 37 -33 0 -8 4 -15 9 -15 5 0 13 -9 16 -20 4 -11 11 -18 16
-15 5 4 9 1 9 -4 0 -6 5 -11 10 -11 15 0 12 27 -5 44 -8 8 -15 19 -15 25 0 6
-4 11 -10 11 -5 0 -16 13 -25 30 -9 18 -26 32 -43 36 -51 11 -57 14 -86 39
-31 26 -46 31 -46 15z"/>
<path d="M4906 3099 c-22 -17 -26 -28 -26 -73 0 -45 4 -56 25 -72 14 -10 25
-26 25 -36 0 -9 5 -20 10 -23 6 -3 10 -13 10 -22 0 -8 11 -24 25 -35 14 -11
25 -28 25 -39 0 -10 5 -19 11 -19 13 0 7 56 -11 93 -7 15 -18 27 -24 27 -6 0
-5 5 2 12 7 7 12 21 13 33 0 11 3 14 6 8 2 -7 15 -13 27 -13 13 0 31 -12 44
-30 16 -22 31 -30 52 -30 17 0 30 3 30 8 0 11 -38 42 -53 42 -26 0 -64 48 -71
89 -3 23 -10 41 -14 41 -4 0 -21 14 -39 30 -18 17 -34 30 -36 30 -2 0 -16 -9
-31 -21z m51 -38 c3 -11 11 -22 19 -25 15 -6 20 -46 5 -46 -5 0 -13 -10 -17
-22 l-7 -23 -8 23 c-5 12 -13 22 -19 22 -5 0 -10 9 -10 19 0 11 -4 23 -10 26
-16 10 -12 33 8 38 31 8 34 7 39 -12z"/>
<path d="M1046 2966 c-4 -25 -11 -48 -17 -51 -5 -4 -7 -10 -5 -13 2 -4 -4 -48
-14 -97 -11 -55 -15 -92 -9 -96 11 -7 1 -39 -12 -39 -5 0 -9 -12 -8 -27 0 -16
3 -23 5 -16 8 18 32 4 27 -15 -3 -13 2 -18 18 -19 28 -2 33 -8 25 -30 -7 -17
-8 -17 -22 1 -8 11 -14 14 -14 8 0 -7 -4 -12 -10 -12 -5 0 -10 6 -10 14 0 7
-6 19 -14 25 -11 9 -15 3 -20 -31 -3 -24 -8 -55 -11 -70 -3 -21 0 -28 13 -29
57 -3 119 -10 129 -13 6 -3 19 4 28 14 19 21 27 183 12 265 -5 27 -10 68 -12
90 -2 22 -4 42 -5 45 -1 3 -3 10 -4 15 -7 41 -20 81 -30 87 -6 4 -11 13 -11
19 0 7 -5 14 -11 16 -7 2 -14 -15 -18 -41z m44 -142 c0 -8 -4 -14 -10 -14 -5
0 -10 9 -10 21 0 11 5 17 10 14 6 -3 10 -13 10 -21z m23 -29 c4 -8 2 -17 -3
-20 -6 -4 -10 3 -10 14 0 25 6 27 13 6z m-73 -21 c0 -8 -4 -14 -10 -14 -5 0
-10 9 -10 21 0 11 5 17 10 14 6 -3 10 -13 10 -21z m45 -43 c3 -6 3 -11 -2 -11
-12 0 -30 44 -24 61 3 9 7 4 12 -13 4 -14 10 -31 14 -37z m-37 -22 c-2 -6 -8
-10 -13 -10 -5 0 -11 4 -13 10 -2 6 4 11 13 11 9 0 15 -5 13 -11z m66 -24 c-4
-8 -10 -12 -15 -9 -11 6 -2 24 11 24 5 0 7 -7 4 -15z m-42 -15 c-1 -7 2 -18 9
-26 6 -7 8 -18 4 -24 -9 -15 -25 -2 -18 15 3 8 0 15 -6 15 -6 0 -11 -4 -11
-10 0 -5 -4 -10 -10 -10 -5 0 -10 9 -10 21 0 11 5 17 10 14 6 -3 10 1 10 10 0
9 6 15 13 12 6 -2 11 -10 9 -17z m48 -51 c0 -11 5 -17 10 -14 6 3 10 0 10 -8
0 -26 -13 -27 -27 -1 -16 31 -17 44 -3 44 6 0 10 -9 10 -21z m-30 -54 c0 -8
-4 -15 -10 -15 -5 0 -10 7 -10 15 0 8 5 15 10 15 6 0 10 -7 10 -15z m34 -40
c-4 -8 -10 -12 -15 -9 -11 6 -2 24 11 24 5 0 7 -7 4 -15z m-134 -21 c0 -8 -4
-14 -10 -14 -5 0 -10 9 -10 21 0 11 5 17 10 14 6 -3 10 -13 10 -21z m43 6 c-3
-11 -9 -20 -14 -20 -5 0 -9 9 -9 20 0 11 6 20 14 20 9 0 12 -7 9 -20z m55 -2
c-6 -18 -28 -21 -28 -4 0 9 7 16 16 16 9 0 14 -5 12 -12z"/>
<path d="M434 2975 c3 -9 0 -15 -10 -15 -8 0 -12 5 -9 10 3 6 -1 10 -10 10 -9
0 -13 -4 -10 -10 3 -5 1 -10 -4 -10 -6 0 -20 -8 -30 -17 -39 -35 -49 -42 -56
-35 -4 4 -2 -3 4 -16 12 -22 11 -23 -10 -12 -20 11 -21 10 -15 -14 4 -15 2
-26 -4 -26 -5 0 -10 5 -10 11 0 5 -5 7 -10 4 -6 -4 -10 -12 -9 -18 1 -7 -1
-20 -6 -30 -6 -15 -10 -16 -16 -5 -7 10 -9 9 -9 -4 0 -10 -5 -18 -10 -18 -6 0
-8 -11 -4 -27 7 -26 6 -27 -11 -13 -17 14 -18 13 -12 -10 4 -19 0 -31 -18 -49
-14 -13 -25 -28 -25 -33 0 -6 -6 -8 -14 -5 -11 4 -13 -2 -10 -25 2 -17 -1 -38
-6 -47 -8 -13 -9 -13 -10 -1 0 9 -12 2 -31 -19 -16 -18 -29 -40 -27 -49 2 -9
-7 -26 -19 -39 -19 -18 -23 -33 -23 -83 0 -76 20 -79 31 -5 2 20 20 45 28 40
16 -9 20 59 5 82 -8 12 -10 24 -5 27 5 3 12 -5 15 -19 7 -26 26 -35 26 -12 0
8 9 22 20 32 12 10 18 25 15 32 -2 8 -1 12 4 8 11 -6 25 50 16 65 -3 6 0 7 9
4 11 -4 16 0 16 10 0 10 9 16 24 16 29 0 62 38 82 93 3 9 15 17 25 17 18 0 59
74 59 106 0 8 7 14 15 14 8 0 15 6 15 14 0 8 6 16 13 19 6 3 20 19 30 36 17
28 17 31 1 31 -10 0 -14 -5 -10 -15z m-297 -387 c-3 -8 -6 -5 -6 6 -1 11 2 17
5 13 3 -3 4 -12 1 -19z"/>
<path d="M4827 2932 c-3 -15 -2 -31 1 -37 4 -5 7 -30 7 -55 0 -31 4 -44 13
-42 6 1 12 -5 12 -13 0 -8 9 -15 20 -15 12 0 20 -6 19 -12 -3 -27 2 -37 15
-32 8 3 17 0 21 -6 5 -8 14 -5 27 10 17 18 18 24 7 30 -7 5 -17 6 -21 4 -4 -3
-8 1 -8 9 0 10 -7 13 -20 10 -16 -4 -20 0 -20 21 0 19 -5 26 -20 26 -16 0 -20
7 -20 33 0 18 4 37 9 43 5 5 -1 18 -14 31 l-23 22 -5 -27z"/>
<path d="M5265 2898 c-20 -12 -75 -69 -75 -78 0 -3 -12 -7 -26 -8 -14 -1 -32
-9 -40 -17 -9 -8 -26 -15 -40 -15 -15 0 -24 -6 -24 -15 0 -8 9 -15 19 -15 11
0 23 -5 26 -10 4 -6 12 -9 18 -8 33 6 77 -53 47 -64 -5 -1 -12 -30 -16 -62 -6
-46 -4 -57 5 -51 15 9 49 -25 43 -43 -2 -7 5 -12 16 -12 30 0 52 -11 52 -25 0
-8 11 -12 30 -10 17 1 33 -1 35 -6 3 -4 12 -6 21 -2 9 3 14 0 12 -7 -3 -14 10
-17 97 -26 57 -6 61 -5 71 17 13 30 9 192 -5 197 -6 2 -11 13 -11 24 0 10 -7
26 -15 34 -8 9 -15 23 -15 33 0 19 -62 90 -102 115 -29 19 -98 13 -98 -8 0 -6
-5 -4 -10 4 -12 19 -13 33 -1 26 12 -8 34 21 26 34 -8 13 -15 12 -40 -2z m68
-303 c-3 -9 -8 -14 -10 -11 -3 3 -2 9 2 15 9 16 15 13 8 -4z m34 -37 c-3 -8
-6 -5 -6 6 -1 11 2 17 5 13 3 -3 4 -12 1 -19z m163 -13 c0 -5 -5 -3 -10 5 -5
8 -10 20 -10 25 0 6 5 3 10 -5 5 -8 10 -19 10 -25z m-120 15 c0 -5 -5 -10 -11
-10 -5 0 -7 5 -4 10 3 6 8 10 11 10 2 0 4 -4 4 -10z m-89 -33 c-10 -9 -11 -8
-5 6 3 10 9 15 12 12 3 -3 0 -11 -7 -18z m179 -7 c0 -5 -5 -10 -11 -10 -5 0
-7 5 -4 10 3 6 8 10 11 10 2 0 4 -4 4 -10z m-63 -52 c-3 -8 -6 -5 -6 6 -1 11
2 17 5 13 3 -3 4 -12 1 -19z m50 -10 c-3 -8 -6 -5 -6 6 -1 11 2 17 5 13 3 -3
4 -12 1 -19z"/>
<path d="M4190 2860 c0 -5 7 -10 15 -10 8 0 15 5 15 10 0 6 -7 10 -15 10 -8 0
-15 -4 -15 -10z"/>
<path d="M1773 2768 c-6 -46 -12 -63 -23 -63 -8 0 -14 6 -12 13 1 7 -5 15 -13
18 -8 4 -15 12 -15 20 0 8 -4 14 -10 14 -12 0 -12 -1 1 -55 6 -25 15 -42 20
-39 5 3 9 0 9 -7 0 -6 7 -17 16 -23 9 -7 20 -41 26 -84 7 -43 16 -71 22 -69 6
2 10 19 8 38 -2 19 -3 94 -4 167 0 72 -4 132 -8 132 -5 0 -12 -28 -17 -62z"/>
<path d="M4782 2761 c-5 -22 -7 -52 -4 -68 6 -31 26 -56 37 -45 4 4 4 -8 0
-25 -4 -20 -3 -33 3 -33 6 0 12 18 14 39 2 30 -1 43 -14 53 -22 15 -24 71 -3
92 20 19 19 26 -4 26 -13 0 -21 -11 -29 -39z"/>
<path d="M1620 2703 c-14 -7 -32 -21 -41 -32 -9 -11 -19 -18 -21 -15 -6 5 -20
-95 -21 -140 0 -15 4 -31 9 -35 5 -3 10 -28 12 -55 1 -27 8 -56 14 -63 6 -8
15 -31 19 -51 6 -26 7 -17 4 33 -3 39 -8 81 -12 94 -4 17 -3 22 5 17 8 -5 12
0 12 13 0 11 5 23 10 26 6 3 10 -1 10 -9 0 -19 38 -32 53 -17 7 7 7 14 -1 23
-7 9 -8 33 -3 73 6 45 4 70 -8 105 -15 44 -17 46 -41 33z m24 -79 c7 -53 -1
-94 -18 -94 -6 0 -18 -9 -26 -20 -20 -27 -27 -25 -27 8 0 15 -3 48 -7 74 -6
44 -5 47 21 61 44 23 50 20 57 -29z"/>
<path d="M1430 2569 c0 -6 -9 -8 -20 -4 -11 3 -20 3 -20 -2 0 -4 -3 -19 -7
-33 l-6 -25 22 23 c29 29 38 28 45 -8 3 -16 9 -43 12 -60 4 -20 2 -30 -6 -30
-8 0 -10 -9 -6 -25 5 -18 2 -25 -9 -25 -8 0 -15 -4 -15 -10 0 -5 -7 -7 -15 -4
-8 4 -15 12 -15 20 0 8 -5 14 -10 14 -6 0 -8 13 -5 30 3 18 1 30 -5 30 -7 0
-8 13 -4 35 5 28 3 35 -10 35 -18 0 -22 -16 -5 -22 7 -2 7 -12 -1 -33 -6 -16
-8 -31 -3 -32 4 -2 8 -31 7 -66 0 -34 3 -66 7 -72 3 -5 10 -31 13 -58 5 -29
11 -45 18 -41 7 4 8 -4 3 -26 -5 -24 -4 -31 5 -25 15 9 7 98 -9 103 -15 5 -1
64 18 79 26 20 51 16 51 -8 0 -30 24 -18 28 14 2 20 -1 27 -13 27 -14 0 -16 6
-10 36 3 20 13 44 21 52 10 9 12 17 5 21 -5 3 -15 28 -21 54 -7 28 -18 47 -26
47 -8 0 -14 -5 -14 -11z"/>
<path d="M4732 2540 c-12 -13 -22 -27 -22 -31 0 -4 -3 -16 -6 -26 -6 -15 -3
-14 15 4 11 12 21 26 21 32 0 5 5 11 12 13 6 2 9 10 6 18 -3 10 -10 7 -26 -10z"/>
<path d="M5846 2454 c-8 -118 -13 -154 -21 -186 -6 -22 -4 -28 9 -28 9 0 16 6
16 14 0 8 5 18 11 22 8 5 10 -1 7 -21 -5 -24 4 -51 34 -105 4 -8 11 -22 15
-30 3 -8 15 -28 27 -44 11 -16 21 -38 21 -49 1 -10 7 -22 13 -26 6 -4 14 -29
16 -56 3 -26 12 -55 21 -64 14 -14 16 -14 22 7 8 32 28 21 28 -15 0 -16 5 -36
11 -44 22 -27 62 -122 57 -134 -2 -7 4 -30 15 -52 11 -21 23 -65 27 -98 4 -33
11 -68 17 -78 5 -10 11 -59 12 -110 2 -64 9 -104 21 -127 9 -18 19 -47 20 -64
2 -17 8 -85 15 -151 6 -66 20 -156 32 -200 11 -44 23 -90 25 -102 3 -12 11
-28 19 -34 8 -6 14 -19 14 -28 0 -9 7 -25 15 -35 8 -11 15 -28 15 -38 0 -10 5
-18 10 -18 6 0 10 110 10 309 0 329 -5 381 -70 656 -88 376 -287 816 -445 984
l-32 33 -7 -88z"/>
<path d="M1236 2480 c-10 -10 -24 -30 -31 -44 -13 -24 -12 -24 6 -13 10 6 19
15 19 19 0 5 5 8 11 8 14 0 39 25 39 39 0 17 -23 12 -44 -9z"/>
<path d="M1680 2458 c-11 -36 8 -88 31 -88 21 0 22 4 13 38 -4 12 -12 22 -19
22 -8 0 -16 8 -18 18 -3 9 -6 14 -7 10z"/>
<path d="M4739 2405 c-13 -19 -27 -35 -31 -35 -5 0 -8 -5 -8 -11 0 -7 -11 -22
-25 -35 -14 -13 -25 -28 -25 -34 0 -6 -4 -8 -10 -5 -5 3 -10 0 -10 -8 0 -8 -7
-20 -15 -27 -8 -6 -14 -15 -13 -18 1 -4 -6 -24 -15 -46 -20 -45 -21 -49 -7
-41 19 12 10 -41 -10 -58 -21 -17 -28 -77 -10 -77 6 0 10 7 10 15 0 8 5 15 10
15 6 0 10 -9 10 -20 0 -11 3 -20 8 -20 4 0 15 -20 25 -44 14 -35 22 -43 37
-39 13 3 22 -1 26 -12 5 -12 14 -15 30 -11 21 6 24 3 24 -24 0 -28 3 -30 28
-26 15 2 30 5 35 5 4 1 7 8 7 16 0 10 16 16 51 21 38 5 53 12 56 25 3 11 9 19
13 19 17 0 30 124 20 188 -6 35 -9 66 -6 70 2 4 -2 13 -10 20 -12 11 -15 10
-20 -2 -3 -9 -10 -16 -15 -16 -14 0 -11 27 4 33 20 7 15 47 -12 94 -15 26 -29
39 -37 36 -8 -3 -14 0 -14 6 0 20 -51 13 -57 -8 -3 -11 -16 -22 -29 -25 -13
-4 -24 -14 -24 -23 0 -11 -3 -13 -9 -7 -12 11 -2 66 10 58 5 -3 9 0 9 6 0 6 7
18 15 26 13 13 22 54 11 54 -2 0 -14 -16 -27 -35z m141 -174 c0 -6 -4 -13 -10
-16 -5 -3 -10 1 -10 9 0 9 5 16 10 16 6 0 10 -4 10 -9z m-10 -56 c0 -8 4 -15
10 -15 5 0 7 -7 4 -15 -4 -8 -11 -15 -16 -15 -6 0 -8 7 -4 15 3 8 1 15 -4 15
-6 0 -10 7 -10 15 0 8 5 15 10 15 6 0 10 -7 10 -15z m-48 -27 c-9 -9 -12 -7
-12 12 0 19 3 21 12 12 9 -9 9 -15 0 -24z m94 -45 c-11 -11 -19 6 -11 24 8 17
8 17 12 0 3 -10 2 -21 -1 -24z m-76 -4 c0 -5 -4 -9 -10 -9 -5 0 -10 7 -10 16
0 8 5 12 10 9 6 -3 10 -10 10 -16z m30 -13 c0 -8 -4 -18 -10 -21 -5 -3 -10 3
-10 14 0 12 5 21 10 21 6 0 10 -6 10 -14z m-76 -21 c-4 -8 -10 -15 -15 -15 -5
0 -9 7 -9 15 0 8 7 15 15 15 9 0 12 -6 9 -15z m-182 -27 c-9 -9 -12 -7 -12 12
0 19 3 21 12 12 9 -9 9 -15 0 -24z m278 23 c0 -6 -4 -13 -10 -16 -5 -3 -10 1
-10 9 0 9 5 16 10 16 6 0 10 -4 10 -9z m40 1 c0 -13 -12 -22 -22 -16 -10 6 -1
24 13 24 5 0 9 -4 9 -8z m-80 -23 c0 -5 -4 -9 -10 -9 -5 0 -10 7 -10 16 0 8 5
12 10 9 6 -3 10 -10 10 -16z m-120 -15 c0 -8 -4 -14 -10 -14 -5 0 -10 9 -10
21 0 11 5 17 10 14 6 -3 10 -13 10 -21z m220 17 c0 -12 -20 -25 -27 -18 -7 7
6 27 18 27 5 0 9 -4 9 -9z m-144 -28 c-4 -9 -1 -20 6 -24 10 -7 10 -11 0 -21
-9 -9 -12 -9 -12 5 0 9 -4 17 -10 17 -14 0 -12 27 3 33 19 8 20 8 13 -10z
m-51 -13 c3 -5 1 -10 -4 -10 -6 0 -11 5 -11 10 0 6 2 10 4 10 3 0 8 -4 11 -10z
m145 -11 c0 -5 -4 -9 -10 -9 -5 0 -10 7 -10 16 0 8 5 12 10 9 6 -3 10 -10 10
-16z m-40 -4 c0 -8 -4 -15 -10 -15 -5 0 -10 7 -10 15 0 8 5 15 10 15 6 0 10
-7 10 -15z m70 -21 c0 -8 -4 -14 -10 -14 -5 0 -10 9 -10 21 0 11 5 17 10 14 6
-3 10 -13 10 -21z m-210 1 c0 -8 -4 -15 -10 -15 -5 0 -10 7 -10 15 0 8 5 15
10 15 6 0 10 -7 10 -15z m31 -28 c-1 -12 -15 -9 -19 4 -3 6 1 10 8 8 6 -3 11
-8 11 -12z m139 -8 c0 -5 -7 -9 -15 -9 -9 0 -12 6 -9 15 6 15 24 11 24 -6z
m-62 -1 c-2 -6 -10 -14 -16 -16 -7 -2 -10 2 -6 12 7 18 28 22 22 4z m-38 -6
c0 -13 -12 -22 -22 -16 -10 6 -1 24 13 24 5 0 9 -4 9 -8z"/>
<path d="M1861 2398 c0 -10 -5 -18 -10 -18 -5 0 -12 -11 -15 -25 -4 -14 -11
-25 -16 -25 -6 0 -10 -5 -10 -10 0 -6 -12 -23 -26 -39 -18 -20 -32 -27 -46
-23 -13 3 -24 -1 -29 -11 -7 -12 -16 -14 -39 -7 -23 7 -30 5 -30 -6 0 -8 7
-14 15 -14 8 0 15 -7 15 -15 0 -8 11 -17 25 -21 14 -3 25 -12 25 -20 0 -8 5
-14 10 -14 16 0 12 -50 -5 -66 -23 -23 -20 -101 5 -114 11 -6 17 -16 14 -25
-4 -9 0 -15 9 -15 10 0 13 -7 10 -19 -3 -14 2 -20 26 -24 22 -5 31 -12 31 -27
0 -11 3 -19 8 -18 4 0 28 -5 53 -12 36 -11 45 -17 42 -31 -4 -14 3 -19 31 -24
20 -4 36 -11 36 -16 0 -5 3 -8 8 -7 13 3 77 -14 90 -25 23 -19 41 22 42 95 0
36 -4 68 -9 70 -6 2 -12 14 -15 28 -3 14 -12 43 -21 65 -9 22 -18 48 -22 58
-5 16 -6 16 -18 1 -11 -16 -12 -16 -18 0 -4 9 -2 16 3 16 19 0 10 48 -19 103
-16 31 -27 58 -24 60 2 3 -5 10 -16 17 -12 6 -21 17 -21 24 0 15 -51 40 -59
29 -3 -4 -16 -14 -29 -21 -18 -10 -23 -10 -28 1 -6 16 13 69 27 78 6 3 9 19 6
35 -2 16 -5 21 -6 12z m149 -304 c0 -8 -4 -14 -10 -14 -5 0 -10 9 -10 21 0 11
5 17 10 14 6 -3 10 -13 10 -21z m-40 -45 c0 -11 -4 -17 -10 -14 -5 3 -10 13
-10 21 0 8 5 14 10 14 6 0 10 -9 10 -21z m37 -26 c-3 -3 -11 -2 -17 2 -8 5 -7
11 2 22 12 15 13 14 16 -1 2 -10 1 -20 -1 -23z m23 -23 c0 -5 -4 -10 -10 -10
-5 0 -10 5 -10 10 0 6 5 10 10 10 6 0 10 -4 10 -10z m-42 -11 c-2 -6 -8 -10
-13 -10 -5 0 -11 4 -13 10 -2 6 4 11 13 11 9 0 15 -5 13 -11z m-40 -18 c-4
-19 -22 -18 -26 2 -2 7 4 14 13 14 9 0 15 -7 13 -16z m-66 -17 c-7 -12 -11
-13 -17 -4 -4 7 -2 16 6 21 18 11 23 4 11 -17z m186 9 c-4 -22 -22 -20 -26 1
-2 10 3 16 13 16 10 0 15 -7 13 -17z m-38 -20 c0 -5 -7 -17 -15 -27 -11 -15
-18 -17 -26 -9 -8 8 -8 15 2 27 15 16 39 21 39 9z m-103 -28 c-8 -20 -27 -20
-27 1 0 8 5 12 10 9 6 -3 10 -1 10 6 0 7 3 10 6 6 4 -3 4 -13 1 -22z m-44 -16
c-6 -23 -22 -16 -20 10 0 10 6 17 13 14 6 -2 10 -13 7 -24z m163 -7 c-4 -3
-12 0 -19 7 -9 9 -9 14 3 21 11 7 16 5 18 -6 2 -9 1 -18 -2 -22z m-78 16 c-6
-18 -28 -21 -28 -4 0 9 7 16 16 16 9 0 14 -5 12 -12z m113 -2 c5 3 9 -2 9 -10
0 -9 -7 -16 -15 -16 -9 0 -15 9 -14 23 0 12 3 16 6 9 2 -6 9 -10 14 -6z m-100
-49 c-8 -8 -11 -7 -11 4 0 9 3 19 7 23 4 4 9 2 11 -4 3 -7 -1 -17 -7 -23z
m-59 -3 c-7 -12 -11 -13 -17 -4 -4 7 -2 16 6 21 18 11 23 4 11 -17z m108 1 c0
-8 -4 -15 -9 -15 -5 0 -11 7 -15 15 -3 9 0 15 9 15 8 0 15 -7 15 -15z m80 -6
c0 -11 -4 -17 -10 -14 -5 3 -10 13 -10 21 0 8 5 14 10 14 6 0 10 -9 10 -21z
m-40 -4 c0 -8 -7 -15 -15 -15 -8 0 -15 7 -15 15 0 8 7 15 15 15 8 0 15 -7 15
-15z m-100 -36 c0 -18 -2 -20 -15 -9 -13 11 -13 15 -3 21 18 12 18 12 18 -12z
m145 -7 c-3 -7 -5 -18 -5 -24 0 -6 -6 -6 -15 2 -21 18 -19 39 5 37 13 -1 19
-6 15 -15z m-105 -8 c0 -9 -5 -14 -12 -12 -18 6 -21 28 -4 28 9 0 16 -7 16
-16z m60 -14 c0 -11 -4 -20 -10 -20 -5 0 -10 2 -10 4 0 2 -3 11 -6 20 -4 11
-1 16 10 16 9 0 16 -8 16 -20z"/>
<path d="M1188 2360 c-4 -40 23 -251 41 -325 l7 -30 17 33 c10 17 24 32 32 32
8 0 17 11 21 24 3 14 12 27 21 30 8 3 11 10 8 16 -10 16 -21 12 -35 -15 -10
-19 -21 -25 -39 -23 -21 2 -27 10 -34 43 -12 58 -6 100 14 99 10 -1 23 9 30
22 14 27 5 44 -13 26 -7 -7 -17 -12 -23 -12 -13 0 -35 48 -29 64 3 7 1 23 -4
37 -8 21 -10 19 -14 -21z"/>
<path d="M1037 2305 c-38 -35 -39 -37 -37 -103 3 -118 5 -137 14 -144 5 -3 11
-31 14 -62 2 -31 8 -53 12 -51 5 3 6 -18 4 -47 l-4 -52 20 22 c12 12 25 20 31
17 20 -13 -2 50 -23 66 -5 3 -11 34 -14 70 -3 35 -8 71 -12 79 -21 53 -19 161
3 195 19 28 20 28 23 7 2 -12 7 -22 12 -22 5 0 6 -16 3 -35 -3 -22 -2 -35 5
-35 15 0 3 -72 -14 -86 -8 -6 -14 -17 -14 -24 0 -9 7 -6 20 8 11 12 20 26 20
32 0 18 18 10 23 -11 3 -12 10 -18 16 -15 6 4 8 -12 5 -45 -3 -32 -1 -48 6
-44 5 3 10 -4 11 -17 1 -13 5 -3 10 22 6 29 5 46 -1 48 -6 2 -10 17 -10 33 0
18 -5 29 -14 29 -7 0 -19 14 -26 30 -11 27 -11 32 6 45 15 12 16 16 6 23 -8 5
-12 22 -11 38 3 20 0 28 -9 26 -8 -1 -16 7 -19 18 -7 27 -12 26 -56 -15z"/>
<path d="M1490 2285 c0 -16 6 -25 15 -25 9 0 15 -9 15 -22 0 -20 1 -20 19 -3
20 17 20 17 -1 46 -27 36 -48 37 -48 4z"/>
<path d="M5496 2285 c-3 -8 -10 -14 -15 -13 -4 2 -23 -12 -40 -30 -25 -26 -34
-48 -46 -109 -12 -61 -12 -79 -2 -85 6 -4 8 -8 3 -8 -5 0 -3 -6 3 -13 7 -9 8
-24 1 -47 -7 -24 -6 -36 1 -41 7 -4 8 -19 4 -37 -3 -18 -2 -33 5 -37 5 -3 8
-11 5 -16 -4 -5 -2 -9 3 -9 12 0 25 81 16 104 -4 10 0 22 9 29 8 7 17 24 19
40 6 29 -6 37 -16 11 -11 -29 -24 -4 -16 31 4 19 5 35 1 35 -4 0 -8 24 -8 53
-1 52 11 82 28 71 5 -3 12 2 15 10 3 9 15 16 25 16 14 0 19 7 19 30 0 33 -5
38 -14 15z"/>
<path d="M5820 2221 c0 -5 -3 -16 -6 -25 -4 -10 -1 -16 7 -16 8 0 15 11 15 25
1 14 -2 25 -7 25 -5 0 -9 -4 -9 -9z"/>
<path d="M5808 2134 c-2 -19 0 -37 4 -40 4 -3 8 3 8 13 0 10 3 28 6 41 4 12 2
22 -4 22 -5 0 -12 -16 -14 -36z"/>
<path d="M5270 2110 c0 -5 -11 -10 -24 -10 -18 0 -25 -7 -29 -30 -5 -21 -12
-30 -27 -30 -14 0 -20 -7 -20 -21 0 -11 4 -18 10 -14 5 3 5 -8 -2 -26 -8 -23
-8 -33 1 -39 8 -5 10 -23 5 -58 -3 -29 -3 -52 2 -52 5 0 8 -31 7 -70 0 -39 3
-67 8 -64 5 3 6 -1 3 -9 -3 -8 0 -18 6 -22 19 -12 23 2 11 38 -16 46 3 134 30
142 24 8 39 -1 39 -25 0 -10 7 -21 16 -24 11 -4 14 -14 9 -35 -4 -21 -2 -30 9
-34 9 -4 16 -17 17 -29 1 -22 1 -21 13 5 7 15 15 24 19 21 4 -4 7 0 7 10 0 9
-7 19 -15 22 -8 4 -15 15 -15 25 0 11 -7 19 -16 19 -13 0 -15 7 -10 35 6 28 4
35 -9 35 -16 0 -19 19 -9 69 4 18 13 31 21 31 11 0 13 7 8 33 -4 17 -12 35
-17 38 -5 3 -6 13 -2 22 3 10 1 17 -5 17 -6 0 -11 9 -11 20 0 11 -7 20 -15 20
-8 0 -15 -4 -15 -10z m13 -40 c-3 -11 -1 -20 5 -20 7 0 8 -11 2 -32 -6 -18 -6
-36 -1 -42 6 -7 4 -19 -5 -31 -8 -10 -12 -27 -8 -37 7 -22 -19 -50 -39 -42
-17 6 -27 37 -33 102 -4 40 -1 46 38 83 23 21 43 39 44 39 1 0 0 -9 -3 -20z"/>
<path d="M5786 2008 c-3 -13 -5 -32 -5 -43 1 -11 5 -2 10 19 10 42 6 62 -5 24z"/>
<path d="M1333 1994 c-7 -7 -13 -16 -13 -18 0 -6 -23 -36 -46 -60 -6 -6 -18
-23 -28 -38 -11 -17 -27 -28 -41 -28 -13 0 -25 -6 -28 -14 -3 -8 -17 -13 -36
-11 -37 3 -62 -20 -31 -28 11 -3 20 -13 20 -22 0 -9 5 -13 10 -10 13 8 52 -4
45 -15 -3 -4 1 -10 9 -13 14 -6 11 -57 -4 -67 -9 -6 -21 -80 -13 -80 9 0 33
29 33 39 0 6 7 11 15 11 16 0 10 -29 -9 -43 -8 -6 -7 -10 2 -14 6 -2 12 -13
12 -23 0 -10 5 -22 10 -25 6 -4 8 -11 5 -16 -4 -5 -1 -9 4 -9 6 0 11 -9 11
-20 0 -14 7 -20 24 -20 15 0 26 -7 29 -20 3 -13 14 -20 30 -20 17 0 24 -5 23
-17 -1 -13 5 -17 22 -16 12 2 22 -1 22 -6 0 -5 7 -8 16 -7 9 1 35 0 58 -4 28
-4 46 -2 54 6 15 16 26 174 12 174 -5 0 -7 13 -3 30 3 19 1 30 -6 30 -6 0 -11
11 -11 24 0 13 -7 37 -15 52 -8 16 -15 41 -15 56 0 15 -5 30 -10 33 -6 4 -8
11 -5 16 4 5 2 9 -2 9 -5 0 -16 18 -26 40 -10 23 -22 38 -28 34 -6 -3 -13 3
-16 15 -6 24 -38 28 -47 6 -3 -8 -12 -12 -21 -9 -10 4 -15 0 -15 -10 0 -9 -4
-16 -10 -16 -18 0 -10 56 11 78 11 13 19 31 17 41 -2 16 -5 17 -15 5z m129
-256 c-2 -10 -8 -15 -13 -12 -14 8 -11 31 5 31 8 0 11 -8 8 -19z m38 -40 c0
-16 -3 -19 -11 -11 -6 6 -8 16 -5 22 11 17 16 13 16 -11z m-40 -20 c0 -10 4
-18 10 -18 5 0 7 -7 4 -15 -4 -8 -11 -15 -16 -15 -6 0 -8 6 -5 14 6 16 -18 30
-45 27 -12 -1 -16 3 -12 12 2 7 18 14 34 14 22 0 30 -5 30 -19z m-20 -42 c0
-15 -14 -35 -21 -30 -15 9 -10 34 6 34 8 0 15 -2 15 -4z m74 -31 c-6 -16 -24
-21 -24 -7 0 11 11 22 21 22 5 0 6 -7 3 -15z m-114 -16 c0 -5 -7 -9 -15 -9 -8
0 -15 7 -15 15 0 9 6 12 15 9 8 -4 15 -10 15 -15z m70 1 c0 -19 -37 -52 -45
-41 -3 6 1 14 9 17 9 3 16 12 16 20 0 8 5 14 10 14 6 0 10 -5 10 -10z m-136
-31 c-3 -5 -10 -7 -15 -3 -5 3 -7 10 -3 15 3 5 10 7 15 3 5 -3 7 -10 3 -15z
m147 -22 c-8 -8 -11 -7 -11 4 0 9 3 19 7 23 4 4 9 2 11 -4 3 -7 -1 -17 -7 -23z
m46 2 c-4 -15 -2 -19 8 -15 9 3 12 0 8 -10 -7 -20 -16 -18 -32 7 -11 18 -11
23 1 30 19 13 21 11 15 -12z m-157 -4 c0 -8 -4 -15 -10 -15 -5 0 -10 7 -10 15
0 8 5 15 10 15 6 0 10 -7 10 -15z m51 -25 c5 0 9 -7 9 -15 0 -22 -16 -18 -33
9 -12 18 -13 26 -4 35 9 10 13 8 15 -8 2 -12 8 -21 13 -21z m-91 1 c0 -6 -4
-13 -10 -16 -5 -3 -10 1 -10 9 0 9 5 16 10 16 6 0 10 -4 10 -9z m140 -15 c0
-24 -17 -28 -23 -6 -3 13 0 20 9 20 8 0 14 -6 14 -14z m-103 -19 c-6 -20 -26
-19 -24 1 1 12 6 18 14 15 8 -3 12 -10 10 -16z m129 -4 c-10 -10 -19 5 -10 18
6 11 8 11 12 0 2 -7 1 -15 -2 -18z m40 -30 c-10 -10 -19 5 -10 18 6 11 8 11
12 0 2 -7 1 -15 -2 -18z m-126 -3 c0 -11 -7 -20 -15 -20 -8 0 -15 7 -15 16 0
8 5 12 10 9 6 -3 10 -1 10 4 0 6 2 11 5 11 3 0 5 -9 5 -20z m38 -7 c-4 -22
-22 -20 -26 1 -2 10 3 16 13 16 10 0 15 -7 13 -17z m52 -8 c0 -8 -4 -15 -10
-15 -5 0 -10 7 -10 15 0 8 5 15 10 15 6 0 10 -7 10 -15z"/>
<path d="M1138 1984 c-5 -4 -8 -14 -8 -22 0 -8 -8 -21 -17 -28 -10 -7 -14 -16
-10 -20 13 -13 49 31 45 56 -1 12 -6 18 -10 14z"/>
<path d="M5068 1976 c-10 -7 -18 -18 -18 -23 0 -6 -7 -16 -15 -23 -20 -16 -19
-30 1 -30 9 0 18 9 21 21 4 16 8 17 14 7 6 -9 9 -7 9 10 0 13 6 22 15 22 8 0
15 7 15 15 0 18 -19 19 -42 1z"/>
<path d="M4992 1840 c-7 -36 -9 -66 -4 -67 4 -2 7 -30 6 -63 0 -33 2 -60 5
-60 3 0 5 -33 4 -72 -1 -40 1 -85 4 -101 l5 -28 21 28 c35 47 37 49 47 33 7
-12 11 -10 19 10 5 14 10 21 10 15 1 -5 12 3 26 19 19 22 22 32 13 37 -11 7
-42 -11 -59 -34 -3 -5 -19 -7 -35 -5 l-29 3 1 73 c1 74 11 96 41 85 7 -3 13 2
13 11 0 9 7 16 15 16 20 0 19 19 -1 27 -9 3 -20 0 -25 -8 -4 -8 -14 -14 -21
-14 -17 0 -40 43 -34 64 3 9 1 34 -3 56 l-7 40 -12 -65z"/>
<path d="M517 1783 c-4 -3 -7 -15 -7 -25 0 -19 -22 -48 -36 -48 -4 0 -18 -10
-31 -21 l-22 -22 39 -38 c39 -38 40 -40 35 -96 -3 -32 -8 -71 -10 -88 -3 -16
-6 -49 -8 -73 -2 -24 -11 -52 -20 -62 -19 -22 -37 -83 -37 -126 0 -16 -8 -39
-18 -50 -10 -11 -17 -25 -14 -32 2 -7 -4 -20 -14 -27 -11 -8 -14 -15 -8 -15
12 0 13 -9 16 -78 1 -33 -43 -108 -98 -167 -13 -14 -24 -31 -24 -36 0 -6 -4
-7 -10 -4 -5 3 -10 0 -10 -7 0 -7 -17 -31 -37 -53 -21 -22 -51 -56 -67 -75
-15 -19 -52 -60 -82 -92 -50 -52 -54 -60 -54 -104 l0 -48 62 65 c180 187 284
312 416 500 83 119 81 113 57 319 -7 67 -12 197 -11 313 1 108 1 197 1 197 -1
0 -5 -3 -8 -7z"/>
<path d="M4864 1767 c-3 -8 1 -27 7 -43 7 -16 11 -37 10 -46 -1 -10 2 -18 7
-18 16 0 -7 -83 -28 -102 -27 -25 -33 -22 -28 12 3 17 1 30 -3 30 -12 0 -20
50 -13 86 3 19 12 34 20 34 14 0 19 12 8 23 -10 9 -34 -4 -34 -19 0 -8 -4 -14
-8 -14 -11 0 -32 -82 -24 -94 3 -5 6 -30 7 -55 1 -25 7 -55 13 -67 11 -22 10
-153 -3 -189 -6 -19 -6 -19 8 -2 8 9 19 17 26 17 18 0 81 70 81 90 0 10 6 20
14 23 17 7 29 67 19 104 -6 27 -7 26 -18 -17 -8 -32 -8 -47 -1 -53 7 -5 6 -11
-5 -20 -9 -7 -20 -23 -24 -36 -4 -14 -16 -33 -26 -44 -18 -20 -18 -20 -27 4
-5 13 -10 49 -11 80 -1 53 2 59 41 100 25 27 43 39 45 32 6 -16 33 -17 33 -3
0 6 -6 13 -14 16 -17 6 -28 43 -18 58 13 20 8 96 -6 96 -7 0 -15 7 -18 15 -8
19 -23 19 -30 2z"/>
<path d="M4282 1740 c-12 -16 -22 -33 -22 -37 0 -5 -9 -17 -21 -26 -21 -19
-21 -44 1 -39 15 3 8 -20 -8 -26 -7 -2 -12 3 -12 12 0 25 -14 19 -49 -21 -18
-21 -66 -73 -106 -115 -81 -85 -89 -115 -32 -112 18 1 40 5 49 9 12 5 20 2 24
-8 4 -12 18 -15 62 -12 125 10 158 17 147 36 -3 5 0 6 7 4 10 -4 19 14 31 59
9 36 20 72 24 82 4 11 3 15 -5 10 -8 -5 -10 9 -8 48 4 67 -7 90 -28 61 -14
-18 -15 -18 -16 -2 0 9 4 17 9 17 17 0 22 37 10 64 -16 34 -30 33 -57 -4z m18
-55 c0 -8 -4 -15 -10 -15 -5 0 -10 7 -10 15 0 8 5 15 10 15 6 0 10 -7 10 -15z
m-9 -75 c5 0 9 -4 9 -10 0 -5 -6 -10 -14 -10 -18 0 -30 35 -19 52 6 9 9 6 11
-9 2 -13 8 -23 13 -23z m46 -24 c-5 -16 -27 -19 -27 -3 0 7 7 14 15 14 9 0 14
-5 12 -11z m-93 -21 c-4 -8 -10 -12 -15 -9 -11 6 -2 24 11 24 5 0 7 -7 4 -15z
m40 -57 c-9 -14 -22 15 -23 47 0 16 2 15 15 -8 8 -15 12 -33 8 -39z m-86 30
c-6 -18 -28 -21 -28 -4 0 9 7 16 16 16 9 0 14 -5 12 -12z m147 -38 c-10 -16
-36 16 -29 35 6 14 8 13 21 -5 8 -11 11 -25 8 -30z m-100 21 c3 -5 1 -12 -5
-16 -5 -3 -10 1 -10 9 0 18 6 21 15 7z m-131 -32 c-3 -5 -10 -7 -15 -3 -5 3
-7 10 -3 15 3 5 10 7 15 3 5 -3 7 -10 3 -15z m93 -38 c-10 -12 -12 -12 -15 2
-2 10 -8 17 -14 17 -6 0 -6 6 2 15 11 13 14 13 25 -2 10 -14 11 -21 2 -32z
m-49 27 c-3 -7 -12 -14 -21 -16 -12 -2 -15 1 -11 12 7 19 38 22 32 4z m142 -3
c0 -8 -4 -15 -10 -15 -5 0 -10 7 -10 15 0 8 5 15 10 15 6 0 10 -7 10 -15z
m-43 -9 c-5 -16 -27 -19 -27 -3 0 7 7 14 15 14 9 0 14 -5 12 -11z m73 -16 c-6
-11 -15 -20 -20 -20 -16 0 -11 18 8 29 24 14 24 14 12 -9z m-238 -5 c0 -5 -5
-11 -11 -13 -6 -2 -11 4 -11 13 0 9 5 15 11 13 6 -2 11 -8 11 -13z m46 -17
c-3 -7 -12 -14 -21 -16 -12 -2 -15 1 -11 12 7 19 38 22 32 4z m79 -21 c-6 -20
-27 -19 -27 2 0 14 5 19 15 14 9 -3 14 -10 12 -16z m63 8 c0 -8 -4 -15 -10
-15 -5 0 -10 7 -10 15 0 8 5 15 10 15 6 0 10 -7 10 -15z m-118 -27 c-15 -15
-26 -4 -18 18 5 13 9 15 18 6 9 -9 9 -15 0 -24z"/>
<path d="M815 1710 c-5 -15 -3 -26 4 -28 6 -2 11 -14 11 -27 0 -13 5 -27 10
-30 15 -9 12 37 -4 76 -13 32 -14 32 -21 9z"/>
<path d="M2160 1634 c0 -8 4 -13 9 -9 5 3 11 -5 13 -17 2 -13 9 -22 15 -21 6
1 9 -6 6 -16 -3 -13 2 -20 21 -25 16 -4 26 -13 26 -25 0 -12 9 -21 25 -25 14
-4 25 -13 25 -20 0 -8 6 -16 14 -19 10 -4 13 -15 10 -32 -3 -17 1 -27 11 -31
8 -4 15 -15 15 -25 0 -22 28 -69 41 -69 10 0 0 83 -11 90 -17 12 -40 80 -49
144 -6 39 -17 76 -26 85 -15 15 -16 13 -13 -21 1 -21 -1 -40 -4 -43 -10 -10
-48 14 -48 30 0 7 -9 16 -19 20 -11 3 -23 15 -26 26 -8 23 -35 26 -35 3z"/>
<path d="M5206 1624 c-4 -9 -4 -19 -1 -22 2 -3 7 3 11 12 4 9 4 19 1 22 -2 3
-7 -3 -11 -12z"/>
<path d="M2090 1599 c0 -6 -9 -8 -20 -4 -12 4 -26 0 -36 -9 -16 -16 -10 -41 7
-31 5 4 9 -2 9 -12 0 -14 2 -15 9 -4 5 8 7 21 4 30 -5 13 -3 14 8 4 7 -7 20
-13 30 -13 12 0 15 -7 13 -27 -1 -15 4 -35 12 -44 9 -10 14 -32 12 -58 -3 -34
-6 -40 -20 -35 -13 4 -16 1 -12 -10 3 -9 10 -16 14 -16 5 0 11 -8 14 -18 7
-21 66 -27 66 -7 0 7 -5 15 -12 17 -8 3 -11 26 -10 67 1 56 -2 66 -33 110 -19
27 -35 53 -35 60 0 6 -4 11 -10 11 -5 0 -10 -5 -10 -11z"/>
<path d="M881 1530 c-7 -19 -19 -50 -27 -68 -8 -18 -14 -37 -14 -42 0 -25 -36
-89 -52 -93 -19 -5 -25 -27 -7 -27 6 0 18 -7 27 -16 12 -13 16 -37 17 -105 0
-60 4 -89 11 -89 7 0 15 -11 18 -25 4 -16 13 -25 26 -25 11 0 20 -7 20 -15 0
-10 10 -15 29 -15 16 0 31 -6 34 -13 2 -7 20 -14 38 -15 19 -1 42 -5 51 -8 17
-5 19 -1 32 99 3 20 1 37 -5 37 -5 0 -9 -6 -10 -12 0 -7 -5 0 -11 15 -8 22
-13 26 -24 16 -11 -9 -14 -8 -14 7 0 16 -2 17 -11 4 -8 -12 -9 -10 -4 7 7 25
-12 42 -21 19 -8 -20 -24 -21 -24 -1 0 8 6 15 14 15 8 0 17 8 19 18 4 16 5 16
6 0 0 -10 8 -18 16 -18 9 0 12 -6 9 -15 -5 -11 1 -15 20 -15 18 0 24 -4 20
-15 -4 -9 0 -15 10 -15 17 0 22 25 6 35 -5 3 -10 16 -9 28 0 22 -8 68 -17 97
-4 12 -6 13 -14 0 -5 -8 -12 -11 -17 -7 -4 4 -2 17 5 27 7 11 12 26 12 34 0
21 -49 116 -61 116 -5 0 -9 6 -9 14 0 9 -7 12 -20 9 -11 -3 -20 -12 -20 -19 0
-8 -6 -14 -14 -14 -8 0 -17 -8 -21 -17 -6 -15 -9 -13 -16 11 -7 25 2 59 22 76
3 3 3 16 -1 30 -6 24 -6 23 -19 -10z m129 -216 c0 -8 -5 -12 -10 -9 -6 4 -8
11 -5 16 9 14 15 11 15 -7z m0 -58 c0 -8 5 -16 12 -18 6 -2 8 -10 4 -16 -6 -9
-14 -7 -31 10 -24 23 -24 38 1 38 8 0 14 -6 14 -14z m37 -68 c-3 -8 -6 -5 -6
6 -1 11 2 17 5 13 3 -3 4 -12 1 -19z m-107 -47 c0 -6 -4 -13 -10 -16 -5 -3
-10 1 -10 9 0 9 5 16 10 16 6 0 10 -4 10 -9z m24 -36 c-4 -8 -10 -15 -15 -15
-5 0 -9 7 -9 15 0 8 7 15 15 15 9 0 12 -6 9 -15z m35 -25 c0 -10 -3 -8 -9 5
-12 27 -12 43 0 25 5 -8 9 -22 9 -30z m-69 -5 c0 -8 -2 -15 -4 -15 -2 0 -6 7
-10 15 -3 8 -1 15 4 15 6 0 10 -7 10 -15z m120 6 c0 -6 -9 -9 -20 -8 -11 1
-20 5 -20 9 0 4 9 8 20 8 11 0 20 -4 20 -9z m-80 -20 c0 -6 -4 -13 -10 -16 -5
-3 -10 1 -10 9 0 9 5 16 10 16 6 0 10 -4 10 -9z m100 -12 c0 -11 -4 -17 -10
-14 -5 3 -10 -1 -10 -9 0 -9 -4 -16 -10 -16 -14 0 -13 8 8 35 21 30 22 30 22
4z m-80 -25 c0 -8 -4 -12 -10 -9 -5 3 -10 10 -10 16 0 5 5 9 10 9 6 0 10 -7
10 -16z m24 1 c-4 -8 -8 -15 -10 -15 -2 0 -4 7 -4 15 0 8 4 15 10 15 5 0 7 -7
4 -15z"/>
<path d="M1999 1518 c-1 -24 -3 -57 -5 -75 -3 -26 -1 -31 12 -26 13 5 15 2 9
-15 -4 -16 -2 -22 8 -22 10 0 13 -11 11 -41 -2 -31 1 -39 11 -35 10 3 12 -3
10 -26 -3 -23 -1 -29 10 -24 10 4 14 -1 12 -17 -1 -15 3 -21 13 -20 13 2 15
-5 12 -32 -3 -21 0 -35 7 -35 6 0 11 19 11 45 0 25 -4 45 -10 45 -5 0 -10 13
-10 29 0 16 -6 31 -15 35 -19 7 -20 26 -1 26 17 0 28 38 14 46 -6 4 -14 1 -18
-6 -13 -21 -29 -2 -25 30 3 21 0 30 -10 30 -9 0 -12 6 -9 15 3 8 -1 28 -10 45
-8 17 -13 37 -10 45 3 7 1 16 -5 20 -7 4 -11 -9 -12 -37z"/>
<path d="M777 1498 c-7 -24 -1 -38 14 -38 17 0 21 29 6 44 -13 14 -15 13 -20
-6z"/>
<path d="M1860 1489 c0 -6 -8 -8 -18 -5 -12 4 -21 -1 -27 -17 -6 -13 -17 -21
-28 -19 -9 2 -17 -2 -17 -8 0 -5 5 -10 11 -10 7 0 9 -12 7 -31 -3 -17 0 -33 6
-35 7 -3 10 -24 8 -54 -3 -40 -1 -49 10 -45 11 4 13 -2 10 -30 -3 -21 0 -35 7
-35 6 0 11 -19 12 -42 0 -24 3 -37 6 -30 8 21 23 13 20 -10 -1 -13 3 -22 10
-21 7 2 10 -8 8 -27 -2 -16 0 -32 6 -35 5 -4 9 13 9 39 0 25 -4 46 -10 46 -5
0 -10 7 -10 15 0 8 -5 15 -10 15 -7 0 -10 20 -9 49 2 38 6 48 17 43 23 -8 9
21 -16 34 -12 6 -20 13 -17 16 3 3 -1 11 -10 18 -8 7 -15 25 -15 41 0 15 -4
31 -10 34 -16 10 -12 45 5 45 8 0 15 6 15 14 0 13 20 26 40 26 4 0 10 -9 13
-21 3 -12 10 -19 15 -16 4 3 6 -7 4 -23 -3 -20 1 -32 11 -36 9 -3 13 -13 10
-25 -3 -10 -9 -16 -14 -13 -5 3 -9 -1 -9 -10 0 -8 6 -17 13 -20 8 -3 7 -9 -7
-20 -21 -17 -13 -36 15 -36 11 0 18 -4 15 -9 -4 -5 -3 -17 0 -26 5 -13 8 -14
15 -3 7 10 9 10 9 -2 0 -13 1 -13 10 0 17 26 11 46 -16 59 -22 10 -25 15 -19
44 4 17 12 35 18 39 7 4 3 23 -13 55 -14 26 -27 50 -31 53 -3 3 -8 13 -12 23
-7 18 -37 24 -37 6z"/>
<path d="M5121 1443 c0 -6 -17 -28 -36 -49 -19 -20 -35 -38 -35 -40 0 -8 -40
-44 -49 -44 -5 0 -11 -6 -14 -14 -4 -9 -14 -12 -27 -9 -13 4 -25 -1 -33 -11
-9 -12 -23 -16 -50 -13 -31 4 -37 1 -37 -14 0 -11 3 -18 8 -18 21 4 31 -3 25
-16 -3 -9 -2 -15 3 -14 27 5 54 -2 48 -12 -3 -6 -2 -14 4 -18 14 -8 3 -61 -13
-61 -13 0 -35 -49 -35 -76 0 -27 20 -14 21 14 1 25 2 25 11 -8 29 -106 43
-140 55 -136 7 3 15 -5 19 -19 4 -16 13 -25 25 -25 14 0 19 -7 19 -26 0 -15 4
-23 10 -19 6 4 23 4 39 0 22 -5 28 -11 24 -24 -4 -15 2 -19 31 -23 20 -2 36 0
36 4 0 4 6 8 14 8 7 0 16 10 19 23 2 12 12 49 22 82 14 53 29 172 27 215 -9
127 -28 213 -47 210 -5 -1 -12 8 -17 19 -7 21 -48 30 -48 11 0 -5 -8 -10 -17
-10 -9 0 -25 -8 -36 -17 -20 -18 -20 -17 -14 16 4 18 19 44 33 56 18 16 24 29
21 46 -2 13 -5 19 -6 12z m83 -284 c-3 -5 -10 -7 -15 -3 -5 3 -7 10 -3 15 3 5
10 7 15 3 5 -3 7 -10 3 -15z m28 -41 c-9 -9 -12 -7 -12 12 0 19 3 21 12 12 9
-9 9 -15 0 -24z m-75 -2 c-5 -16 -27 -19 -27 -3 0 7 7 14 15 14 9 0 14 -5 12
-11z m37 -11 c-4 -8 -10 -15 -15 -15 -5 0 -9 7 -9 15 0 8 7 15 15 15 9 0 12
-6 9 -15z m8 -37 c-6 -6 -15 -8 -19 -4 -4 4 -1 11 7 16 19 12 27 3 12 -12z
m-252 -14 c0 -8 -6 -14 -14 -14 -9 0 -12 7 -9 20 6 22 23 18 23 -6z m197 -16
c-3 -7 -5 -2 -5 12 0 14 2 19 5 13 2 -7 2 -19 0 -25z m83 -9 c0 -5 -4 -9 -10
-9 -5 0 -10 7 -10 16 0 8 5 12 10 9 6 -3 10 -10 10 -16z m-122 -1 c-2 -5 -8
-9 -13 -9 -5 0 -11 4 -13 9 -1 5 4 9 13 9 9 0 14 -4 13 -9z m-65 -25 c-3 -7
-9 -13 -14 -13 -5 0 -9 6 -9 13 0 8 6 14 14 14 8 0 12 -6 9 -14z m141 2 c-4
-8 -1 -15 4 -15 8 0 8 -9 1 -30 -16 -44 -28 -37 -26 15 1 28 7 45 14 45 7 0
10 -7 7 -15z m-34 -26 c0 -5 -4 -9 -10 -9 -5 0 -10 7 -10 16 0 8 5 12 10 9 6
-3 10 -10 10 -16z m-80 -20 c0 -5 -4 -9 -10 -9 -5 0 -10 7 -10 16 0 8 5 12 10
9 6 -3 10 -10 10 -16z m40 1 c0 -11 -4 -20 -10 -20 -5 0 -10 9 -10 20 0 11 5
20 10 20 6 0 10 -9 10 -20z m115 -2 c-15 -48 -41 -52 -29 -4 3 14 13 26 21 26
10 0 12 -6 8 -22z m-198 -12 c-5 -16 -27 -19 -27 -3 0 7 7 14 15 14 9 0 14 -5
12 -11z m93 -26 c0 -5 -4 -10 -9 -10 -6 0 -13 5 -16 10 -3 6 1 10 9 10 9 0 16
-4 16 -10z m-70 -21 c0 -5 -4 -9 -10 -9 -5 0 -10 7 -10 16 0 8 5 12 10 9 6 -3
10 -10 10 -16z m165 2 c3 -5 1 -12 -5 -16 -5 -3 -10 1 -10 9 0 18 6 21 15 7z
m-44 -11 c5 0 9 -4 9 -8 0 -5 -13 -9 -30 -9 -16 0 -30 3 -30 7 0 13 14 21 28
15 7 -3 18 -5 23 -5z m-91 -26 c0 -8 -4 -14 -10 -14 -5 0 -10 9 -10 21 0 11 5
17 10 14 6 -3 10 -13 10 -21z m31 -17 c-13 -13 -26 -3 -16 12 3 6 11 8 17 5 6
-4 6 -10 -1 -17z m89 -6 c0 -6 -4 -13 -10 -16 -5 -3 -10 1 -10 9 0 9 5 16 10
16 6 0 10 -4 10 -9z m-40 -20 c0 -6 -4 -13 -10 -16 -5 -3 -10 1 -10 9 0 9 5
16 10 16 6 0 10 -4 10 -9z"/>
<path d="M1655 1387 c-25 -27 -31 -42 -33 -89 -2 -31 2 -59 7 -62 6 -4 8 -20
4 -36 -3 -19 -1 -30 6 -30 6 0 11 -16 11 -35 0 -19 4 -35 9 -35 4 0 6 -11 4
-24 -3 -13 0 -27 6 -30 6 -4 11 -30 11 -57 0 -31 4 -48 10 -44 6 3 10 -4 10
-16 0 -21 1 -21 23 7 12 17 28 29 34 27 14 -5 43 20 43 36 0 6 7 11 15 11 20
0 19 16 -1 24 -9 3 -24 -4 -37 -17 -30 -32 -82 -23 -82 13 0 14 -4 30 -8 37
-4 7 -6 31 -5 53 3 36 6 41 24 37 24 -4 41 12 36 36 -4 18 -28 24 -34 7 -1 -5
-13 -7 -25 -4 -16 5 -24 16 -28 43 -3 20 -9 43 -13 51 -10 21 -3 62 10 58 13
-5 68 46 68 62 0 20 -36 8 -65 -23z"/>
<path d="M4485 1363 c-9 -32 -18 -63 -20 -70 -5 -16 -45 -4 -45 14 0 8 -5 11
-11 8 -6 -4 -16 1 -23 11 -9 12 -19 15 -32 9 -12 -5 -15 -9 -6 -12 6 -3 12
-13 12 -24 0 -10 4 -19 10 -19 5 0 7 -7 4 -15 -4 -11 -2 -13 9 -10 8 4 17 -1
20 -9 4 -9 13 -16 21 -16 16 0 27 -36 20 -66 -3 -12 -1 -25 4 -28 6 -3 8 -15
5 -26 -3 -12 0 -20 7 -20 7 0 10 -7 5 -17 -4 -12 -3 -15 3 -8 14 14 32 85 22
85 -15 0 -3 104 22 188 23 76 24 82 7 82 -13 0 -22 -15 -34 -57z"/>
<path d="M2202 1291 c0 -21 3 -28 13 -25 7 3 12 -1 12 -10 -1 -8 3 -16 8 -17
6 -1 20 -5 32 -10 13 -5 25 -4 28 1 4 6 -1 13 -9 16 -9 3 -16 12 -16 18 0 7
-11 18 -25 24 -14 6 -25 16 -25 22 0 25 -17 7 -18 -19z"/>
<path d="M4256 1255 c-3 -8 -13 -15 -23 -15 -10 0 -28 -11 -41 -24 -17 -19
-19 -24 -6 -22 9 1 20 9 25 18 5 10 17 14 34 11 21 -5 23 -8 14 -25 -8 -15 -8
-22 0 -27 14 -9 2 -81 -14 -81 -7 0 -15 -7 -19 -15 -3 -8 -1 -15 5 -15 5 0 9
-8 7 -17 -2 -15 3 -17 31 -15 28 3 33 1 27 -13 -12 -32 3 -62 32 -61 15 1 27
7 26 14 -1 6 -2 19 -2 27 -1 8 -10 15 -20 15 -32 0 -45 58 -27 125 14 57 7
103 -15 90 -6 -3 -7 1 -4 9 3 9 1 16 -6 16 -6 0 -8 5 -5 10 3 6 2 10 -3 10 -6
0 -12 -7 -16 -15z"/>
<path d="M1490 1250 c0 -5 -8 -10 -19 -10 -11 0 -25 -13 -35 -34 -18 -38 -22
-91 -6 -81 6 4 8 -7 4 -30 -4 -25 -2 -35 5 -30 8 4 9 -5 5 -30 -4 -25 -2 -35
5 -30 7 4 11 -3 11 -19 0 -14 4 -27 9 -31 6 -3 8 -24 5 -46 -3 -28 -2 -39 6
-34 8 5 9 -9 6 -47 -4 -38 -3 -48 4 -36 6 10 19 15 31 13 24 -5 63 30 74 66 4
13 12 26 16 30 14 9 24 104 11 95 -8 -5 -12 4 -12 29 0 29 -3 36 -17 33 -10
-2 -16 -8 -13 -13 3 -6 8 -9 12 -8 3 1 4 -23 1 -54 -4 -40 -2 -54 6 -49 6 4
11 1 11 -9 0 -8 -7 -18 -15 -21 -8 -4 -15 -14 -15 -23 0 -15 -32 -51 -45 -51
-3 0 -5 9 -5 20 0 11 -4 20 -10 20 -5 0 -10 13 -10 28 0 15 -4 32 -9 37 -11
13 -2 85 11 85 12 0 38 26 38 38 0 6 7 12 15 16 13 5 13 9 3 26 -11 17 -11 22
1 29 9 6 11 15 6 27 -4 11 -7 29 -6 42 2 16 -4 25 -17 29 -12 3 -23 11 -26 19
-6 16 -36 19 -36 4z m31 -40 c5 0 9 -16 9 -35 0 -19 4 -35 9 -35 16 0 0 -74
-20 -92 -26 -25 -37 -22 -31 8 3 15 -1 29 -8 34 -7 4 -14 27 -17 51 -4 36 0
49 19 72 18 22 24 25 26 13 2 -9 8 -16 13 -16z"/>
<path d="M2480 1224 c0 -8 -4 -13 -8 -10 -10 6 -42 -29 -42 -45 0 -6 -7 -9
-15 -5 -9 3 -15 0 -15 -10 0 -10 -6 -14 -15 -10 -8 3 -15 1 -15 -4 0 -6 -9
-19 -20 -30 -11 -11 -20 -16 -20 -11 0 5 -13 11 -29 13 -23 3 -31 0 -35 -16
-5 -16 -8 -18 -14 -8 -11 17 -82 29 -82 13 0 -10 20 -16 43 -12 4 0 7 -9 7
-22 0 -16 3 -18 9 -9 6 11 10 10 15 -3 4 -12 14 -16 29 -13 20 4 23 1 19 -19
-2 -13 1 -23 7 -23 7 0 9 5 6 10 -3 6 -2 10 4 10 17 0 9 -70 -9 -80 -12 -6
-16 -22 -16 -62 1 -51 2 -53 28 -53 24 1 27 -2 22 -22 -5 -19 -3 -22 10 -17
14 6 16 2 10 -22 -6 -26 -5 -27 8 -16 11 9 18 10 23 2 3 -5 15 -10 27 -10 14
0 18 -5 14 -16 -8 -22 4 -40 16 -23 7 10 11 11 14 2 3 -6 16 -9 30 -7 14 3 24
0 24 -7 0 -7 9 -9 25 -5 24 6 25 5 19 -21 -7 -25 -6 -27 9 -14 12 10 17 10 17
2 0 -7 10 -12 23 -11 12 1 24 1 27 0 3 -2 16 -3 30 -5 14 -1 44 -5 68 -9 35
-6 42 -5 42 8 0 9 6 16 13 16 7 0 17 24 24 58 6 31 14 65 18 75 5 12 2 17 -11
17 -16 0 -16 2 -4 10 12 8 12 10 -2 15 -9 4 -14 13 -11 21 6 16 -12 19 -22 4
-9 -15 -35 -12 -35 4 0 7 9 16 21 19 17 5 18 8 8 25 -7 11 -19 18 -26 15 -8
-3 -13 3 -13 18 0 24 -46 99 -61 99 -5 0 -9 7 -9 15 0 8 -3 15 -7 15 -5 0 -18
15 -31 34 -25 36 -66 54 -86 37 -7 -6 -22 -9 -33 -6 -12 2 -24 -3 -27 -11 -8
-20 -19 -18 -34 7 -8 12 -9 18 -3 14 7 -3 11 2 11 14 0 14 5 19 15 15 10 -4
15 0 15 11 0 9 4 14 9 11 12 -8 22 20 15 39 -8 20 -24 19 -24 -1z m-50 -174
c0 -5 -2 -10 -4 -10 -3 0 -8 5 -11 10 -3 6 -1 10 4 10 6 0 11 -4 11 -10z m264
-74 c7 3 12 -4 12 -16 0 -11 -1 -20 -2 -20 -8 0 -34 34 -33 43 0 9 2 9 5 0 3
-7 11 -10 18 -7z m-74 -37 c0 -5 5 -7 10 -4 6 3 10 -3 10 -14 0 -13 -5 -19
-14 -15 -16 6 -29 44 -15 44 5 0 9 -5 9 -11z m60 -10 c0 -5 5 -7 10 -4 6 3 10
-1 10 -9 0 -8 7 -16 15 -18 10 -2 12 -7 5 -18 -8 -13 -14 -10 -35 14 -26 31
-31 46 -15 46 6 0 10 -5 10 -11z m-230 -19 c0 -5 -2 -10 -4 -10 -3 0 -8 5 -11
10 -3 6 -1 10 4 10 6 0 11 -4 11 -10z m110 -20 c0 -5 -2 -10 -4 -10 -3 0 -8 5
-11 10 -3 6 -1 10 4 10 6 0 11 -4 11 -10z m-85 -10 c3 -5 1 -10 -4 -10 -6 0
-11 5 -11 10 0 6 2 10 4 10 3 0 8 -4 11 -10z m183 -22 c-14 -12 -24 -15 -26
-8 -5 13 29 41 41 33 4 -3 -2 -14 -15 -25z m-128 12 c0 -5 -4 -10 -10 -10 -5
0 -10 5 -10 10 0 6 5 10 10 10 6 0 10 -4 10 -10z m75 -13 c10 3 12 -2 8 -16
-5 -20 -33 -30 -33 -12 0 5 -3 18 -6 28 -6 14 -4 16 6 6 7 -6 18 -9 25 -6z
m-101 -13 c9 -3 16 -15 16 -25 0 -24 -26 -15 -33 12 -6 21 -5 22 17 13z m200
0 c9 -3 13 -10 10 -15 -3 -5 1 -12 10 -15 8 -3 12 -12 9 -20 -7 -19 -23 -18
-23 2 0 9 -6 14 -12 11 -7 -2 -12 -10 -10 -17 1 -6 -5 -10 -13 -8 -9 2 -16 8
-16 13 -1 6 -5 16 -11 23 -7 8 -7 12 0 12 6 0 14 -4 17 -10 11 -18 27 -11 22
10 -6 22 -5 23 17 14z m-154 -14 c0 -5 -2 -10 -4 -10 -3 0 -8 5 -11 10 -3 6
-1 10 4 10 6 0 11 -4 11 -10z m-80 -10 c0 -5 -2 -10 -4 -10 -3 0 -8 5 -11 10
-3 6 -1 10 4 10 6 0 11 -4 11 -10z m304 -6 c9 -3 16 -12 16 -20 0 -8 5 -14 10
-14 7 0 7 -7 0 -21 -11 -20 -21 -21 -22 -2 0 4 -7 17 -14 28 -22 31 -19 40 10
29z m-214 -16 c0 6 4 12 9 12 10 0 3 -38 -8 -44 -15 -9 -34 12 -27 30 6 16 8
16 16 4 7 -10 10 -11 10 -2z m65 -20 c-6 -17 -4 -20 9 -15 20 8 21 -3 2 -29
-14 -18 -15 -18 -25 6 -5 14 -10 21 -10 17 -1 -5 -6 -5 -11 -2 -14 9 7 45 26
45 11 0 13 -6 9 -22z m-116 3 c15 -10 7 -31 -12 -31 -7 0 -13 9 -14 20 -2 22
4 24 26 11z m-99 -11 c0 -5 -2 -10 -4 -10 -3 0 -8 5 -11 10 -3 6 -1 10 4 10 6
0 11 -4 11 -10z m288 -28 c-5 -23 -28 -27 -28 -4 0 10 7 19 15 19 9 0 15 -7
13 -15z m50 -2 c-7 -11 -16 -20 -20 -20 -13 0 -9 28 5 33 23 10 27 7 15 -13z
m-178 2 c0 -13 -23 -32 -37 -32 -11 0 -11 5 -3 20 10 19 40 28 40 12z m218
-39 c-5 -25 -28 -28 -28 -4 0 12 6 21 16 21 9 0 14 -7 12 -17z m-189 -2 c8 -5
11 -16 8 -26 -8 -20 -23 -13 -30 15 -6 22 0 25 22 11z m64 -4 c10 9 8 -10 -2
-26 -12 -18 -31 -5 -31 21 0 16 3 18 13 9 8 -6 17 -8 20 -4z m67 -26 c-14 -26
-30 -27 -30 -2 0 11 8 21 18 23 24 6 25 3 12 -21z m30 -21 c0 -5 -2 -10 -4
-10 -3 0 -8 5 -11 10 -3 6 -1 10 4 10 6 0 11 -4 11 -10z"/>
<path d="M1980 1158 c0 -23 3 -29 9 -19 7 11 13 7 25 -18 17 -32 41 -35 29 -3
-6 15 -5 15 10 3 15 -12 17 -11 17 3 0 8 -11 18 -24 22 -13 3 -26 14 -29 25
-9 33 -37 23 -37 -13z"/>
<path d="M4121 1118 c-12 -34 -17 -64 -13 -67 15 -11 25 -45 25 -88 0 -24 4
-43 8 -43 5 0 9 -7 9 -15 0 -8 4 -15 10 -15 5 0 7 -14 3 -32 -4 -23 -2 -30 5
-23 6 6 12 21 14 35 2 14 7 30 11 37 4 6 3 13 -2 15 -5 1 -12 23 -16 47 -5 29
-4 41 3 37 12 -7 25 10 29 37 3 21 -13 23 -21 2 -9 -25 -25 -17 -25 13 0 62
-6 122 -13 122 -3 0 -16 -28 -27 -62z"/>
<path d="M352 1130 c-17 -27 -15 -35 4 -16 8 9 14 21 12 26 -2 6 -9 1 -16 -10z"/>
<path d="M3960 1065 c0 -8 5 -15 11 -15 5 0 8 -4 5 -9 -4 -5 -1 -11 5 -13 7
-2 7 -12 0 -30 -6 -17 -7 -29 -1 -33 15 -9 12 -25 -5 -25 -8 0 -15 -8 -15 -17
0 -16 2 -16 11 -3 9 12 10 12 5 -3 -3 -10 -6 -21 -6 -23 0 -2 -7 -4 -15 -4
-24 0 -17 -17 10 -24 14 -4 25 -11 25 -16 0 -6 9 -10 21 -10 16 0 19 -4 14
-17 -12 -32 -10 -38 8 -35 10 2 21 -6 27 -20 l9 -23 6 22 c4 11 17 24 28 28
21 7 21 7 2 12 -11 3 -24 12 -30 20 -6 8 -17 13 -25 11 -11 -2 -14 5 -13 25 1
21 -3 27 -18 27 -10 0 -19 5 -19 12 0 26 25 78 37 78 7 0 13 5 13 10 0 6 -4
10 -9 10 -5 0 -12 11 -15 25 -4 14 -11 25 -16 25 -6 0 -10 7 -10 15 0 8 -9 15
-20 15 -11 0 -20 -7 -20 -15z"/>
<path d="M3537 1049 c-12 -7 -15 -17 -11 -35 4 -14 2 -24 -5 -24 -6 0 -11 5
-11 10 0 14 -57 13 -66 -1 -4 -8 1 -9 17 -4 21 7 22 6 7 -9 -20 -19 -34 -21
-42 -3 -3 8 -11 5 -24 -10 -11 -12 -22 -19 -26 -16 -3 3 -13 0 -22 -8 -9 -8
-22 -14 -28 -15 -31 -3 -36 -5 -36 -12 0 -4 8 -8 18 -9 26 -1 116 -11 122 -13
18 -7 38 -3 54 10 10 8 20 13 23 10 3 -4 19 23 54 93 6 11 5 17 -2 17 -6 0 -9
7 -5 15 6 18 6 18 -17 4z m-35 -94 c0 -5 -5 -11 -11 -13 -6 -2 -11 4 -11 13 0
9 5 15 11 13 6 -2 11 -8 11 -13z m-72 -26 c0 -5 -7 -9 -15 -9 -15 0 -20 12 -9
23 8 8 24 -1 24 -14z"/>
<path d="M3893 1033 c-3 -10 -8 -21 -10 -25 -2 -5 3 -8 11 -8 9 0 16 7 16 16
0 8 4 13 9 10 5 -3 14 1 21 9 11 13 8 15 -14 15 -16 0 -29 -7 -33 -17z"/>
<path d="M4520 1001 c-8 -9 -25 -28 -36 -43 -12 -15 -24 -24 -28 -21 -3 3 -6
-1 -6 -10 0 -9 -6 -17 -12 -17 -7 -1 -24 -14 -38 -30 -13 -17 -34 -30 -47 -30
-12 0 -30 -8 -40 -19 -10 -10 -27 -17 -38 -15 -28 5 -65 -4 -65 -17 0 -6 4 -8
9 -4 5 3 16 -2 24 -10 9 -8 24 -15 35 -15 11 0 26 -10 34 -22 12 -19 13 -28 2
-53 -6 -16 -16 -30 -21 -29 -4 1 -13 -23 -19 -52 -9 -49 -9 -54 8 -54 12 0 18
-7 18 -21 0 -11 4 -18 9 -15 5 4 7 -3 4 -13 -3 -12 0 -19 9 -18 37 1 48 -4 49
-25 0 -13 3 -17 6 -10 2 6 10 9 16 5 7 -4 25 -8 41 -9 16 -1 31 -6 35 -11 3
-5 37 -15 75 -21 59 -9 71 -9 85 5 20 20 61 144 52 158 -3 6 -7 37 -8 70 -3
103 -9 150 -18 165 -5 8 -10 17 -11 20 -12 39 -19 50 -31 50 -11 0 -13 7 -9
25 4 14 2 25 -4 25 -5 0 -10 -4 -10 -10 0 -5 -9 -10 -19 -10 -11 0 -23 -4 -26
-10 -3 -5 -13 -10 -22 -10 -9 0 -22 -8 -29 -17 -7 -10 -15 -15 -19 -11 -10 9
5 68 17 68 12 0 32 20 46 47 15 27 3 36 -18 14z m105 -241 c0 -7 -5 -15 -12
-17 -7 -3 -11 4 -10 16 1 23 22 23 22 1z m26 -43 c-13 -13 -26 -3 -16 12 3 6
11 8 17 5 6 -4 6 -10 -1 -17z m-89 -29 c-9 -9 -12 -7 -12 12 0 19 3 21 12 12
9 -9 9 -15 0 -24z m51 0 c7 -23 1 -38 -14 -38 -5 0 -9 14 -9 30 0 35 15 40 23
8z m-41 -43 c0 -5 -5 -11 -11 -13 -6 -2 -11 4 -11 13 0 9 5 15 11 13 6 -2 11
-8 11 -13z m78 -4 c0 -12 -20 -25 -27 -18 -7 7 6 27 18 27 5 0 9 -4 9 -9z
m-120 -33 c0 -5 -4 -8 -10 -8 -5 0 -10 10 -10 23 0 18 2 19 10 7 5 -8 10 -18
10 -22z m-70 -25 c0 -7 -4 -13 -10 -13 -5 0 -10 12 -10 28 0 21 2 24 10 12 5
-8 10 -21 10 -27z m147 12 c7 -16 8 -27 1 -31 -12 -8 -15 -4 -23 29 -9 34 6
35 22 2z m-32 -4 c3 -5 1 -12 -5 -16 -5 -3 -10 1 -10 9 0 18 6 21 15 7z m75
-16 c0 -8 -4 -15 -10 -15 -5 0 -10 7 -10 15 0 8 5 15 10 15 6 0 10 -7 10 -15z
m-153 -19 c-5 -16 -27 -19 -27 -3 0 7 7 14 15 14 9 0 14 -5 12 -11z m37 -1
c-5 -11 1 -15 20 -15 16 0 26 -6 26 -15 0 -18 -12 -19 -28 -3 -9 9 -12 9 -12
0 0 -20 -17 -13 -23 10 -6 23 -1 38 13 38 5 0 7 -7 4 -15z m-89 -23 c0 -18
-20 -15 -23 4 -3 10 1 15 10 12 7 -3 13 -10 13 -16z m215 3 c0 -8 -4 -15 -10
-15 -5 0 -10 7 -10 15 0 8 5 15 10 15 6 0 10 -7 10 -15z m-40 -14 c0 -6 -4
-13 -10 -16 -5 -3 -10 1 -10 9 0 9 5 16 10 16 6 0 10 -4 10 -9z m-140 -27 c0
-8 -4 -14 -10 -14 -5 0 -10 9 -10 21 0 11 5 17 10 14 6 -3 10 -13 10 -21z
m163 0 c9 -9 -4 -35 -14 -28 -5 3 -9 12 -9 20 0 14 12 19 23 8z m-141 -36 c-9
-9 -12 -7 -12 12 0 19 3 21 12 12 9 -9 9 -15 0 -24z m38 7 c0 -8 -4 -15 -10
-15 -5 0 -10 7 -10 15 0 8 5 15 10 15 6 0 10 -7 10 -15z m52 -17 c-9 -9 -12
-7 -12 12 0 19 3 21 12 12 9 -9 9 -15 0 -24z"/>
<path d="M5641 1004 c0 -11 3 -14 6 -6 3 7 2 16 -1 19 -3 4 -6 -2 -5 -13z"/>
<path d="M3827 993 c-13 -13 -7 -22 11 -16 14 5 15 3 5 -8 -16 -16 -17 -49 -2
-49 6 0 8 -7 5 -16 -16 -42 -19 -67 -6 -59 9 6 10 0 5 -24 -6 -26 -4 -30 10
-24 16 6 16 4 0 -20 -16 -25 -16 -27 -1 -33 10 -4 15 -13 12 -20 -3 -8 1 -14
9 -14 11 0 12 -5 5 -25 -7 -20 -6 -25 5 -25 9 0 15 10 15 24 0 14 5 28 10 31
6 4 8 11 4 16 -3 5 -10 6 -16 3 -7 -5 -8 -2 -3 6 4 7 2 16 -6 20 -17 11 5 90
26 90 8 0 15 5 15 10 0 6 -8 10 -18 10 -22 0 -45 36 -37 60 3 10 2 21 -4 24
-5 3 -7 15 -4 26 4 15 0 20 -14 20 -11 0 -23 -3 -26 -7z"/>
<path d="M1199 983 c-12 -133 -13 -135 -34 -127 -8 3 -15 10 -15 15 0 13 -41
52 -47 45 -3 -3 2 -17 11 -31 9 -14 14 -30 11 -35 -4 -6 0 -13 8 -16 8 -3 17
-15 20 -26 3 -11 10 -17 16 -13 6 3 11 -2 11 -13 0 -10 3 -22 7 -26 6 -6 9
-27 13 -98 1 -9 8 -19 17 -22 14 -6 15 1 7 51 -10 74 -11 151 -1 236 6 57 5
67 -8 67 -8 0 -15 -3 -16 -7z"/>
<path d="M3700 940 c0 -5 -6 -10 -14 -10 -8 0 -17 -7 -20 -16 -3 -9 -13 -14
-20 -11 -8 3 -17 -1 -20 -10 -4 -11 -2 -14 9 -9 8 3 15 1 15 -4 0 -19 21 -10
30 13 5 12 9 16 9 8 1 -11 4 -11 16 -1 8 7 13 16 10 20 -3 4 3 7 12 6 9 0 18
5 20 12 3 7 -5 12 -21 12 -14 0 -26 -4 -26 -10z"/>
<path d="M728 873 c-3 -27 -4 -90 -2 -142 2 -79 6 -96 21 -105 10 -5 30 -22
45 -36 l26 -27 5 31 c3 17 -4 81 -14 141 -10 61 -19 121 -19 134 0 23 -24 50
-46 51 -6 0 -14 -21 -16 -47z"/>
<path d="M1756 809 c-48 -49 -74 -69 -87 -66 -10 3 -26 -1 -35 -8 -10 -7 -34
-10 -56 -8 -42 5 -53 -11 -13 -21 14 -4 22 -11 19 -19 -3 -8 8 -16 28 -22 18
-6 31 -14 30 -19 -2 -5 3 -13 12 -18 12 -7 13 -14 4 -38 -5 -17 -14 -30 -20
-30 -6 0 -8 -7 -5 -15 4 -8 2 -17 -3 -20 -6 -4 -10 -16 -10 -28 1 -22 1 -22
15 -3 8 11 15 16 15 10 0 -5 5 -1 11 9 5 9 14 17 19 17 17 0 11 -39 -7 -49
-16 -9 -17 -10 -2 -16 11 -4 15 -14 12 -26 -3 -10 0 -19 6 -19 6 0 11 -7 11
-15 0 -8 5 -15 11 -15 6 0 9 -7 5 -15 -5 -15 26 -39 38 -28 3 3 6 1 6 -6 0 -7
5 -9 10 -6 6 3 10 -3 10 -14 0 -12 6 -22 13 -22 6 -1 17 -2 22 -4 6 -1 15 -3
22 -3 6 -1 9 -11 6 -24 -3 -13 -2 -20 2 -16 4 4 22 1 40 -7 19 -7 36 -11 38
-8 3 2 14 0 25 -6 15 -8 22 -8 25 2 4 8 8 9 14 1 4 -6 16 -10 26 -8 9 1 17 -2
17 -7 0 -6 5 -7 11 -4 6 4 8 13 5 21 -3 8 -1 14 4 14 6 0 10 -5 10 -12 0 -6 3
-8 8 -4 12 13 31 140 21 150 -5 6 -9 23 -9 38 0 15 -4 28 -10 28 -5 0 -7 13
-4 29 5 22 1 35 -15 52 -13 14 -21 36 -21 56 0 18 -4 33 -10 33 -5 0 -10 9
-10 20 0 11 -5 20 -11 20 -6 0 -9 7 -5 15 3 9 0 15 -9 15 -8 0 -15 9 -15 20 0
11 -7 20 -15 20 -9 0 -19 10 -24 21 -8 22 -61 37 -61 18 0 -5 -10 -9 -22 -9
-12 0 -30 -7 -40 -17 -17 -15 -18 -14 -18 21 0 36 18 66 38 66 10 0 22 23 22
41 0 23 -30 3 -94 -62z m109 -119 c3 -5 1 -10 -4 -10 -6 0 -11 5 -11 10 0 6 2
10 4 10 3 0 8 -4 11 -10z m125 -86 c0 -1 -3 -9 -6 -18 -8 -22 -24 -20 -24 2 0
10 7 19 15 19 8 0 15 -1 15 -3z m-190 -24 c0 -5 -4 -10 -10 -10 -5 0 -10 5
-10 10 0 6 5 10 10 10 6 0 10 -4 10 -10z m230 -46 c0 -8 -6 -11 -15 -8 -8 4
-15 15 -15 26 0 17 3 18 15 8 8 -7 15 -19 15 -26z m-97 6 c-6 -24 -33 -27 -33
-4 0 8 4 13 9 9 5 -3 12 -1 16 5 10 16 14 12 8 -10z m45 -9 c-2 -9 -11 -17
-20 -19 -12 -2 -15 2 -11 16 5 22 35 25 31 3z m16 -45 c-3 -9 -10 -16 -15 -16
-14 0 -11 28 4 33 16 6 19 3 11 -17z m-54 -23 c0 -7 -4 -13 -10 -13 -5 0 -10
12 -10 28 0 21 2 24 10 12 5 -8 10 -21 10 -27z m-51 -22 c-3 -6 -10 -7 -18 -2
-7 5 -10 14 -6 21 9 14 29 -2 24 -19z m161 23 c0 -1 -3 -9 -6 -18 -8 -22 -34
-20 -34 2 0 11 7 18 20 18 11 0 20 -1 20 -2z m-230 -25 c-13 -24 -30 -25 -30
-1 0 11 8 18 20 19 17 2 18 -1 10 -18z m159 12 c12 -8 10 -14 -10 -35 -29 -31
-39 -32 -39 -5 0 11 5 17 10 14 6 -3 10 3 10 14 0 23 7 26 29 12z m-119 -57
c0 -8 -6 -14 -14 -14 -8 0 -14 8 -13 19 1 21 27 17 27 -5z m140 -4 c-8 -15
-15 -19 -22 -12 -12 12 -1 35 13 27 5 -4 9 -1 9 6 0 7 3 10 6 7 3 -4 0 -16 -6
-28z m-92 -9 c-2 -9 3 -15 10 -13 14 2 14 0 6 -22 -8 -20 -24 -21 -24 -1 0 8
-4 15 -10 15 -5 0 -10 11 -10 25 0 18 4 23 15 19 9 -4 14 -14 13 -23z m146 5
c-3 -13 -1 -27 5 -30 6 -4 11 -2 11 5 0 7 3 9 6 6 8 -7 -14 -37 -27 -37 -5 0
-6 7 -3 15 4 9 0 15 -10 15 -9 0 -16 8 -16 20 0 13 5 18 15 14 8 -4 15 -1 15
5 0 6 2 11 5 11 3 0 3 -11 -1 -24z m-244 -7 c-13 -24 -30 -25 -30 -1 0 11 8
18 20 19 17 2 18 -1 10 -18z m150 -20 c0 -5 5 -7 10 -4 12 8 13 -5 0 -25 -5
-8 -12 -11 -16 -7 -12 12 -15 47 -4 47 6 0 10 -5 10 -11z m-114 -7 c6 -4 8
-16 4 -26 -7 -20 -12 -16 -23 17 -7 18 1 22 19 9z m174 -22 c0 -5 -4 -12 -10
-15 -5 -3 -10 -4 -10 -1 0 2 -3 12 -6 20 -5 12 -2 15 10 10 9 -3 16 -10 16
-14z m-120 -18 c0 -2 -5 -12 -10 -23 -14 -26 -30 -24 -30 4 0 16 6 23 20 23
11 0 20 -2 20 -4z m50 -10 c0 -5 -6 -17 -14 -28 -14 -18 -15 -18 -22 0 -4 11
-2 21 7 27 18 11 29 11 29 1z m110 -13 c-6 -11 -15 -17 -21 -14 -16 11 -10 31
11 32 17 2 18 -1 10 -18z m-52 -17 c-5 -27 -28 -26 -28 2 0 19 4 24 15 19 9
-3 15 -12 13 -21z"/>
<path d="M3579 853 c-6 -16 -15 -36 -20 -45 -12 -24 -11 -28 4 -28 9 0 12 -10
10 -32 -4 -27 -2 -30 7 -18 10 12 11 12 5 -5 -12 -33 -11 -50 2 -48 9 2 11 -6
6 -27 -5 -27 -3 -29 13 -23 16 6 17 4 7 -8 -19 -23 -25 -78 -11 -93 16 -15 38
-10 38 10 0 8 6 14 14 14 8 0 17 7 20 15 4 13 10 14 26 5 25 -14 41 -5 33 18
-6 15 -5 15 11 3 15 -13 18 -12 23 8 3 12 12 20 21 19 8 -2 17 3 19 10 7 17
-42 15 -57 -3 -7 -8 -16 -13 -20 -10 -4 3 -10 -1 -13 -9 -4 -10 -21 -14 -52
-14 -39 0 -44 2 -34 14 9 11 9 21 0 40 -8 19 -8 30 1 47 7 12 11 25 10 30 -1
4 9 5 23 3 14 -3 28 1 32 8 5 7 17 16 28 21 19 8 19 9 -4 13 -14 2 -28 -2 -32
-11 -11 -18 -59 -11 -59 9 0 8 -5 14 -10 14 -6 0 -8 11 -4 25 4 16 2 25 -6 25
-8 0 -10 9 -6 25 9 34 -12 32 -25 -2z"/>
<path d="M1049 847 c-20 -16 -31 -45 -19 -52 6 -4 10 1 10 9 0 9 6 16 14 16
10 0 16 -20 21 -68 6 -59 4 -73 -14 -103 -12 -19 -21 -29 -22 -24 -1 6 -2 17
-3 25 -2 8 -3 32 -4 53 -2 42 -22 42 -22 0 0 -38 29 -184 42 -210 18 -37 28
-16 14 30 -13 44 -10 117 5 117 5 0 9 -12 9 -26 0 -14 4 -23 8 -20 15 9 7 198
-8 233 -13 27 -18 30 -31 20z"/>
<path d="M5625 821 c-3 -5 -1 -12 5 -16 5 -3 10 1 10 9 0 18 -6 21 -15 7z"/>
<path d="M3366 791 c-3 -5 -15 -7 -26 -4 -11 3 -26 0 -34 -6 -8 -7 -19 -10
-25 -9 -7 2 -18 -12 -26 -30 -14 -32 -14 -34 5 -39 15 -4 17 -9 10 -23 -14
-27 -13 -30 13 -30 16 0 18 -3 8 -9 -7 -5 -10 -14 -7 -20 4 -6 2 -11 -5 -11
-8 0 -8 -4 1 -15 7 -8 17 -12 23 -8 7 4 8 0 4 -11 -4 -10 -1 -24 8 -32 11 -11
12 -21 5 -40 -12 -31 -5 -45 17 -37 12 5 14 3 7 -8 -17 -28 -23 -74 -9 -74 6
0 9 6 9 12 -1 9 8 11 27 8 15 -3 31 -1 34 5 3 6 -4 10 -17 11 -13 0 -17 3 -10
6 16 6 16 23 -1 23 -9 0 -12 10 -9 31 3 20 0 34 -9 40 -11 6 -11 14 -2 39 9
25 9 31 -4 39 -10 5 -14 16 -11 29 4 14 -2 29 -16 44 -19 19 -21 29 -14 54 4
18 16 34 25 38 10 3 28 10 41 16 21 9 23 8 17 -10 -5 -15 -3 -18 9 -14 9 3 16
1 16 -5 0 -6 -4 -11 -8 -11 -15 0 -9 -34 7 -46 13 -10 13 -16 3 -39 -12 -27
-8 -50 8 -40 5 3 7 12 4 20 -4 10 0 12 15 8 12 -3 21 -1 21 6 0 6 -4 11 -8 11
-4 0 -8 9 -9 20 -1 11 2 20 8 20 5 0 9 -5 9 -12 0 -9 3 -9 12 0 8 8 8 15 -1
26 -7 8 -10 23 -7 33 5 14 1 19 -16 20 -12 1 -26 9 -30 18 -10 16 -53 21 -62
6z m-46 -175 c0 -3 -4 -8 -10 -11 -5 -3 -10 -1 -10 4 0 6 5 11 10 11 6 0 10
-2 10 -4z m30 -126 c0 -5 -2 -10 -4 -10 -3 0 -8 5 -11 10 -3 6 -1 10 4 10 6 0
11 -4 11 -10z"/>
<path d="M5620 770 c0 -5 5 -10 10 -10 6 0 10 5 10 10 0 6 -4 10 -10 10 -5 0
-10 -4 -10 -10z"/>
<path d="M5258 733 c-9 -10 -19 -29 -23 -42 -10 -34 -13 -151 -3 -151 5 0 5
-12 2 -26 -11 -45 -8 -108 5 -112 10 -3 11 4 6 27 -7 32 9 89 29 103 5 4 3 19
-7 40 -21 44 -21 137 0 160 9 10 14 18 11 18 -3 0 -12 -8 -20 -17z"/>
<path d="M5620 726 c0 -8 4 -17 9 -20 5 -4 7 3 4 14 -6 23 -13 26 -13 6z"/>
<path d="M945 677 c-4 -10 -2 -23 5 -32 7 -8 10 -26 6 -40 -5 -18 -2 -25 9
-25 17 0 21 49 6 66 -5 5 -11 18 -13 29 -5 18 -6 19 -13 2z"/>
<path d="M5620 609 c0 -119 -18 -294 -36 -359 -12 -40 -14 -77 -10 -137 8
-108 11 -113 53 -113 32 0 34 2 29 28 -5 23 -8 105 -6 162 0 24 -5 54 -13 67
-4 6 -7 37 -6 70 0 32 0 79 0 106 0 26 4 45 9 42 5 -3 5 7 1 22 -4 16 -9 64
-10 108 -3 107 -11 110 -11 4z"/>
<path d="M5085 641 c-51 -30 -65 -72 -60 -181 3 -52 5 -102 5 -110 1 -35 -9
-130 -15 -152 -5 -20 -4 -21 7 -8 7 9 21 14 31 12 9 -2 17 2 17 8 0 6 3 9 8 6
14 -8 41 20 46 50 l6 29 -14 -30 c-9 -16 -15 -26 -16 -21 0 5 -6 3 -13 -3 -21
-17 -34 24 -29 89 2 30 3 84 2 120 -1 36 -2 79 -3 97 0 20 8 40 24 57 29 31
43 33 34 6 -3 -11 -3 -20 2 -20 7 0 8 -55 4 -117 -1 -7 -11 -21 -23 -33 -12
-11 -19 -22 -17 -25 3 -3 15 4 27 15 12 11 23 20 26 20 11 0 16 -62 8 -94 -10
-35 -6 -76 7 -76 11 0 30 84 21 94 -5 5 -5 19 0 32 7 17 5 27 -5 37 -21 22
-29 63 -13 70 19 7 15 91 -6 112 -9 9 -16 21 -16 26 0 13 -10 10 -45 -10z"/>
<path d="M904 618 c-3 -4 2 -11 11 -14 12 -5 15 -14 11 -30 -4 -14 -2 -24 4
-24 5 0 10 17 10 38 0 28 -4 39 -15 39 -9 0 -18 -4 -21 -9z"/>
<path d="M3470 621 c0 -5 5 -11 12 -13 10 -4 10 -13 1 -41 -9 -31 -9 -37 3
-37 8 0 14 -7 12 -16 -2 -10 2 -19 8 -21 16 -6 28 65 14 82 -7 8 -9 23 -5 35
5 17 2 20 -19 20 -14 0 -26 -4 -26 -9z"/>
<path d="M3372 608 c6 -18 28 -21 28 -4 0 9 -7 16 -16 16 -9 0 -14 -5 -12 -12z"/>
<path d="M2955 546 c-3 -34 -9 -66 -13 -72 -12 -19 -44 -11 -53 13 -5 13 -13
21 -19 18 -6 -3 -14 5 -20 19 -6 17 -14 24 -25 20 -22 -9 -19 -35 3 -27 13 5
14 3 5 -7 -13 -14 -6 -43 8 -34 5 3 9 -4 9 -16 0 -12 5 -18 10 -15 6 3 10 1
10 -5 0 -6 5 -8 10 -5 6 3 10 -3 10 -15 0 -12 5 -18 10 -15 6 3 10 0 10 -7 0
-9 3 -9 10 2 8 12 10 9 10 -12 0 -20 4 -26 15 -22 12 5 12 0 5 -27 -10 -35 -5
-53 12 -43 7 5 9 -6 5 -32 -4 -21 -4 -33 -1 -26 11 23 24 12 18 -15 -4 -19 -3
-25 3 -18 15 15 23 84 12 91 -6 3 -8 16 -5 28 2 11 -1 29 -8 39 -10 12 -11 29
-5 60 5 23 12 72 15 108 5 60 4 67 -14 71 -18 5 -21 -1 -27 -56z"/>
<path d="M850 548 c0 -32 3 -39 10 -28 13 20 13 70 0 70 -5 0 -10 -19 -10 -42z"/>
<path d="M1100 571 c0 -4 6 -19 13 -34 15 -33 42 -37 33 -4 -3 12 -6 25 -6 28
0 9 -40 19 -40 10z"/>
<path d="M953 555 c-3 -10 0 -20 7 -25 10 -6 9 -12 -1 -31 l-13 -24 -7 30 c-7
33 -9 26 -15 -57 -2 -27 1 -48 6 -48 6 0 9 -3 9 -7 -4 -22 2 -44 10 -39 5 3 4
25 -1 51 -7 33 -7 50 2 60 14 17 37 10 43 -13 3 -10 5 -5 6 10 0 15 -3 30 -9
33 -5 3 -10 19 -10 35 0 33 -17 49 -27 25z"/>
<path d="M1265 526 c-6 -7 -29 -41 -53 -75 -28 -40 -50 -61 -63 -61 -11 0 -22
-7 -25 -15 -4 -10 -13 -13 -25 -10 -13 4 -19 1 -19 -9 0 -9 5 -16 10 -16 6 0
10 -7 10 -15 0 -8 7 -15 15 -15 8 0 15 -9 15 -20 0 -11 4 -20 9 -20 10 0 2
-50 -11 -67 -5 -7 -7 -16 -5 -20 3 -5 2 -27 -2 -50 -6 -30 -5 -43 4 -47 7 -2
17 -22 22 -43 l9 -38 82 -2 c47 -1 82 2 82 7 0 6 -4 10 -10 10 -5 0 -10 12
-10 26 0 22 2 25 15 14 8 -7 15 -17 15 -22 0 -34 98 -52 127 -22 16 15 17 15
25 -2 4 -11 5 6 1 36 -3 30 -10 58 -16 61 -5 4 -7 17 -4 30 3 14 0 32 -9 43
-8 11 -14 14 -14 8 0 -7 -4 -12 -10 -12 -5 0 -10 12 -10 28 0 21 2 24 10 12
16 -25 12 51 -5 84 -8 15 -12 32 -9 37 3 5 -2 9 -11 9 -11 0 -15 5 -12 14 4 9
-1 17 -12 21 -11 3 -21 15 -24 25 -6 21 -51 28 -62 10 -4 -6 -11 -8 -16 -4 -6
3 -17 -2 -24 -12 -13 -18 -14 -17 -15 13 0 21 9 41 25 57 14 14 25 34 25 46 0
23 -11 26 -25 6z m139 -281 c-4 -8 -10 -15 -15 -15 -5 0 -9 7 -9 15 0 8 7 15
15 15 9 0 12 -6 9 -15z m-58 -73 c-4 -3 -12 0 -19 7 -9 9 -9 14 3 21 11 7 16
5 18 -6 2 -9 1 -18 -2 -22z m46 6 c-4 -17 -2 -20 11 -15 18 7 24 -8 7 -18 -6
-4 -8 -11 -5 -16 4 -5 1 -9 -4 -9 -12 0 -41 61 -34 73 10 18 31 6 25 -15z
m-33 -59 c-13 -26 -19 -24 -19 6 0 17 4 23 15 19 11 -5 12 -11 4 -25z m-49
-19 c-14 -25 -20 -25 -20 0 0 11 7 20 15 20 13 0 14 -4 5 -20z m140 13 c0 -5
-4 -15 -10 -23 -11 -18 -25 -7 -17 15 6 15 27 21 27 8z m-204 -19 c-3 -9 -6
-18 -6 -20 0 -3 -4 -3 -10 1 -11 7 -2 35 12 35 6 0 7 -7 4 -16z m155 -7 c-15
-15 -14 -27 4 -27 17 0 18 -2 9 -24 -9 -23 -24 -20 -24 4 0 11 -4 20 -10 20
-5 0 -10 -4 -10 -10 0 -5 -4 -10 -10 -10 -5 0 -10 9 -10 21 0 11 5 17 10 14 6
-3 10 3 10 13 0 15 5 19 21 15 14 -4 17 -9 10 -16z m-113 -42 c-3 -30 -22 -28
-26 3 -2 15 2 22 12 22 11 0 15 -8 14 -25z m166 -9 c-3 -9 -10 -16 -15 -16
-14 0 -11 28 4 33 16 6 19 3 11 -17z m-214 7 c-1 -18 -18 -35 -24 -24 -4 6 -4
15 -1 21 7 12 25 13 25 3z"/>
<path d="M3770 500 c0 -11 -7 -20 -15 -20 -9 0 -18 -6 -21 -14 -3 -8 -12 -12
-20 -9 -8 3 -14 -1 -14 -11 0 -9 -6 -16 -14 -16 -8 0 -17 -7 -20 -16 -4 -9
-13 -14 -21 -10 -9 3 -15 0 -15 -9 0 -8 -6 -15 -14 -15 -8 0 -16 -6 -19 -13
-3 -8 -20 -12 -46 -11 -28 1 -41 -3 -41 -12 0 -10 -14 -12 -55 -9 -59 4 -86
-11 -36 -21 17 -4 30 -9 29 -13 -2 -19 4 -24 12 -11 6 10 10 11 10 3 0 -7 11
-13 25 -13 17 0 25 -6 25 -17 1 -16 2 -16 16 2 13 18 14 17 8 -15 -9 -54 -12
-60 -27 -54 -7 2 -14 -1 -14 -8 -1 -7 -3 -28 -6 -46 -5 -33 6 -44 17 -16 4 10
12 14 22 10 13 -5 15 -1 12 24 -5 35 -4 36 21 11 20 -20 12 -51 -14 -51 -8 0
-15 -5 -15 -11 0 -6 7 -9 15 -5 12 4 14 0 9 -21 -6 -22 -4 -25 10 -20 14 6 16
3 11 -14 -6 -18 -4 -20 17 -15 12 3 17 3 11 0 -7 -3 -13 -11 -13 -18 0 -9 19
-13 60 -14 43 0 60 3 60 13 0 7 8 15 19 18 14 3 17 0 14 -14 -5 -16 4 -18 97
-18 86 -1 101 2 96 14 -4 10 1 15 14 15 14 0 18 -5 13 -17 -4 -10 -2 -14 5
-10 9 6 24 51 26 79 1 3 4 10 8 14 4 4 3 13 -3 21 -6 7 -9 22 -6 33 3 11 1 23
-5 26 -5 3 -8 16 -7 27 2 12 -3 33 -10 46 -7 13 -11 34 -8 47 2 13 0 24 -4 24
-5 0 -9 5 -9 10 0 20 -44 70 -61 70 -9 0 -19 7 -23 15 -3 9 -18 15 -35 15 -16
0 -31 -6 -35 -15 -3 -9 -18 -15 -35 -15 -18 0 -31 -6 -36 -17 -6 -17 -7 -17
-16 -1 -12 22 5 58 26 58 8 0 15 7 15 15 0 8 6 12 14 9 9 -3 15 4 18 20 3 15
0 27 -8 30 -9 3 -14 -2 -14 -14z m-83 -126 c-3 -3 -12 -4 -19 -1 -8 3 -5 6 6
6 11 1 17 -2 13 -5z m-120 -50 c-3 -3 -12 -4 -19 -1 -8 3 -5 6 6 6 11 1 17 -2
13 -5z m363 -30 c0 -1 -3 -9 -6 -18 -9 -22 -30 -20 -30 3 0 13 7 19 18 18 10
-1 18 -2 18 -3z m30 -50 c0 -9 -5 -14 -12 -12 -18 6 -21 28 -4 28 9 0 16 -7
16 -16z m-383 -10 c-3 -3 -12 -4 -19 -1 -8 3 -5 6 6 6 11 1 17 -2 13 -5z m281
-13 c-2 -9 -11 -17 -20 -19 -12 -2 -15 2 -11 16 5 22 35 25 31 3z m54 -3 c-3
-14 -1 -19 6 -14 7 4 12 3 12 -3 0 -20 -22 -23 -35 -5 -20 26 -18 39 4 41 14
1 17 -3 13 -19z m-212 -12 c0 -3 -4 -8 -10 -11 -5 -3 -10 -1 -10 4 0 6 5 11
10 11 6 0 10 -2 10 -4z m166 -43 c-2 -10 -9 -18 -17 -18 -7 0 -15 8 -17 18 -2
11 3 17 16 17 14 0 19 -6 18 -17z m99 -3 c0 -8 -8 -16 -17 -18 -13 -2 -18 3
-18 18 0 15 5 20 18 18 9 -2 17 -10 17 -18z m-157 -27 c-5 -23 -23 -20 -26 4
-3 18 0 21 13 17 9 -4 15 -13 13 -21z m104 -5 c-4 -16 -2 -19 8 -13 8 5 11 3
8 -5 -8 -26 -26 -21 -37 11 -14 40 -14 38 8 32 13 -3 17 -11 13 -25z m-182
-15 c0 -7 -9 -17 -19 -22 -16 -9 -19 -7 -17 13 1 17 7 24 19 23 9 -1 17 -7 17
-14z m142 3 c6 4 8 -1 6 -11 -1 -10 -10 -19 -19 -20 -12 -2 -15 4 -11 24 3 14
7 20 10 13 2 -6 8 -9 14 -6z m102 -19 c-4 -13 -2 -17 5 -13 6 4 11 0 11 -8 0
-22 -26 -20 -35 2 -15 32 -13 41 6 39 14 -1 17 -6 13 -20z m-209 -26 c-8 -27
-25 -27 -25 0 0 11 5 17 10 14 6 -3 10 -1 10 6 0 7 3 10 6 6 3 -3 3 -15 -1
-26z m48 16 c6 4 8 0 4 -10 -3 -9 -2 -19 3 -22 4 -3 10 1 13 7 2 7 4 1 3 -14
-1 -20 -6 -28 -20 -28 -12 0 -16 5 -12 15 3 8 1 15 -4 15 -6 0 -10 12 -9 28 0
15 3 21 6 14 2 -6 10 -9 16 -5z m-93 -23 c0 -1 -3 -9 -6 -18 -8 -22 -34 -20
-34 2 0 11 7 18 20 18 11 0 20 -1 20 -2z m168 -26 c-5 -15 -23 -11 -26 6 -2
11 2 14 13 10 9 -4 14 -11 13 -16z m40 0 c-5 -15 -23 -11 -26 6 -2 11 2 14 13
10 9 -4 14 -11 13 -16z"/>
<path d="M2729 493 c-1 -5 -1 -11 0 -15 0 -4 -13 -5 -29 -1 -19 3 -30 1 -30
-6 0 -6 -4 -11 -10 -11 -5 0 -19 -9 -30 -20 -24 -24 -43 -169 -21 -155 10 5
11 2 6 -14 -4 -14 -2 -21 7 -21 10 0 13 -10 10 -37 -4 -29 -2 -35 11 -30 12 5
14 -1 9 -35 -4 -31 -2 -39 7 -33 9 5 12 1 11 -11 -4 -32 0 -40 10 -24 6 10 8
4 4 -21 -4 -22 -2 -39 5 -43 6 -4 11 0 12 11 0 10 2 33 5 51 2 17 -1 32 -6 32
-6 0 -10 13 -10 29 0 16 -5 31 -12 33 -7 3 -9 12 -5 22 4 9 11 15 16 12 9 -6
26 43 17 51 -8 8 -27 -8 -21 -18 4 -5 -1 -9 -9 -9 -12 0 -16 10 -16 35 0 19
-5 35 -11 35 -7 0 -9 12 -5 35 4 20 3 35 -2 35 -13 0 -23 27 -16 44 8 21 34
28 50 15 11 -9 14 -7 14 12 0 13 4 19 8 14 4 -6 17 -10 29 -9 19 1 21 -3 16
-33 -4 -22 -1 -38 6 -43 10 -5 10 -17 1 -48 -6 -23 -14 -41 -18 -39 -7 2 -12
-6 -12 -24 0 -5 5 -7 12 -3 8 5 9 2 5 -9 -7 -19 4 -28 39 -32 25 -2 34 18 13
30 -10 7 -9 21 6 105 5 28 0 47 -25 93 -31 55 -39 65 -41 50z"/>
<path d="M3460 475 c0 -9 -12 -20 -26 -25 -14 -6 -23 -14 -19 -20 7 -11 35 -2
35 12 0 5 4 7 9 3 6 -3 15 3 20 14 14 26 14 31 -4 31 -8 0 -15 -7 -15 -15z"/>
<path d="M850 460 c-3 -14 -3 -52 0 -85 l5 -60 12 39 c7 24 9 44 3 50 -4 6
-10 27 -12 46 -3 30 -4 31 -8 10z"/>
<path d="M1000 406 c0 -24 25 -54 36 -43 8 7 -18 67 -28 67 -5 0 -8 -11 -8
-24z"/>
<path d="M821 383 c0 -23 4 -45 9 -48 11 -7 11 16 0 60 -7 28 -8 28 -9 -12z"/>
<path d="M4775 398 c-3 -7 -13 -36 -22 -65 -20 -58 -31 -67 -47 -39 -25 44
-66 72 -66 46 0 -5 4 -10 10 -10 5 0 7 -7 4 -15 -4 -8 -1 -15 5 -15 7 0 9 -10
5 -26 -5 -19 -4 -25 5 -20 7 5 11 0 11 -13 0 -12 6 -21 14 -21 18 0 23 -29 15
-97 -3 -29 -1 -53 4 -53 5 0 7 -7 3 -15 -3 -8 -2 -15 3 -15 14 0 29 73 26 121
-3 35 5 71 31 139 18 51 31 96 28 101 -8 13 -24 11 -29 -3z"/>
<path d="M5226 357 c-3 -14 -3 -39 0 -55 l6 -31 24 24 c30 30 30 36 0 64 l-24
22 -6 -24z"/>
<path d="M2445 341 c-3 -6 -17 -11 -29 -11 -18 0 -23 -6 -23 -25 0 -14 3 -25
8 -25 5 0 9 6 9 13 0 7 14 18 30 24 28 11 30 10 30 -13 0 -16 4 -22 15 -18 11
5 12 0 5 -26 -7 -24 -6 -32 6 -37 18 -7 18 -32 -1 -39 -8 -4 -15 -13 -15 -21
0 -8 5 -11 11 -7 7 4 9 -1 7 -12 -2 -12 -11 -18 -22 -16 -14 3 -17 -1 -12 -13
3 -9 6 -18 6 -19 0 -2 11 -1 24 1 21 4 24 2 19 -16 -4 -17 -2 -20 11 -15 10 4
16 1 17 -7 0 -8 5 0 10 16 5 19 5 31 -1 33 -25 9 -40 35 -34 56 4 11 8 29 8
39 0 10 6 15 13 13 18 -7 16 10 -4 40 -9 14 -23 40 -32 57 -16 33 -44 46 -56
28z"/>
<path d="M951 324 c0 -11 3 -14 6 -6 3 7 2 16 -1 19 -3 4 -6 -2 -5 -13z"/>
<path d="M4567 296 c-4 -9 -11 -15 -17 -11 -11 7 -55 -34 -45 -43 3 -3 15 0
26 7 27 16 34 8 36 -42 1 -45 -14 -97 -28 -97 -5 0 -7 -15 -5 -32 2 -24 8 -33
22 -33 14 0 18 -7 17 -23 -2 -18 2 -22 25 -21 15 1 20 3 11 6 -32 8 -38 83
-14 154 14 41 14 49 -3 99 -14 39 -20 49 -25 36z"/>
<path d="M2334 279 c-5 -9 3 -13 20 -10 5 1 6 -16 2 -38 -5 -32 -3 -39 7 -35
11 4 13 -4 7 -41 -5 -33 -4 -45 6 -45 9 0 11 -10 7 -35 -4 -23 -2 -35 6 -35 6
0 11 -9 11 -20 0 -11 4 -20 9 -20 11 0 25 75 16 90 -3 5 -1 10 4 10 6 0 11 -4
11 -10 0 -5 5 -10 10 -10 21 0 9 30 -15 36 -14 3 -25 12 -25 20 0 8 -5 14 -11
14 -7 0 -9 11 -6 28 3 15 0 35 -8 45 -7 10 -11 26 -8 36 5 20 -32 37 -43 20z"/>
<path d="M835 270 c-3 -5 1 -10 9 -10 9 0 16 5 16 10 0 6 -4 10 -9 10 -6 0
-13 -4 -16 -10z"/>
<path d="M2230 245 c0 -8 -7 -15 -15 -15 -8 0 -15 -4 -15 -10 0 -5 -7 -10 -16
-10 -23 0 -11 -23 14 -27 15 -2 22 2 22 13 0 8 4 13 9 10 5 -3 11 4 14 15 3
12 10 18 16 14 6 -3 11 -2 11 3 0 6 -7 13 -16 16 -22 9 -24 8 -24 -9z"/>
<path d="M888 233 c-7 -10 -22 -18 -32 -18 -12 0 -20 -8 -22 -22 -5 -28 16
-41 28 -19 5 9 13 14 18 11 10 -6 40 33 40 52 0 18 -17 16 -32 -4z"/>
<path d="M4475 228 c-2 -7 -11 -37 -20 -66 -13 -41 -14 -59 -6 -83 6 -17 8
-42 5 -55 -5 -18 -2 -24 10 -24 9 0 16 7 16 15 0 8 6 15 14 15 7 0 16 11 18
25 3 14 1 25 -3 25 -5 0 -9 -4 -9 -10 0 -5 -4 -10 -9 -10 -5 0 -8 41 -7 90 2
86 0 105 -9 78z"/>
<path d="M2807 204 c-10 -11 -9 -66 2 -60 5 4 7 -4 4 -15 -4 -16 -2 -20 8 -17
8 3 22 1 31 -3 9 -5 19 -5 22 0 8 12 -17 61 -32 61 -7 0 -16 9 -20 20 -4 12
-11 18 -15 14z"/>
<path d="M2151 190 c-4 -7 -8 -30 -16 -79 -5 -36 -4 -43 8 -38 12 4 13 -1 7
-29 -4 -19 -7 -34 -6 -35 0 0 30 -3 64 -5 49 -4 62 -2 56 7 -5 9 -2 10 9 6 10
-3 17 -2 17 4 0 15 -29 23 -43 11 -19 -15 -46 -10 -53 10 -3 10 -10 18 -16 18
-6 0 -8 12 -4 30 3 17 1 30 -4 30 -5 0 -11 17 -13 38 -2 20 -5 35 -6 32z"/>
<path d="M5231 140 c-29 -24 -37 -27 -57 -18 -18 8 -28 8 -35 1 -8 -8 -22 -7
-50 2 -33 12 -39 12 -39 1 0 -8 7 -16 15 -20 8 -3 15 -12 15 -20 0 -9 11 -18
25 -22 14 -3 25 -13 25 -23 0 -32 22 -41 101 -41 l77 0 -5 42 c-4 24 -10 46
-16 49 -5 4 -8 23 -5 43 5 44 -6 45 -51 6z"/>
<path d="M3064 125 c-4 -8 -13 -15 -21 -15 -10 0 -13 -6 -9 -16 3 -8 2 -12 -4
-9 -5 3 -30 -14 -54 -38 l-45 -44 45 -1 c31 -2 44 2 43 10 -2 22 13 58 22 52
5 -3 9 2 9 11 0 11 5 15 15 11 16 -6 16 -5 20 32 3 25 -13 30 -21 7z"/>
<path d="M4335 131 c-3 -5 -1 -12 5 -16 6 -4 8 -11 5 -16 -4 -5 -2 -9 4 -9 7
0 7 -8 1 -26 -12 -31 -12 -35 -1 -53 13 -20 53 16 42 38 -5 9 -11 33 -15 54
-7 35 -27 49 -41 28z"/>
<path d="M4277 93 c-6 -34 1 -46 9 -16 4 13 11 20 20 16 8 -3 14 1 14 11 0 29
-37 19 -43 -11z"/>
<path d="M1985 100 c-6 -9 1 -14 18 -11 4 0 7 -8 7 -19 0 -11 5 -20 10 -20 6
0 8 -11 4 -26 -6 -23 -4 -25 17 -22 31 4 40 54 12 65 -10 4 -24 15 -31 25 -15
20 -28 23 -37 8z m75 -60 c0 -5 -2 -10 -4 -10 -3 0 -8 5 -11 10 -3 6 -1 10 4
10 6 0 11 -4 11 -10z"/>
<path d="M884 64 c-47 -60 -48 -64 -20 -64 20 0 26 5 26 22 0 12 7 29 16 39 9
10 14 23 12 30 -2 7 -18 -6 -34 -27z"/>
<path d="M1917 70 c-24 -28 -23 -70 2 -70 19 0 37 42 26 60 -4 6 -1 10 4 10 6
0 11 -5 11 -12 0 -9 3 -9 12 0 10 10 10 15 -2 22 -22 14 -34 12 -53 -10z"/>
<path d="M4228 58 c-7 -20 3 -58 16 -58 6 0 12 16 13 35 1 24 -3 35 -12 35 -7
0 -15 -5 -17 -12z"/>
<path d="M2563 43 c-7 -3 -13 -13 -13 -24 0 -16 7 -19 43 -18 23 1 34 3 25 6
-10 2 -18 10 -18 18 0 15 -19 24 -37 18z"/>
<path d="M3100 31 c0 -6 -11 -11 -25 -11 -14 0 -25 -4 -25 -10 0 -5 27 -9 60
-9 44 1 60 5 60 15 0 8 -6 14 -12 14 -7 0 -23 3 -35 6 -14 4 -23 2 -23 -5z"/>
<path d="M4126 23 c-12 -12 -5 -23 14 -23 11 0 20 4 20 9 0 11 -26 22 -34 14z"/>
<path d="M940 10 c0 -5 9 -10 21 -10 11 0 17 4 14 10 -8 13 -35 13 -35 0z"/>
</g>
</svg>
